<svg width="100" height="100" viewBox="0 0 100 100" fill="none" xmlns="http://www.w3.org/2000/svg">
<g id="logo-02 1">
<g id="Group">
<g id="Group_2">
<g id="Group_3">
<g id="Group_4">
<g id="Group_5">
<path id="Vector" d="M44.2871 77.8651C40.3831 77.5586 37.0465 77.6176 37.9451 80.3935C37.175 79.9537 36.7009 79.1893 36.4582 78.1659C35.8717 78.7571 35.3634 79.5387 35.0321 80.78C34.3343 79.9242 34.1363 78.9551 34.2915 77.8994C33.4357 78.5819 32.8283 79.7538 32.5037 81.4911L32.2048 76.7694C31.0167 78.8637 29.6278 79.7491 28.0609 79.5644C28.97 78.483 29.7582 77.3872 30.4303 76.2811C29.5241 76.1878 28.5064 76.7818 27.3793 78.0346C27.068 76.838 27.3603 75.7432 28.6987 74.8236C27.3155 74.8931 26.3645 75.2901 25.7457 75.9374C25.7086 74.6294 26.3959 73.7393 27.5554 73.1177C25.107 73.171 22.9641 72.7845 21.1897 71.8897C22.7242 71.764 23.8361 71.3937 24.5948 70.8263C21.3439 70.2456 18.7088 68.6949 17.0886 65.5506C18.7222 66.8643 20.5956 67.4421 22.9965 67.4954C20.8755 66.6853 15.9777 65.918 16.2118 58.8345C17.5551 62.7566 20.0787 64.3987 22.9774 65.1869C23.0365 65.2031 23.0917 65.2164 23.1507 65.2326C23.244 65.2564 23.3344 65.2802 23.4277 65.3021H23.4306C24.6081 65.5848 25.84 65.7448 27.0709 65.8666C28.2056 65.9808 29.3384 66.0694 30.4341 66.2027C30.5807 66.2188 30.7245 66.2369 30.8711 66.256C30.8682 66.2636 30.8635 66.2721 30.8606 66.2798C30.7464 66.5358 30.6559 66.7995 30.5941 67.0632C30.3485 67.9638 31.2709 68.3769 31.8173 67.6677C32.0753 67.4069 32.3533 67.0232 32.5922 66.5996C32.5998 66.5863 32.6084 66.573 32.616 66.5596C32.7493 66.5863 32.8826 66.6187 33.013 66.6529C33.0054 66.6691 32.994 66.6853 32.9835 66.7005C32.637 67.2546 32.2 67.7848 31.7526 68.2646C32.7702 68.4169 33.6898 67.9685 34.5428 67.2603C34.5695 67.2365 34.5961 67.2146 34.6228 67.1879C34.8122 67.2679 34.9959 67.3555 35.1749 67.4488C36.4382 68.1151 37.4748 69.1195 38.1593 70.6921C40.3164 75.6556 42.6773 77.332 44.2871 77.8651Z" fill="url(#paint0_linear_1_585)"/>
<path id="Vector_2" d="M46.232 78.0354C46.232 78.0354 45.459 78.2543 44.2862 77.865C44.9259 77.9154 45.579 77.9773 46.232 78.0354Z" fill="url(#paint1_linear_1_585)"/>
<path id="Vector_3" d="M46.7651 80.7065C46.2168 91.3027 42.7174 93.5979 37.7053 91.6388C38.9647 91.1856 40.1794 90.0328 41.3551 88.2746C39.9395 89.3931 38.4983 89.6692 37.0323 89.1875C38.702 88.4792 39.7625 87.7434 40.3241 86.9866C38.9666 87.5035 37.5616 87.7395 36.9037 87.1331C36.9037 87.1331 39.97 85.9451 40.3632 82.8722C40.6992 80.2457 46.6052 79.0881 46.6052 79.0881L46.7651 80.7065Z" fill="url(#paint2_linear_1_585)"/>
</g>
<g id="Group_6">
<path id="Vector_4" d="M47.5341 77.6889C47.5341 77.6889 49.6884 79.1635 53.4182 70.5863C57.148 62.0091 73.5979 70.0618 77.5571 58.4888C77.7894 65.5733 72.8925 66.3386 70.7715 67.1497C73.1743 67.0964 75.0449 66.5195 76.6794 65.2049C75.0591 68.3501 72.4241 69.8999 69.1722 70.4816C69.9328 71.0508 71.0438 71.4193 72.5793 71.5449C70.8029 72.4417 68.662 72.8263 66.2116 72.7729C67.3711 73.3936 68.0584 74.2856 68.0203 75.5936C67.4025 74.9453 66.4525 74.5484 65.0683 74.4789C66.4068 75.3994 66.7 76.4942 66.3868 77.6898C65.2606 76.4389 64.242 75.8449 63.3357 75.9373C64.0078 77.0434 64.7951 78.1382 65.7042 79.2187C64.1383 79.4043 62.7493 78.5199 61.5613 76.4237L61.2633 81.1473C60.9378 79.411 60.3295 78.2381 59.4755 77.5546C59.6298 78.6104 59.4308 79.5814 58.733 80.4353C58.4046 79.1949 57.8943 78.4133 57.3089 77.8221C57.0661 78.8446 56.5902 79.609 55.821 80.0488C56.8662 76.8178 52.1797 77.2671 47.5341 77.6889Z" fill="url(#paint3_linear_1_585)"/>
<path id="Vector_5" d="M47.002 80.361C47.5503 90.9573 51.0498 93.2525 56.0618 91.2933C54.8024 90.8402 53.5877 89.6874 52.412 87.9291C53.8276 89.0477 55.2688 89.3237 56.7349 88.842C55.0651 88.1338 54.0046 87.3979 53.443 86.6411C54.8005 87.158 56.2056 87.3941 56.8634 86.7877C56.8634 86.7877 53.7971 85.5996 53.404 82.5267C53.0679 79.9003 47.1619 78.7427 47.1619 78.7427L47.002 80.361Z" fill="url(#paint4_linear_1_585)"/>
</g>
</g>
<path id="Vector_6" d="M71.5607 28.0097C71.675 28.2477 71.9596 28.3495 72.1985 28.2372L77.0202 26.1172C77.3867 25.9496 77.5448 25.5146 77.3696 25.151C77.1944 24.7883 76.7556 24.6397 76.3967 24.8216L71.7806 27.3681C71.5436 27.4861 71.4455 27.7717 71.5607 28.0097Z" fill="url(#paint5_linear_1_585)"/>
<path id="Vector_7" d="M52.2586 72.3274C52.2586 72.3807 52.2586 72.4074 52.232 72.4607C52.2586 72.434 52.2586 72.3807 52.2853 72.3274H52.2586Z" fill="url(#paint6_linear_1_585)"/>
<path id="Vector_8" d="M40.4011 50.876C40.2812 50.996 40.2174 51.1664 40.0813 51.2758C40.068 51.2892 39.9937 51.3587 40.0013 51.3825C38.3173 53.6986 36.7294 56.0671 34.9645 58.3108C32.9663 60.0272 30.9539 60.9887 29.5821 63.4276C29.2146 63.8779 28.7958 64.2987 28.3293 64.6537C28.2494 64.7128 28.1665 64.7708 28.0837 64.8241C28.0809 64.827 28.078 64.8298 28.0732 64.8318C27.6572 65.1012 27.2098 65.3144 26.7434 65.4496C27.0823 65.4838 27.4202 65.5162 27.761 65.5486C27.7667 65.5457 27.7743 65.541 27.78 65.5381C30.2951 63.875 31.4013 60.6936 34.4047 59.6702C34.3705 59.7264 34.3352 59.7826 34.301 59.8378C33.7974 60.6641 33.2538 61.4685 32.7207 62.2815C31.9563 63.4029 31.1062 64.6956 30.5864 65.8389C30.7406 65.858 30.8958 65.8789 31.05 65.9027C31.2975 65.4496 32.22 63.518 33.0729 63.9864C33.4804 64.3463 33.2386 65.3296 32.7883 66.233C32.9273 66.2654 33.0625 66.2997 33.1957 66.3397C33.4699 65.8361 33.6622 65.3134 33.7155 64.7861C33.7346 64.6528 33.745 64.5224 33.7393 64.3919C33.7203 63.7684 33.1691 63.2991 32.5513 63.3743H32.5408C35.1368 59.0791 38.4192 55.4997 40.6153 51.0369C40.6363 50.9217 40.5078 50.8094 40.4011 50.876ZM40.4011 50.876C40.2812 50.996 40.2174 51.1664 40.0813 51.2758C40.068 51.2892 39.9937 51.3587 40.0013 51.3825C38.3173 53.6986 36.7294 56.0671 34.9645 58.3108C32.9663 60.0272 30.9539 60.9887 29.5821 63.4276C29.2146 63.8779 28.7958 64.2987 28.3293 64.6537C28.2494 64.7128 28.1665 64.7708 28.0837 64.8241C28.0809 64.827 28.078 64.8298 28.0732 64.8318C27.6572 65.1012 27.2098 65.3144 26.7434 65.4496C27.0823 65.4838 27.4202 65.5162 27.761 65.5486C27.7667 65.5457 27.7743 65.541 27.78 65.5381C30.2951 63.875 31.4013 60.6936 34.4047 59.6702C34.3705 59.7264 34.3352 59.7826 34.301 59.8378C33.7974 60.6641 33.2538 61.4685 32.7207 62.2815C31.9563 63.4029 31.1062 64.6956 30.5864 65.8389C30.7406 65.858 30.8958 65.8789 31.05 65.9027C31.2975 65.4496 32.22 63.518 33.0729 63.9864C33.4804 64.3463 33.2386 65.3296 32.7883 66.233C32.9273 66.2654 33.0625 66.2997 33.1957 66.3397C33.4699 65.8361 33.6622 65.3134 33.7155 64.7861C33.7346 64.6528 33.745 64.5224 33.7393 64.3919C33.7203 63.7684 33.1691 63.2991 32.5513 63.3743H32.5408C35.1368 59.0791 38.4192 55.4997 40.6153 51.0369C40.6363 50.9217 40.5078 50.8094 40.4011 50.876ZM26.7443 65.4496C26.3131 65.5771 25.8647 65.6419 25.4144 65.6257C25.3982 65.6228 25.3801 65.6228 25.3611 65.6228C25.324 65.62 25.2869 65.6152 25.2488 65.6124C24.828 65.5667 24.412 65.4524 24.0093 65.2687C24.0065 65.2687 24.0017 65.2716 23.9989 65.2716C23.9398 65.282 23.8865 65.2877 23.8313 65.2954H23.8285C23.8123 65.2954 23.7961 65.2982 23.7828 65.2982C23.7085 65.3039 23.639 65.3058 23.5752 65.3058C23.5248 65.3058 23.4743 65.303 23.4286 65.303C24.6062 65.5857 25.838 65.7456 27.0689 65.8675C27.1089 65.857 27.146 65.8408 27.186 65.8275C27.3859 65.758 27.5697 65.66 27.762 65.5476C27.4212 65.5162 27.0832 65.4848 26.7443 65.4496ZM89.9926 57.991V58.1242C89.9469 58.1271 89.9021 58.1319 89.8564 58.1376C85.5555 58.5107 81.5211 60.6526 77.5343 59.8701C77.5286 59.8701 77.5238 59.8673 77.5181 59.8673C77.3877 59.8406 77.2544 59.8111 77.124 59.7797C77.0945 59.7721 77.065 59.7635 77.0364 59.7588C77.0155 59.7511 76.9907 59.7454 76.9698 59.7397C76.8393 59.7054 76.7118 59.6674 76.5804 59.6226C75.7541 59.3618 74.9307 58.9534 74.1072 58.3651C73.715 58.0852 73.3 57.8406 72.8735 57.6111C71.2827 56.7553 69.0095 55.415 71.3123 54.0936C72.1167 53.6967 73.1914 53.9765 74.0834 53.968C80.1217 54.325 82.8529 45.169 82.93 43.0423C83.2203 40.4949 83.0395 37.8808 83.01 35.3143C83.0899 34.488 82.3226 33.5636 82.5035 32.8097C83.703 31.1333 87.4842 32.9001 89.6108 33.2362C89.7841 33.2657 89.9488 33.2838 90.0983 33.2895C90.0449 33.1296 89.9916 32.943 89.9383 32.783C89.7679 32.7621 89.5975 32.7326 89.4214 32.6974C86.4684 32.1462 82.909 30.2699 81.1451 33.635C77.1801 32.0072 72.7697 32.8059 68.86 30.8639C65.036 29.4674 60.7855 31.2637 56.8682 30.2242C53.2498 30.0671 49.8836 27.5035 46.369 28.5982C42.7154 29.8215 38.9475 30.5412 35.1768 31.2894C34.8065 31.3884 34.4676 31.3484 34.1563 31.2466C33.6689 31.0895 33.2452 30.7725 32.9063 30.3831C29.7801 26.7781 27.0861 20.161 24.5491 16.2094C24.4986 16.1323 24.451 16.0552 24.3996 15.98C24.4425 16.0495 23.8799 16.2541 23.8208 16.2922C25.6277 19.4156 31.4318 31.7635 34.4695 31.8758C34.5152 31.8787 34.5571 31.8701 34.5999 31.8625C38.9465 31.0124 43.1618 30.4793 47.3505 28.9895C48.0968 28.8295 49.0554 28.7496 49.6951 29.0694C51.9865 30.2689 54.5206 30.4365 56.9995 30.7297C62.5818 31.3637 67.1179 33.6103 71.7625 36.1654C71.9491 36.272 72.2157 36.5385 72.1624 36.6718C71.8292 38.8994 74.0434 39.323 75.5732 40.1893C72.8392 42.1161 65.631 37.6257 62.3029 36.8584C60.3952 36.6023 58.4208 37.0612 56.494 37.1249C54.7938 37.2877 55.8305 34.9373 53.1898 34.5404C50.2054 33.7141 47.221 33.6341 44.1833 33.8207C40.7886 33.7883 37.3882 33.1648 33.9773 33.4209C33.7907 33.4475 33.825 33.7455 33.9773 33.7407C39.493 33.9806 45.0096 34.2472 50.5519 34.487C46.0939 36.3919 50.0826 39.481 53.2431 38.6709C53.3973 38.7185 53.4106 38.828 53.3231 38.9375C51.482 39.6914 49.5447 39.4039 47.7541 40.3768C46.686 40.7576 45.2361 40.1131 44.0767 40.4568C40.7591 41.7305 37.609 43.1166 34.004 43.0147C36.5352 43.8943 38.8275 43.0414 41.0656 41.8152C41.1189 41.8952 41.1989 41.9752 41.2522 42.0551C39.6615 44.1761 36.5219 44.4398 34.2172 45.5726C31.9096 46.1933 29.3327 45.9858 27.6915 44.0352C23.1192 39.3563 19.18 34.1624 14.3088 29.712C14.2346 29.6397 14.1118 29.6663 14.0632 29.7577C13.9461 29.9843 13.8633 30.2108 13.7776 30.4374C16.485 33.0058 19.1448 35.5961 21.6656 38.352C23.1925 40.2569 25.2954 42.4055 27.0746 44.3475C28.5454 46.1057 30.4427 46.3409 32.6969 46.4256C31.2823 47.4299 29.7972 48.3305 28.3531 49.2872C26.9004 50.2496 25.4696 51.2587 24.1778 52.4287C23.6771 52.8818 23.2002 53.3644 22.7518 53.8699C22.5252 54.126 22.3072 54.3897 22.094 54.6591C21.8408 54.9837 21.5476 55.632 21.8512 56.0099C22.2425 56.4945 22.8927 56.8334 23.4905 56.9724C24.1673 57.1266 24.9565 57.1723 25.6334 57.0361C26.137 56.9371 26.6301 56.7725 27.0908 56.5516C27.4983 56.3574 27.8667 56.0851 28.2179 55.7976C28.4788 55.5844 28.692 55.3017 28.9157 55.0466C29.3603 54.5353 29.7734 54.0822 30.3865 53.77C30.8844 53.5139 31.4232 53.2987 31.9772 53.3806C29.1204 56.0956 27.0765 59.3713 24.7157 62.4166C24.1664 63.1277 23.599 63.8236 22.9964 64.4976C22.9936 64.5033 22.9888 64.5109 22.9831 64.5167C22.9831 64.5167 22.9831 64.5167 22.9803 64.5195C22.9803 64.5195 22.9803 64.5195 22.9774 64.5195C22.9774 64.5195 22.9774 64.5224 22.9745 64.5252C22.9745 64.5252 22.9717 64.5252 22.9717 64.5281C22.9717 64.5309 22.9688 64.5338 22.966 64.5357C22.966 64.5386 22.9631 64.5386 22.9631 64.5414C22.9127 64.6242 22.8803 64.7175 22.8727 64.8051C22.867 64.8451 22.8698 64.8851 22.8755 64.925V64.9279C22.886 65.0136 22.9184 65.0983 22.9745 65.1783C22.9745 65.1811 22.9717 65.184 22.9688 65.1859L22.9717 65.1887C22.9926 65.2183 23.0174 65.2392 23.044 65.2658C23.0783 65.2982 23.1183 65.3296 23.164 65.3649C24.3739 66.0208 25.8238 66.274 27.0308 65.8818C27.0413 65.8789 27.0546 65.8742 27.0651 65.8684C27.1051 65.858 27.1422 65.8418 27.1822 65.8285C27.3821 65.759 27.5659 65.6609 27.7581 65.5486C27.7639 65.5457 27.7715 65.541 27.7772 65.5381C30.2923 63.875 31.3984 60.6936 34.4019 59.6702C34.3676 59.7264 34.3324 59.7826 34.2981 59.8378C33.7945 60.6641 33.251 61.4685 32.7179 62.2815C31.9534 63.4029 31.1033 64.6956 30.5836 65.8389C30.5274 65.9646 30.4769 66.0845 30.4293 66.2035C30.4265 66.2092 30.4236 66.2169 30.4217 66.2226C29.9581 67.3954 29.921 68.3569 30.8054 68.73C32.298 69.0975 33.6917 68.6472 34.7493 67.8504C34.8617 67.7495 34.9702 67.6448 35.0797 67.5391C35.1092 67.5096 35.1406 67.4801 35.1701 67.4515C35.2425 67.3821 35.3139 67.3126 35.3834 67.2412C37.094 65.5362 38.6048 63.4943 40.265 61.8293C42.2955 63.3591 44.249 64.846 46.2605 66.3863C45.7378 67.2126 44.9763 68.3502 44.5279 69.3174C44.6507 69.3069 44.9277 69.3498 45.0077 69.2641C47.0325 65.48 49.8313 62.469 53.4544 60.2576C58.8159 56.6601 65.3425 56.2422 71.2551 58.605C73.2781 59.3618 74.9059 59.8416 76.3101 60.111C76.4538 60.1376 76.5928 60.1643 76.7308 60.1852C76.7546 60.1909 76.7813 60.1928 76.8051 60.1986C76.8926 60.2147 76.9812 60.2252 77.0688 60.2385C77.2049 60.2595 77.3382 60.2785 77.4686 60.2947C77.4762 60.2947 77.4819 60.2976 77.4895 60.2976C81.5477 60.7821 83.8743 59.4237 89.7555 58.4669H89.7584C89.9126 58.4431 90.0678 58.4165 90.2277 58.3927C90.2544 58.2594 90.3077 58.1261 90.361 57.9929H89.9926V57.991ZM82.3712 43.1756C82.1503 45.8192 79.1945 54.7829 72.1014 53.1636C73.2895 52.7933 75.339 52.4039 77.1725 49.7394C79.2459 46.656 80.5463 43.565 82.4007 40.3169C82.4778 41.286 82.5025 42.256 82.3712 43.1756ZM81.8942 33.8083C81.9257 33.7712 81.9609 33.7312 81.998 33.6884C82.1903 34.1577 82.3417 34.5089 82.5444 35.0154C81.8438 34.7517 81.1241 34.5841 81.8942 33.8083ZM74.6974 32.7031C76.3814 32.9696 78.0816 33.2095 79.7609 33.5027C80.2378 33.6017 80.4006 34.0863 80.4539 34.5156C80.4806 36.6423 75.6151 33.3161 74.6451 33.0048C74.508 32.9154 74.4547 32.7164 74.6974 32.7031ZM81.6791 37.7923C80.4349 38.3225 78.2549 37.1763 77.8951 35.6875C79.1469 35.261 81.226 36.4062 81.6791 37.7923ZM71.6331 35.341C71.2285 35.1144 70.8172 34.9411 70.4603 34.7012C67.9928 33.3533 65.7119 32.4251 63.0064 31.1333C66.7295 30.0195 69.5854 31.4903 72.725 32.8364C74.0444 33.774 76.7299 33.9311 77.3087 35.4742C77.2553 37.2173 79.3582 37.8218 80.5596 38.629C77.2154 40.6253 76.7223 38.7566 74.3509 36.9926C73.5141 36.3748 72.5708 35.8607 71.6331 35.341ZM75.0992 39.3002C74.0491 39.0279 72.922 38.272 72.5384 37.3391C72.4794 37.302 72.5279 37.2116 72.4775 37.1468C73.8283 36.8003 75.5475 38.0293 76.0349 39.3401C75.9493 39.3535 75.8645 39.3639 75.7789 39.3639C75.776 39.3668 75.776 39.3668 75.7731 39.3639C75.5551 39.3725 75.3257 39.3516 75.0992 39.3002ZM51.8123 38.3282C49.7313 37.9389 48.825 37.0945 48.9288 36.2815C48.9583 36.1644 49.0012 36.0445 49.0592 35.9321C49.0192 35.9988 48.9869 36.0683 48.9631 36.1349C49.1973 35.2553 50.5538 34.5489 52.6329 34.8612C56.316 35.8017 54.5244 37.8056 51.8123 38.3282ZM43.3065 41.1498L43.4665 41.5496C42.9495 41.7419 42.4831 41.9276 41.9481 42.1094C41.8919 41.9704 41.8415 41.8191 41.7881 41.6829C42.2936 41.523 42.8001 41.3364 43.3065 41.1498ZM30.5921 67.0651C30.654 66.8014 30.7444 66.5377 30.8587 66.2816C30.8615 66.274 30.8663 66.2654 30.8692 66.2578C30.9168 66.154 30.9701 66.0503 31.0234 65.9484C31.031 65.9351 31.0396 65.9217 31.05 65.9027C31.2975 65.4496 32.22 63.518 33.0729 63.9864C33.4804 64.3463 33.2386 65.3296 32.7883 66.233C32.735 66.3454 32.6741 66.4539 32.615 66.5605C32.6074 66.5738 32.5989 66.5872 32.5912 66.6005C32.3514 67.0241 32.0743 67.4078 31.8164 67.6686C31.269 68.3788 30.3475 67.9656 30.5921 67.0651ZM38.5896 62.8679C37.4386 63.8408 36.2449 65.698 34.875 66.966C34.7922 67.0432 34.7075 67.1184 34.6218 67.1898C34.5951 67.2164 34.5685 67.2374 34.5418 67.2621C33.6889 67.9713 32.7702 68.4187 31.7516 68.2664C32.199 67.7866 32.636 67.2564 32.9825 66.7024C32.993 66.6862 33.0035 66.67 33.012 66.6548C33.0787 66.551 33.1396 66.4472 33.1957 66.3406C33.4699 65.837 33.6622 65.3144 33.7155 64.787C33.7346 64.6537 33.745 64.5233 33.7393 64.3929C33.7203 63.7694 33.1691 63.3 32.5513 63.3753H32.5408C35.1368 59.08 38.4192 55.5006 40.6153 51.0378C40.6363 50.9236 40.5087 50.8113 40.4021 50.8779C40.2821 50.9979 40.2184 51.1683 40.0822 51.2777C40.0689 51.2911 39.9947 51.3606 40.0023 51.3844C38.3182 53.7005 36.7304 56.069 34.9654 58.3127C32.9673 60.0291 30.9548 60.9906 29.5831 63.4295C29.2156 63.8798 28.7967 64.3006 28.3303 64.6556C28.2503 64.7147 28.1675 64.7727 28.0847 64.826C28.0818 64.8289 28.079 64.8318 28.0742 64.8337C27.6582 65.1031 27.2108 65.3163 26.7443 65.4515C26.3131 65.579 25.8647 65.6438 25.4144 65.6276C25.3982 65.6247 25.3801 65.6247 25.3611 65.6247C25.324 65.6219 25.2869 65.6171 25.2488 65.6143C24.828 65.5686 24.412 65.4543 24.0093 65.2706C24.0065 65.2706 24.0017 65.2735 23.9989 65.2735C23.9294 65.2392 23.8599 65.2097 23.7932 65.1726C23.7875 65.1697 23.7828 65.1726 23.777 65.1668C23.6647 65.084 23.5267 65.0707 23.401 65.0336C23.3372 65.0174 23.2782 64.9964 23.2249 64.9612C23.2221 64.9612 23.2221 64.9612 23.2221 64.9584C23.2163 64.9555 23.2116 64.9507 23.2087 64.945C23.2011 64.9374 23.1897 64.9289 23.1821 64.9184C23.1583 64.8946 23.1392 64.8708 23.1259 64.8489C23.1183 64.8384 23.1126 64.8279 23.1069 64.8194C23.1012 64.8089 23.0964 64.7984 23.0964 64.7927C23.2592 64.5928 23.4163 64.4034 23.5676 64.2196C23.5971 64.1825 23.6266 64.1454 23.6581 64.1102C23.8389 63.8912 24.0122 63.6808 24.1854 63.4733C24.3853 63.2306 24.5853 62.9907 24.788 62.7489C24.8813 62.6394 24.9746 62.528 25.0679 62.4157C25.2069 62.2481 25.3478 62.0768 25.4944 61.9016C25.521 61.8693 25.5477 61.8378 25.5743 61.8055C25.6353 61.7331 25.6972 61.6589 25.7581 61.5846C25.819 61.5104 25.8837 61.4323 25.9475 61.3552C25.9551 61.3657 25.9608 61.3761 25.9666 61.3895C26.0256 61.3171 26.0836 61.2429 26.1455 61.1705V61.1677C26.2065 61.0934 26.2683 61.0211 26.3293 60.9487C26.2683 61.023 26.2093 61.0982 26.1484 61.1724C26.0875 61.2448 26.0284 61.319 25.9694 61.3933C26.0065 61.4571 26.036 61.5265 26.0627 61.6037C26.116 61.5265 26.1665 61.4466 26.2198 61.3695C26.2274 61.359 26.2331 61.3485 26.2407 61.34C26.2731 61.2924 26.3074 61.2438 26.3397 61.1991C26.3264 61.2181 26.3131 61.2333 26.2997 61.2524C26.8966 60.349 27.4478 59.4027 28.1304 58.5774C28.157 58.5345 28.197 58.4946 28.2237 58.4498C28.5492 58.0528 28.8796 57.6159 29.2337 57.2456C31.8801 54.146 34.9226 51.511 37.8946 48.6913C39.4454 45.7069 42.8429 44.4227 45.3028 42.296C45.3532 42.1818 45.2923 42.1199 45.1695 42.0827C42.9895 43.1775 40.9352 44.8539 38.9237 46.3247C38.6781 46.5037 38.4677 46.7217 38.3002 46.972C37.8042 47.705 36.3867 49.5566 33.0615 52.4268C31.2176 53.0931 29.4802 52.9837 28.2227 54.8733C28.2227 54.8999 28.196 54.8999 28.196 54.9266C27.7696 55.454 27.3031 55.8538 26.7948 56.1232C26.7386 56.1556 26.6881 56.187 26.632 56.2108C26.6291 56.2165 26.6263 56.2184 26.6215 56.2165C25.521 56.7172 23.9751 56.7791 22.8993 56.0889H22.8965C22.8032 56.0299 22.7175 55.9661 22.6356 55.8966C22.628 55.889 22.6223 55.8833 22.6147 55.8776C22.49 55.7767 22.4015 55.672 22.351 55.5682C22.3434 55.5549 22.3377 55.5444 22.332 55.534C22.3291 55.5311 22.3291 55.5263 22.3291 55.5235C22.3158 55.4968 22.3053 55.4673 22.2996 55.4378C22.2967 55.4321 22.2939 55.4245 22.2939 55.4169C22.2434 55.1846 22.3501 54.9323 22.6109 54.6258C23.4401 53.7919 24.3082 52.9979 25.2117 52.2354C27.9562 49.9193 30.9996 47.9183 34.0592 46.08C36.6809 45.6774 39.2045 43.999 41.5206 42.6692C42.5012 42.3683 43.7587 42.3417 44.2651 41.2831C45.2856 40.2921 47.2524 41.6325 48.7955 40.3502C50.4586 39.5429 52.8623 40.3873 54.0189 38.6176C54.9357 36.9336 59.2528 37.7513 61.1872 37.3277C65.6881 37.9217 69.8186 41.0956 74.4309 41.0956C75.6456 41.0956 75.9045 40.0132 76.8822 39.9761C79.4372 40.1655 84.6521 38.67 80.533 35.9255C80.5863 35.8722 80.6396 35.8188 80.6929 35.7922C80.6929 35.7922 80.6662 35.7922 80.6662 35.7655C80.8718 35.5951 81.1136 35.3153 81.3326 35.2324C81.6763 35.2296 82.1751 35.5656 82.2389 35.8455C82.791 37.6761 82.4093 39.2887 81.4126 40.8557C79.6457 44.3893 78.2225 48.2105 75.5237 51.035C71.1723 55.5863 65.3977 51.1844 60.3342 53.0865C56.356 54.6296 52.8461 57.6911 48.449 57.8567C50.5671 55.7758 49.5019 52.4391 45.7845 53.0331C49.4486 49.4414 54.6025 47.5813 59.4546 46.1314C61.3709 45.2785 62.4019 43.3546 64.3582 42.454C62.4933 42.4036 61.6508 44.1333 60.2543 45.0652C58.5807 46.4132 56.3608 46.616 54.3388 47.3033C54.73 45.7897 56.0599 45.2166 57.2965 44.5588C55.1622 44.5483 54.5121 45.8592 53.5925 47.3833C52.452 48.2524 50.6585 49.5604 49.995 47.2233C49.9417 47.2471 49.8646 47.3195 49.8884 47.3833C50.1283 47.8897 50.3415 48.3962 50.6347 49.0092C50.5814 49.0359 50.5014 49.1691 50.5014 49.1691C50.4481 49.2463 50.2673 49.2996 50.1844 49.3395C50.0321 49.4167 49.8808 49.4938 49.7285 49.5737C49.4324 49.7279 49.1392 49.8879 48.8545 50.064C48.271 50.4238 47.717 50.8341 47.1972 51.2787C46.6727 51.7099 46.1605 52.1554 45.6541 52.6086C45.2219 52.9951 44.7935 53.3816 44.3613 53.7681C44.1985 53.9147 44.1024 54.027 43.9539 54.186C43.0876 55.1189 43.3065 56.4031 43.3037 56.88C43.3008 57.3113 43.197 57.733 42.88 58.0414C41.4673 59.6702 40.0289 61.2952 38.5896 62.8679ZM43.7539 55.4007C43.7939 55.2731 43.8529 55.1503 43.9196 55.0304C44.9296 52.8989 49.3239 52.9808 48.7698 55.8329C48.311 58.7373 42.9381 58.8572 43.7539 55.4007ZM70.94 57.991C61.0406 53.65 51.7142 60.9087 51.2925 61.3085C49.8484 62.4252 48.569 63.7332 47.3838 65.1059C46.3528 66.3425 42.4402 62.5718 41.1427 61.6227C42.1975 59.853 43.0638 59.1895 43.6797 58.3375C51.0717 59.5922 54.8291 55.5292 60.9844 53.3673C61.8402 53.0665 62.7513 52.9332 63.6547 53.0027C65.8747 53.1759 68.0889 53.7595 70.306 54.0289C68.6801 55.3217 70.4631 56.5554 71.3132 58.0709C71.1799 58.0443 71.0467 58.0176 70.94 57.991ZM26.7443 65.4496C26.3131 65.5771 25.8647 65.6419 25.4144 65.6257C25.3982 65.6228 25.3801 65.6228 25.3611 65.6228C25.324 65.62 25.2869 65.6152 25.2488 65.6124C24.828 65.5667 24.412 65.4524 24.0093 65.2687C24.0065 65.2687 24.0017 65.2716 23.9989 65.2716C23.9398 65.282 23.8865 65.2877 23.8313 65.2954H23.8285C23.8123 65.2954 23.7961 65.2982 23.7828 65.2982C23.7085 65.3039 23.639 65.3058 23.5752 65.3058C23.5248 65.3058 23.4743 65.303 23.4286 65.303C24.6062 65.5857 25.838 65.7456 27.0689 65.8675C27.1089 65.857 27.146 65.8408 27.186 65.8275C27.3859 65.758 27.5697 65.66 27.762 65.5476C27.4212 65.5162 27.0832 65.4848 26.7443 65.4496ZM40.4011 50.876C40.2812 50.996 40.2174 51.1664 40.0813 51.2758C40.068 51.2892 39.9937 51.3587 40.0013 51.3825C38.3173 53.6986 36.7294 56.0671 34.9645 58.3108C32.9663 60.0272 30.9539 60.9887 29.5821 63.4276C29.2146 63.8779 28.7958 64.2987 28.3293 64.6537C28.2494 64.7128 28.1665 64.7708 28.0837 64.8241C28.0809 64.827 28.078 64.8298 28.0732 64.8318C27.6572 65.1012 27.2098 65.3144 26.7434 65.4496C27.0823 65.4838 27.4202 65.5162 27.761 65.5486C27.7667 65.5457 27.7743 65.541 27.78 65.5381C30.2951 63.875 31.4013 60.6936 34.4047 59.6702C34.3705 59.7264 34.3352 59.7826 34.301 59.8378C33.7974 60.6641 33.2538 61.4685 32.7207 62.2815C31.9563 63.4029 31.1062 64.6956 30.5864 65.8389C30.7406 65.858 30.8958 65.8789 31.05 65.9027C31.2975 65.4496 32.22 63.518 33.0729 63.9864C33.4804 64.3463 33.2386 65.3296 32.7883 66.233C32.9273 66.2654 33.0625 66.2997 33.1957 66.3397C33.4699 65.8361 33.6622 65.3134 33.7155 64.7861C33.7346 64.6528 33.745 64.5224 33.7393 64.3919C33.7203 63.7684 33.1691 63.2991 32.5513 63.3743H32.5408C35.1368 59.0791 38.4192 55.4997 40.6153 51.0369C40.6363 50.9217 40.5078 50.8094 40.4011 50.876Z" fill="url(#paint7_linear_1_585)"/>
<path id="Vector_9" d="M50.2823 35.0172C50.9916 34.7802 51.8683 34.7431 52.6594 34.8868C51.8626 34.725 50.9935 34.7697 50.2823 35.0172Z" fill="url(#paint8_linear_1_585)"/>
<path id="Vector_10" d="M49.9968 35.1299C49.8636 35.1889 49.7379 35.2574 49.6265 35.3355C49.7417 35.2603 49.8645 35.1908 49.9968 35.1299Z" fill="url(#paint9_linear_1_585)"/>
<path id="Vector_11" d="M49.1343 35.8063C49.2114 35.6997 49.3019 35.5959 49.4085 35.4998C49.299 35.5902 49.2086 35.694 49.1343 35.8063Z" fill="url(#paint10_linear_1_585)"/>
<path id="Vector_12" d="M55.2431 42.615C53.9103 43.5213 52.8984 46.0792 53.2716 47.0388C53.8846 45.6527 54.55 44.2143 55.2431 42.615Z" fill="url(#paint11_linear_1_585)"/>
<g id="Group_7">
<path id="Vector_13" d="M26.2434 61.3409C26.2434 61.338 26.2434 61.3352 26.2405 61.3333C26.2377 61.3276 26.2377 61.3228 26.2348 61.3199C26.2082 61.2666 26.1815 61.219 26.1492 61.1733L26.1463 61.1705V61.1676C26.1196 61.1248 26.0901 61.0877 26.0587 61.0505L25.955 60.9277L25.854 61.0505C25.7846 61.1362 25.7151 61.2181 25.6484 61.3009C25.6275 61.3276 25.6027 61.3571 25.5818 61.3809C25.5789 61.3837 25.5789 61.3837 25.5761 61.3866C25.5199 61.4589 25.4618 61.5256 25.4085 61.5941C25.4057 61.597 25.4028 61.5998 25.4028 61.6017C25.4 61.6046 25.3971 61.6074 25.3952 61.6093C25.1582 61.8892 24.9373 62.1558 24.7184 62.4166C24.6727 62.4699 24.6308 62.5232 24.5851 62.5765C24.2786 62.9421 23.9825 63.2962 23.6712 63.6722C23.6683 63.678 23.6636 63.6827 23.6579 63.6884C23.6579 63.6884 23.6579 63.6913 23.655 63.6941C23.6522 63.697 23.6522 63.697 23.6493 63.6998C23.6417 63.7103 23.6331 63.7208 23.6227 63.7294L23.6169 63.7351C23.4199 63.9807 23.2171 64.2282 22.9991 64.4995C22.9963 64.5052 22.9915 64.5128 22.9858 64.5185C22.9858 64.5185 22.9858 64.5185 22.9829 64.5214C22.9829 64.5214 22.9829 64.5214 22.9801 64.5214C22.9801 64.5214 22.9801 64.5242 22.9772 64.5271C22.9772 64.5271 22.9744 64.5271 22.9744 64.53C22.9744 64.5328 22.9715 64.5357 22.9687 64.5376C22.9687 64.5404 22.9658 64.5404 22.9658 64.5433C22.9553 64.5566 22.942 64.5728 22.9315 64.5861C22.8573 64.647 22.8249 64.7432 22.8487 64.8498C22.8544 64.8689 22.8592 64.8898 22.8697 64.9088C22.8697 64.9165 22.8725 64.9222 22.8773 64.9279V64.9307C22.9277 65.045 23.0296 65.1678 23.1467 65.2373C23.1943 65.2696 23.2476 65.2877 23.299 65.2963H23.3018C23.339 65.2991 23.3789 65.3039 23.4246 65.3068H23.4275C23.4732 65.3068 23.5236 65.3096 23.5741 65.3096C23.6379 65.3096 23.7074 65.3068 23.7816 65.302C23.795 65.302 23.8111 65.2991 23.8273 65.2991H23.8302C23.8863 65.2915 23.9397 65.2858 23.9977 65.2753C24.0006 65.2753 24.0053 65.2725 24.0082 65.2725C24.051 65.2668 24.0958 65.2592 24.1415 65.2487C24.706 65.1259 25.3962 64.7822 25.935 63.9007C26.529 62.9288 26.5395 61.9511 26.2434 61.3409ZM25.7103 63.7579C25.0944 64.7603 24.2709 64.9993 23.7255 65.0345C23.6512 65.0402 23.5846 65.0402 23.5198 65.0402C23.477 65.0374 23.437 65.0345 23.4028 65.0326C23.379 65.0326 23.3571 65.0297 23.3361 65.0269C23.3066 65.0212 23.2742 65.0002 23.24 64.9736C23.2343 64.9679 23.2295 64.966 23.2266 64.9602C23.2238 64.9602 23.2238 64.9602 23.2238 64.9574C23.2181 64.9545 23.2133 64.9498 23.2105 64.9441C23.2028 64.9364 23.1914 64.9279 23.1838 64.9174C23.16 64.8936 23.141 64.8698 23.1276 64.8479C23.12 64.8374 23.1143 64.827 23.1086 64.8184C23.1029 64.8079 23.0981 64.7975 23.0981 64.7917L23.1295 64.7622C23.2818 64.5728 23.4256 64.3919 23.5693 64.2187C23.5989 64.1815 23.6284 64.1444 23.6598 64.1092C23.8387 63.8883 24.0111 63.6799 24.1872 63.4723C24.3871 63.2296 24.587 62.9897 24.7898 62.7479C24.883 62.6384 24.9763 62.527 25.0696 62.4147C25.2086 62.2472 25.3495 62.0758 25.4961 61.9006C25.5228 61.8683 25.5494 61.8369 25.5761 61.8045C25.637 61.7321 25.6989 61.6579 25.7598 61.5836C25.8207 61.5094 25.8855 61.4313 25.9492 61.3542C25.9569 61.3647 25.9626 61.3752 25.9683 61.3885C25.9711 61.3885 25.9711 61.3913 25.9711 61.3942C26.0083 61.458 26.0378 61.5275 26.0644 61.6046C26.252 62.1453 26.1958 62.9611 25.7103 63.7579Z" fill="url(#paint12_linear_1_585)"/>
</g>
<g id="Group_8">
<path id="Vector_14" d="M25.2125 52.2884V52.0542L24.9945 52.2408C24.2938 52.8319 23.5932 53.4536 22.9078 54.0609L22.8012 54.1676C22.7183 54.2475 22.6355 54.3332 22.5584 54.437C22.4489 54.554 21.9292 55.1481 22.0444 55.5165C22.0501 55.5431 22.0605 55.5641 22.0682 55.586L22.0786 55.6183C22.1377 55.7621 22.2462 55.9058 22.3899 56.0286C22.427 56.0896 22.4727 56.1324 22.5422 56.1676L22.5927 56.1914L22.7469 56.141L22.8726 56.0981L22.8964 56.0905H22.8992C22.9363 56.0743 22.9716 56.0562 23.0087 56.0372C23.4456 55.8297 23.8883 55.5098 24.2691 55.1281C25.2896 54.1057 25.6866 52.9119 25.2125 52.2884ZM24.0796 54.9396C23.6903 55.3289 23.2324 55.6488 22.8002 55.8401L22.7498 55.8563L22.6355 55.8963L22.6251 55.8992C22.6222 55.8935 22.6193 55.8858 22.6146 55.8801V55.8773L22.5908 55.8506L22.5803 55.8344C22.5508 55.8106 22.5241 55.7887 22.5003 55.7621C22.4708 55.7345 22.4451 55.705 22.4223 55.6745C22.3966 55.6393 22.368 55.6031 22.3509 55.5679C22.3433 55.5546 22.3376 55.5441 22.3319 55.5336C22.329 55.5308 22.329 55.526 22.329 55.5231C22.3157 55.4936 22.308 55.467 22.2995 55.4375C22.2966 55.4318 22.2938 55.4241 22.2938 55.4165C22.2862 55.3765 22.2995 55.3175 22.3261 55.2461C22.3899 55.0833 22.5365 54.8492 22.7602 54.6064C22.8345 54.5074 22.9097 54.4331 22.9897 54.3532L23.0906 54.2523C23.7331 53.6849 24.3938 53.0985 25.0573 52.5359C25.3353 53.0661 24.9269 54.0923 24.0796 54.9396Z" fill="url(#paint13_linear_1_585)"/>
</g>
<path id="Vector_15" d="M55.3258 21.1167C55.5895 21.1167 55.8047 20.9044 55.8075 20.6407L56.0446 9.35335C56.0531 8.95067 55.7285 8.61938 55.3258 8.61938C54.9231 8.61938 54.5985 8.95067 54.6071 9.35335L54.8441 20.6407C54.847 20.9044 55.0621 21.1167 55.3258 21.1167Z" fill="url(#paint14_linear_1_585)"/>
<path id="Vector_16" d="M65.9813 24.3231C66.1679 24.5097 66.4697 24.5116 66.6591 24.3269L74.8079 16.5132C75.0992 16.2343 75.104 15.7707 74.8184 15.4861C74.5337 15.2014 74.0701 15.2062 73.7912 15.4965L65.9775 23.6453C65.7928 23.8338 65.7947 24.1365 65.9813 24.3231Z" fill="url(#paint15_linear_1_585)"/>
<path id="Vector_17" d="M61.23 21.2547C61.4747 21.3538 61.7536 21.2376 61.8554 20.9949L64.0012 16.1846C64.1601 15.8143 63.984 15.3859 63.6109 15.2345C63.2377 15.0832 62.8122 15.2679 62.6694 15.6448L60.9615 20.6331C60.8664 20.8778 60.9853 21.1557 61.23 21.2547Z" fill="url(#paint16_linear_1_585)"/>
<g id="Group_9">
<path id="Vector_18" d="M44.4554 24.3231C44.2688 24.5097 43.9671 24.5116 43.7776 24.3269L35.6288 16.5132C35.3375 16.2343 35.3328 15.7707 35.6184 15.4861C35.903 15.2014 36.3666 15.2062 36.6455 15.4965L44.4592 23.6453C44.6439 23.8338 44.642 24.1365 44.4554 24.3231Z" fill="url(#paint17_linear_1_585)"/>
<path id="Vector_19" d="M49.2068 21.2547C48.9621 21.3538 48.6832 21.2376 48.5814 20.9949L46.4356 16.1846C46.2767 15.8143 46.4528 15.3859 46.8259 15.2345C47.1991 15.0832 47.6246 15.2679 47.7674 15.6448L49.4752 20.6331C49.5704 20.8778 49.4514 21.1557 49.2068 21.2547Z" fill="url(#paint18_linear_1_585)"/>
<path id="Vector_20" d="M38.8761 28.0099C38.7618 28.2479 38.4772 28.3498 38.2383 28.2375L33.4166 26.1174C33.0501 25.9499 32.892 25.5148 33.0672 25.1512C33.2424 24.7885 33.6812 24.64 34.0401 24.8218L38.6562 27.3683C38.8932 27.4864 38.9913 27.7719 38.8761 28.0099Z" fill="url(#paint19_linear_1_585)"/>
</g>
<g id="Group_10">
<path id="Vector_21" d="M90.2619 58.6278L89.7545 58.4631C91.0482 54.4696 91.7041 50.2953 91.7041 46.0571C91.7041 23.8841 73.6654 5.84535 51.4923 5.84535C41.2978 5.84535 31.5745 9.66653 24.113 16.6054L23.7503 16.2151C31.3098 9.18388 41.1617 5.31226 51.4923 5.31226C73.9586 5.31226 92.2363 23.5899 92.2363 46.0562C92.2382 50.3514 91.5737 54.581 90.2619 58.6278Z" fill="url(#paint20_linear_1_585)"/>
</g>
<path id="Vector_22" d="M53.5638 82.8607C53.6438 83.0977 53.7181 83.3538 53.7876 83.6308C53.6219 83.2843 53.5001 82.9007 53.4306 82.4771C53.4753 82.6018 53.521 82.7303 53.5638 82.8607Z" fill="black"/>
<path id="Vector_23" d="M54.2407 87.1383C54.1264 87.0526 54.0198 86.965 53.9208 86.8774C54.0198 86.907 54.1236 86.9336 54.2273 86.9603C54.2302 86.9869 54.2302 87.0136 54.2302 87.0431C54.235 87.0745 54.2378 87.1059 54.2407 87.1383Z" fill="black"/>
<g id="Group_11">
<path id="Vector_24" d="M59.4317 67.5011C58.9548 67.4716 58.5302 67.5858 58.1123 67.8657C57.7486 68.1627 57.5487 68.5901 57.5183 69.1194C57.4592 69.624 57.5868 70.0609 57.9181 70.4655C58.2418 70.8215 58.6663 71.0186 59.1623 71.0491C59.2423 71.0586 59.3203 71.0633 59.3965 71.0633C59.8039 71.0633 60.1657 70.9301 60.497 70.6588C60.8539 70.3665 61.0605 69.9372 61.0929 69.4164C61.1243 68.8891 60.9958 68.4578 60.7007 68.098C60.4046 67.7343 59.9772 67.5335 59.4317 67.5011Z" fill="url(#paint21_linear_1_585)"/>
</g>
<path id="Vector_25" d="M56.1113 88.1121L57.2908 71.9221L60.793 72.1611L59.6136 88.3511L56.1113 88.1121Z" fill="url(#paint22_linear_1_585)"/>
<path id="Vector_26" d="M56.396 87.8641L59.3671 88.0659L60.5085 72.4081L57.5374 72.2053L56.396 87.8641Z" fill="url(#paint23_linear_1_585)"/>
<path id="Vector_27" d="M38.3971 87.4325C38.4285 86.6157 38.4561 85.9979 38.538 85.3963C38.6227 84.7746 38.7379 84.2016 38.8798 83.6913C39.0901 82.8745 39.3976 82.0825 39.7679 81.4047L39.8708 81.2352C39.9945 81.0325 40.1116 80.8421 40.1887 80.6498L40.1954 80.6327L40.2325 80.5679L40.2439 80.5536C40.8656 79.7454 41.4539 79.1895 42.0422 78.8525C42.2811 78.7059 42.4867 78.5888 42.6724 78.4945C42.6724 78.4945 42.541 78.4536 42.4887 78.4365C42.3649 78.4108 42.2554 78.3641 42.1498 78.3203L42.045 78.2775L42.0289 78.268C41.8851 78.1842 41.7252 78.1042 41.571 78.0271L41.5462 78.0138L41.3948 77.9205C41.2302 77.8196 41.0598 77.7149 40.8722 77.574C40.3334 77.1932 39.8631 76.6401 39.5176 75.9785C39.1968 75.3683 39.0054 74.6667 38.9502 73.8937C38.9217 73.7338 38.9217 73.5701 38.9217 73.3968V72.9922H39.4633L42.1145 72.9275L42.124 73.3321C42.1507 74.5125 42.3078 75.375 42.6048 75.968C42.9104 76.5792 43.2255 76.9876 43.5682 77.2161L43.5853 77.2275L43.6329 77.2713L43.8195 77.3931C43.8623 77.4103 43.9014 77.4274 43.9413 77.4541C44.0165 77.4912 44.1108 77.5378 44.1612 77.555C44.2679 77.5968 44.3631 77.6197 44.4468 77.6397L44.4583 77.6425L44.4545 77.5654L44.3336 72.8837H44.4164L44.4154 72.8561H44.8305L47.6445 72.7913L47.7797 77.5597C48.031 77.4826 48.3061 77.3322 48.6364 77.0895C48.9905 76.8105 49.2904 76.3774 49.5179 75.8062C49.7302 75.3093 49.8464 74.6096 49.874 73.6605V72.7181H50.3062L53.0925 72.6533L53.104 73.055C53.1335 74.0965 52.9812 74.9742 52.6518 75.6634C52.2986 76.3688 51.8769 76.9171 51.3609 77.3417C50.7821 77.7853 50.2947 78.0747 49.8197 78.2594L49.5427 78.3689C49.5817 78.3851 49.6198 78.4013 49.6588 78.4165C49.7378 78.4479 49.8264 78.4945 49.9216 78.546C50.0044 78.5907 50.0805 78.6316 50.1634 78.6678C50.7764 78.9867 51.3762 79.4989 52.0682 80.2852C52.7118 81.0515 53.2468 82.0682 53.6618 83.3143C53.9798 84.2396 54.193 85.4429 54.3149 86.9879C54.3158 87.0974 54.3215 87.1774 54.3272 87.2602C54.3349 87.3763 54.3425 87.483 54.3434 87.5963C54.371 87.8066 54.371 88.0037 54.371 88.2302V88.6263L50.8507 88.6977L50.8392 88.2978C50.785 86.4606 50.6213 84.9308 50.3538 83.7513C50.0891 82.6127 49.7692 81.7036 49.4046 81.0515C49.0686 80.4518 48.7211 79.9853 48.3965 79.7016C48.3232 79.6588 48.2756 79.6141 48.2442 79.5826C48.1871 79.5388 48.1224 79.4951 48.0614 79.4532C47.9929 79.4065 47.9396 79.3704 47.892 79.3342C47.8472 79.3047 47.7996 79.2742 47.7549 79.2485L47.8491 82.7146L48.0414 87.8342V88.731L47.9329 88.7348L47.6949 88.7672L44.7648 88.87L44.7286 87.0822L44.5192 79.3285C44.4916 79.3418 44.463 79.3561 44.4373 79.3694C44.2955 79.4513 44.1232 79.5988 43.9128 79.7825C43.631 80.0215 43.3378 80.4508 42.9599 81.1781C42.6543 81.815 42.3887 82.7422 42.1726 83.9264C41.9584 85.1069 41.8765 86.6433 41.9318 88.493L41.9432 88.9004L38.399 88.9728V87.4325H38.3971Z" fill="url(#paint24_linear_1_585)"/>
<path id="Vector_28" d="M54.0759 87.6152C54.0759 87.5019 54.0683 87.3953 54.0607 87.2925C54.054 87.1992 54.0483 87.1097 54.0474 87.0088C53.9274 85.4857 53.718 84.3043 53.4077 83.398C53.0031 82.1852 52.4852 81.1971 51.8664 80.4612C51.1963 79.6996 50.6241 79.2094 50.0558 78.9124C49.9606 78.8714 49.873 78.8238 49.7921 78.78C49.7074 78.7334 49.6284 78.6915 49.557 78.663C49.4761 78.6306 49.3999 78.5982 49.3276 78.5668C49.1533 78.4926 48.9887 78.4231 48.8306 78.3831C48.7992 78.3726 48.7659 78.3612 48.7326 78.3517C48.8268 78.3269 48.923 78.2965 49.0277 78.2641L49.2028 78.2098C49.2314 78.2051 49.2552 78.1946 49.2771 78.1841L49.7207 78.0099C50.171 77.8347 50.6365 77.5577 51.1896 77.1341C51.677 76.7324 52.0759 76.2145 52.41 75.5462C52.7213 74.8951 52.865 74.0593 52.8365 73.0607L52.8327 72.9236L50.3052 72.9817H50.1405V73.6661C50.112 74.6495 49.9892 75.3796 49.7655 75.9032C49.5199 76.5172 49.1914 76.9894 48.7935 77.3017C48.4146 77.5796 48.0967 77.7472 47.7958 77.829C47.6759 77.8595 47.5874 77.8814 47.5226 77.8938L47.3856 73.0607L44.8295 73.1187H44.6886L44.6896 73.1463H44.6058L44.7191 77.5501L44.7382 77.9633C44.6649 77.9499 44.5677 77.9328 44.4497 77.9119L44.384 77.8957C44.2907 77.8738 44.1851 77.8481 44.0756 77.8052C44.007 77.7824 43.908 77.7329 43.8052 77.6815C43.7729 77.6577 43.7367 77.6453 43.6958 77.6282L43.4682 77.4797L43.4197 77.4349C43.0379 77.1798 42.6924 76.7381 42.3659 76.0841C42.0517 75.4548 41.8851 74.5562 41.8575 73.3348L41.8547 73.1968L39.4633 73.2549H39.1882V73.3929C39.1882 73.5614 39.1882 73.707 39.2158 73.8708C39.2682 74.6057 39.4491 75.273 39.7537 75.8509C40.0793 76.4753 40.5219 76.997 41.0312 77.3559C41.2083 77.4882 41.3663 77.5863 41.5338 77.6891L41.6852 77.7814C41.8451 77.8614 42.0108 77.9442 42.1631 78.0337L42.2516 78.0699C42.3554 78.1137 42.4534 78.1546 42.5563 78.1736C42.6115 78.1917 42.6705 78.2108 42.7295 78.2289C42.8418 78.265 42.9551 78.3003 43.0437 78.3355L43.1008 78.345C43.2379 78.3888 43.374 78.4173 43.5006 78.4383C43.3883 78.4707 43.2626 78.5164 43.1274 78.5744C42.8628 78.6801 42.5677 78.8362 42.1745 79.078C41.6167 79.3969 41.055 79.931 40.4553 80.7097L40.4362 80.742C40.3515 80.9543 40.2287 81.1542 40.0992 81.3665L40.0031 81.5255C39.6442 82.1843 39.3443 82.9563 39.1378 83.7559C38.9988 84.2548 38.8864 84.8164 38.8036 85.4257C38.7237 86.014 38.6961 86.6233 38.6646 87.4258V88.6947L41.669 88.6328L41.6652 88.4948C41.61 86.6261 41.6928 85.0706 41.9108 83.873C42.1307 82.665 42.4039 81.714 42.7229 81.0495C43.1179 80.2899 43.4302 79.8358 43.7367 79.5759C43.9585 79.3817 44.1422 79.2256 44.3136 79.1275C44.4116 79.078 44.523 79.0228 44.5982 78.9971C44.6639 78.9752 44.7286 78.9533 44.7753 78.9343L44.9952 87.0707L45.0256 88.5881L47.6854 88.4958L47.6873 88.471L47.7759 88.4682V87.8399L47.5836 82.7174L47.4788 78.861C47.4817 78.8619 47.4846 78.8629 47.4884 78.8638C47.5341 78.8781 47.5883 78.8943 47.6673 78.92C47.7759 78.9419 47.8929 79.0095 48.0519 79.1151C48.0976 79.1494 48.149 79.1846 48.2023 79.2208C48.2756 79.2713 48.3547 79.3246 48.4222 79.3769C48.4498 79.4045 48.487 79.4417 48.5527 79.4778C48.9049 79.7806 49.28 80.2775 49.6379 80.9162C50.0149 81.5902 50.3433 82.5222 50.6146 83.6865C50.8869 84.8821 51.0516 86.4291 51.1068 88.2835L51.1106 88.4196L54.1064 88.3587V88.2245C54.1035 88.0074 54.1035 87.8142 54.0759 87.6152Z" fill="url(#paint25_linear_1_585)"/>
<path id="Vector_29" d="M11.6528 95.251C11.331 95.251 10.9826 95.2215 10.6161 95.1615C9.66035 94.9769 8.69887 94.5485 7.75071 93.8878C6.76068 93.1976 5.82204 92.2695 4.95861 91.1281C4.07615 89.96 3.28316 88.4911 2.60251 86.7614C1.93709 85.0412 1.55631 83.46 1.43826 81.9264C1.32308 80.4299 1.40875 79.1476 1.701 78.0072C2.00182 76.8344 2.41973 75.9062 2.97758 75.1713C3.544 74.4269 4.23322 73.8804 4.97289 73.5911C5.55073 73.3769 6.14761 73.2693 6.75401 73.2693C7.03865 73.2693 7.32328 73.2931 7.60221 73.3416C8.48848 73.494 9.31003 73.7948 10.0459 74.2365C10.7703 74.6715 11.4139 75.2417 11.9041 75.8862L12.0974 76.1404L10.2239 80.3985L9.75554 79.1581C9.32621 78.0224 8.81596 77.1276 8.23907 76.4983C7.6717 75.8786 7.13194 75.4731 6.63692 75.2922C6.35514 75.1856 6.10287 75.1313 5.88106 75.1313C5.75636 75.1313 5.64307 75.1494 5.54502 75.1837C5.31369 75.2722 5.06809 75.5073 4.85961 75.8415C4.63685 76.1975 4.49215 76.7506 4.416 77.5331C4.3446 78.2756 4.42932 79.2685 4.6854 80.6575C4.9291 81.9559 5.41936 83.5524 6.14285 85.402C6.83017 87.226 7.53081 88.7548 8.22574 89.9505C8.89212 91.071 9.52517 91.9087 10.104 92.438C10.658 92.9435 11.1311 93.2624 11.55 93.4118C11.7785 93.449 11.965 93.4661 12.1193 93.4661C12.2801 93.4661 12.4106 93.4461 12.5162 93.4061C12.7685 93.3157 13.0055 93.0406 13.2121 92.6055C13.4577 92.0905 13.5691 91.3584 13.5453 90.4312C13.5196 89.4479 13.234 88.2551 12.6724 86.7843L12.2021 85.5524L16.3917 87.4564L16.4383 87.7419C16.6173 88.8462 16.6068 89.8858 16.4059 90.8311C16.2041 91.783 15.8195 92.6417 15.2636 93.3833C14.7115 94.1191 14.0137 94.6465 13.1293 94.994C12.6866 95.1663 12.203 95.251 11.6528 95.251Z" fill="url(#paint26_linear_1_585)"/>
<path id="Vector_30" d="M16.1518 87.6389L12.6829 86.0624L12.9218 86.6888C13.4939 88.1882 13.7852 89.4095 13.8119 90.4234C13.8376 91.3934 13.7167 92.1664 13.453 92.7195C13.2112 93.2259 12.9304 93.5401 12.6181 93.6515L12.6124 93.6534C12.3563 93.7524 12.0174 93.7571 11.4844 93.6705C11.0255 93.5125 10.5143 93.1736 9.92408 92.6348C9.3253 92.0883 8.67607 91.2297 7.99541 90.0854C7.29192 88.8764 6.58556 87.3352 5.89444 85.4998C5.16428 83.634 4.66926 82.0214 4.42271 80.7067C4.16282 79.2921 4.07619 78.2754 4.15044 77.5081C4.23041 76.6837 4.38843 76.0925 4.63309 75.7013C4.87584 75.3129 5.16238 75.0463 5.45558 74.934C5.78782 74.816 6.22667 74.8521 6.7274 75.0435C7.26336 75.2386 7.83834 75.668 8.43522 76.3201C9.03591 76.975 9.56329 77.8994 10.0041 79.0665L10.242 79.6967L11.7899 76.1792L11.6919 76.0497C11.2207 75.4319 10.6038 74.8845 9.9079 74.4666C9.2006 74.042 8.40952 73.7526 7.55656 73.606C6.73026 73.4642 5.87159 73.5442 5.07004 73.8412C4.37606 74.1125 3.72587 74.6294 3.18992 75.3348C2.65396 76.0411 2.25128 76.9369 1.95903 78.0755C1.67439 79.1864 1.59062 80.4402 1.7039 81.9081C1.82004 83.416 2.19512 84.9724 2.85007 86.666C3.52215 88.3738 4.30276 89.8217 5.17095 90.9698C6.01724 92.0883 6.93588 92.9975 7.90307 93.6715C8.82076 94.3112 9.74512 94.7243 10.659 94.9004C11.0131 94.9576 11.3444 94.9861 11.6538 94.9861C12.1688 94.9861 12.6248 94.9071 13.0332 94.7472C13.87 94.4178 14.5306 93.9199 15.0513 93.225C15.5844 92.5148 15.9529 91.6914 16.1461 90.7775C16.3394 89.8646 16.3498 88.8584 16.1756 87.7864L16.1518 87.6389Z" fill="url(#paint27_linear_1_585)"/>
<g id="Group_12">
<path id="Vector_31" d="M16.7457 91.4132L17.2741 91.2685C17.3369 91.2513 17.5044 91.2056 17.7091 90.8201C17.8433 90.5688 18.0033 90.0785 18.0033 89.176C18.029 88.3793 17.8491 87.2521 17.4711 85.8194L17.0037 84.0583C16.3097 81.428 16.2955 79.4203 16.9599 78.0905C17.6415 76.7282 18.8696 75.8096 20.6116 75.3583L23.7769 74.5339L27.877 90.2575L25.9445 90.7401L22.2861 76.6568L21.0515 76.9852C20.7011 77.0823 20.4155 77.3051 20.1842 77.664C19.931 78.0543 19.8034 78.6778 19.8034 79.5165C19.832 80.4932 20.0443 81.7517 20.4174 83.1473L20.8858 84.9094C21.2552 86.3297 21.3513 87.6091 21.1723 88.7124C20.9915 89.8272 20.5878 90.7506 19.9729 91.4579C19.3655 92.1566 18.6116 92.6374 17.731 92.8896L17.2103 93.0381L16.7457 91.4132Z" fill="url(#paint28_linear_1_585)"/>
<path id="Vector_32" d="M20.6782 75.6172C19.0142 76.0475 17.8433 76.9195 17.1988 78.2103C16.5638 79.4812 16.5848 81.4251 17.2616 83.9906L17.729 85.7518C18.1146 87.2102 18.2964 88.3601 18.2707 89.1769C18.2707 90.1355 18.0936 90.6677 17.9451 90.9466C17.7128 91.3826 17.491 91.4864 17.3444 91.5264L17.076 91.5997L17.393 92.7096L17.6576 92.6344C18.4877 92.3974 19.1988 91.9433 19.7719 91.2846C20.3536 90.6153 20.7363 89.7357 20.9095 88.6714C21.0828 87.6043 20.9885 86.362 20.6287 84.9788L20.1603 83.2176V83.2167C19.7814 81.8011 19.5653 80.5198 19.5368 79.5174C19.5368 78.6263 19.6796 77.9552 19.9604 77.5202C20.2298 77.1041 20.5649 76.8452 20.9838 76.7291L22.4774 76.3321L26.1367 90.4192L27.5513 90.066L23.5864 74.8613L20.6782 75.6172Z" fill="url(#paint29_linear_1_585)"/>
</g>
<path id="Vector_33" d="M30.5673 98.611C30.315 98.611 30.0903 98.5719 29.9428 98.5424C29.6505 98.4834 29.5334 98.4548 29.5334 98.4548L29.1831 98.3672L28.4663 93.6874L29.6334 94.8488C29.6334 94.8488 29.7533 94.9678 29.9618 95.2058C30.1808 95.4238 30.3978 95.6027 30.6529 95.7722C30.8072 95.8845 30.9661 95.935 31.148 95.935C31.1784 95.935 31.2089 95.9331 31.2394 95.9312C31.5668 95.8779 31.9181 95.5904 32.237 95.102C32.634 94.5308 32.9377 93.4961 33.1452 92.0205L33.506 89.6758L25.9103 74.0285L29.3973 73.5011L34.3989 83.7023L36.1239 72.4663L38.1258 72.1541L35.1262 92.0386C34.9006 93.5294 34.6131 94.7355 34.2704 95.6208C33.9106 96.549 33.4755 97.2306 32.9405 97.7028C32.3827 98.1949 31.7382 98.4815 30.9709 98.5767C30.851 98.5986 30.7101 98.611 30.5673 98.611Z" fill="url(#paint30_linear_1_585)"/>
<path id="Vector_34" d="M34.5342 84.5802L29.2441 73.7926L26.3083 74.2371L33.7821 89.6332L33.4099 92.0531L33.409 92.0569C33.1957 93.5753 32.8787 94.6462 32.4599 95.2479C32.0934 95.8095 31.684 96.1304 31.2623 96.197C30.9786 96.2217 30.7273 96.157 30.5036 95.9942C30.2332 95.8143 30 95.621 29.7601 95.3812C29.5592 95.1517 29.445 95.0375 29.445 95.0375L28.8519 94.4473L29.4193 98.1523L29.5973 98.1971C29.5973 98.1971 29.7106 98.2256 29.9952 98.2827C30.1552 98.3151 30.3503 98.3465 30.5674 98.3465C30.6854 98.3465 30.8092 98.337 30.9367 98.3141C31.6497 98.2256 32.2476 97.96 32.7635 97.505C33.2662 97.0614 33.6784 96.414 34.022 95.5259C34.3581 94.6577 34.6408 93.4715 34.8636 91.9998L37.8089 72.4741L36.3591 72.7007L34.5342 84.5802Z" fill="url(#paint31_linear_1_585)"/>
<path id="Vector_35" d="M68.1269 89.4673L69.5587 80.1628L66.144 79.6383L64.7132 88.939L61.2462 88.4211L63.7241 72.3787L67.1883 72.8965L66.4172 77.9895L69.8319 78.5131L70.603 73.4239L74.07 73.9427L71.593 89.9842L68.1269 89.4673Z" fill="url(#paint32_linear_1_585)"/>
<path id="Vector_36" d="M70.8266 73.7266L70.0555 78.8177L66.1135 78.2132L66.8846 73.1202L63.9468 72.6814L61.5507 88.1974L64.4894 88.6363L65.9202 79.3347L69.8623 79.9391L68.4315 89.2427L71.3702 89.6815L73.7653 74.1665L70.8266 73.7266Z" fill="url(#paint33_linear_1_585)"/>
<path id="Vector_37" d="M79.8046 92.117L82.2807 83.0362L78.9241 82.1347L76.4461 91.2174L73.0619 90.3016L77.3086 74.6418L80.6938 75.5576L79.3458 80.5383L82.7024 81.4408L84.0513 76.4582L87.4365 77.374L83.1898 93.0337L79.8046 92.117Z" fill="url(#paint34_linear_1_585)"/>
<path id="Vector_38" d="M84.239 76.7846L82.89 81.7672L79.0184 80.7267L80.3673 75.7451L77.4962 74.9683L73.3895 90.114L76.2596 90.8908L78.7366 81.8081L82.6083 82.8486L80.1313 91.9303L83.0024 92.7071L87.1101 77.5614L84.239 76.7846Z" fill="url(#paint35_linear_1_585)"/>
<path id="Vector_39" d="M90.0059 95.6773L93.4386 86.8793C93.2035 86.9202 92.9465 86.9964 92.8408 87.0268C92.4505 87.1354 92.0116 87.3952 91.37 87.8969C90.8084 88.3567 90.1886 89.085 89.5308 90.0579C88.8768 91.026 88.2009 92.3978 87.5222 94.1351L87.3251 94.6397L83.7829 93.2536L83.9819 92.7481C84.7349 90.8366 85.5098 89.4029 86.3494 88.3672C87.1614 87.3305 88.0429 86.5233 88.8959 86.0359C89.7631 85.5275 90.5399 85.2353 91.2691 85.1429C91.0178 84.9649 90.7884 84.7878 90.5751 84.607C90.1334 84.2005 89.8183 83.7749 89.6289 83.3342C89.4071 82.8163 89.4042 82.2385 89.6194 81.6644C89.8802 81.0295 90.2886 80.5649 90.8369 80.2755C91.2701 80.0204 91.8308 79.8938 92.5409 79.8938C92.6942 79.8938 92.856 79.8995 93.0264 79.9109C93.888 79.968 94.9941 80.2689 96.4088 80.8286L99.1742 81.8053L93.2701 96.9501L90.0059 95.6773ZM94.2859 81.9948C94.0945 81.9948 93.9184 82.0205 93.7623 82.07C93.312 82.2128 93.0274 82.4774 92.8655 82.902C92.6971 83.3447 92.7209 83.7226 92.9436 84.1272C93.1378 84.4327 93.5548 84.7555 94.125 85.0391L95.254 82.1566C94.8904 82.049 94.5658 81.9948 94.2859 81.9948Z" fill="url(#paint36_linear_1_585)"/>
<path id="Vector_40" d="M96.3135 81.0781C94.9255 80.5288 93.8451 80.2337 93.0111 80.1785C92.1077 80.1166 91.4537 80.2242 90.9644 80.5126C90.4732 80.7725 90.1067 81.1895 89.8725 81.7607C89.6812 82.27 89.6831 82.7783 89.8773 83.2314C90.0515 83.636 90.3419 84.0292 90.7502 84.4062C91.0863 84.6908 91.4756 84.9764 91.9269 85.2648C91.9745 85.2896 92.0202 85.3143 92.0649 85.3381C91.845 85.3495 91.5956 85.3733 91.3062 85.4095C90.6132 85.4961 89.8678 85.7779 89.0301 86.2691C88.2066 86.7394 87.3517 87.5248 86.5588 88.5367C85.7363 89.5515 84.9757 90.9614 84.2322 92.8472L84.1313 93.1042L87.1766 94.2961L87.2765 94.04C87.9619 92.2846 88.6474 90.8947 89.3128 89.9104C89.9849 88.9156 90.6246 88.1674 91.2081 87.6885C91.8783 87.164 92.3438 86.8898 92.7675 86.7727C93.0778 86.6813 93.5224 86.5623 93.7908 86.59C93.807 86.5919 93.8222 86.5928 93.8375 86.5947L90.3514 95.527L93.1206 96.6074L98.8286 81.9682L96.3135 81.0781ZM92.6161 82.8078C92.8065 82.308 93.1549 81.9834 93.6804 81.8159C93.8632 81.7578 94.064 81.7283 94.2849 81.7283C94.6647 81.7283 95.1026 81.8149 95.6052 81.9901L94.2696 85.4019C93.509 85.0649 92.9712 84.6679 92.7103 84.2557C92.4495 83.7826 92.42 83.3228 92.6161 82.8078Z" fill="url(#paint37_linear_1_585)"/>
<g id="Group_13">
<path id="Vector_41" d="M69.2132 11.9984C66.7676 14.4439 66.7676 18.4098 69.2132 20.8554C71.6588 23.301 75.6246 23.301 78.0702 20.8554C80.5158 18.4089 80.5158 14.4439 78.0702 11.9974C75.6246 9.55181 71.6597 9.55181 69.2132 11.9984Z" fill="url(#paint38_radial_1_585)"/>
<path id="Vector_42" d="M73.818 15.5104C69.8331 19.4953 66.8144 22.9357 67.0743 23.1956C67.3342 23.4554 70.7755 20.4368 74.7595 16.4519C78.7444 12.467 81.7631 9.02657 81.5032 8.76668C81.2433 8.50584 77.802 11.5255 73.818 15.5104Z" fill="url(#paint39_radial_1_585)"/>
<path id="Vector_43" d="M73.7141 15.5103C69.7291 11.5254 66.2888 8.50669 66.0289 8.76657C65.769 9.02646 68.7877 12.4678 72.7726 16.4518C76.7575 20.4367 80.1979 23.4553 80.4577 23.1954C80.7176 22.9356 77.698 19.4942 73.7141 15.5103Z" fill="url(#paint40_radial_1_585)"/>
</g>
<g id="Group_14">
<path id="Vector_44" d="M67.9679 64.5709C66.1706 66.3672 66.1706 69.2812 67.9679 71.0775C69.7652 72.8748 72.6782 72.8748 74.4745 71.0775C76.2718 69.2802 76.2718 66.3672 74.4745 64.5709C72.6782 62.7745 69.7652 62.7745 67.9679 64.5709Z" fill="url(#paint41_radial_1_585)"/>
<path id="Vector_45" d="M71.3511 67.1505C68.4238 70.0777 66.2057 72.6052 66.3971 72.7965C66.5884 72.9879 69.1159 70.7698 72.0431 67.8425C74.9704 64.9153 77.1885 62.3878 76.9971 62.1965C76.8058 62.0061 74.2774 64.2232 71.3511 67.1505Z" fill="url(#paint42_radial_1_585)"/>
<path id="Vector_46" d="M71.275 67.1506C68.3477 64.2233 65.8203 62.0052 65.6289 62.1966C65.4376 62.3879 67.6557 64.9154 70.5829 67.8426C73.5102 70.7699 76.0377 72.988 76.229 72.7966C76.4194 72.6063 74.2013 70.0778 71.275 67.1506Z" fill="url(#paint43_radial_1_585)"/>
</g>
<g id="Group_15">
<path id="Vector_47" d="M15.2713 58.002C13.474 59.7984 13.474 62.7123 15.2713 64.5087C17.0686 66.306 19.9816 66.306 21.778 64.5087C23.5753 62.7114 23.5753 59.7984 21.778 58.002C19.9807 56.2047 17.0677 56.2047 15.2713 58.002Z" fill="url(#paint44_radial_1_585)"/>
<path id="Vector_48" d="M18.6536 60.582C15.7263 63.5092 13.5082 66.0367 13.6996 66.228C13.8909 66.4194 16.4184 64.2013 19.3456 61.274C22.2729 58.3468 24.491 55.8193 24.2996 55.628C24.1083 55.4366 21.5808 57.6547 18.6536 60.582Z" fill="url(#paint45_radial_1_585)"/>
<path id="Vector_49" d="M18.5775 60.582C15.6502 57.6547 13.1227 55.4366 12.9314 55.628C12.7401 55.8193 14.9581 58.3468 17.8854 61.274C20.8127 64.2013 23.3401 66.4194 23.5315 66.228C23.7228 66.0367 21.5038 63.5083 18.5775 60.582Z" fill="url(#paint46_radial_1_585)"/>
</g>
<g id="Group_16">
<path id="Vector_50" d="M50.7736 4.63727C48.3281 7.08286 48.3281 11.0487 50.7736 13.4943C53.2192 15.9399 57.1851 15.9399 59.6307 13.4943C62.0763 11.0478 62.0763 7.08286 59.6307 4.63632C57.1851 2.19073 53.2192 2.19073 50.7736 4.63727Z" fill="url(#paint47_radial_1_585)"/>
<path id="Vector_51" d="M55.3775 8.1482C51.3926 12.1331 48.3739 15.5735 48.6338 15.8334C48.8937 16.0933 52.335 13.0746 56.319 9.08969C60.3029 5.10478 63.3225 1.66439 63.0627 1.40451C62.8028 1.14462 59.3624 4.16424 55.3775 8.1482Z" fill="url(#paint48_radial_1_585)"/>
<path id="Vector_52" d="M55.2736 8.1482C51.2887 4.16329 47.8483 1.14463 47.5884 1.40451C47.3285 1.6644 50.3472 5.10574 54.3321 9.08969C58.317 13.0737 61.7574 16.0933 62.0173 15.8334C62.2781 15.5745 59.2585 12.1331 55.2736 8.1482Z" fill="url(#paint49_radial_1_585)"/>
</g>
<g id="Group_17">
<path id="Vector_53" d="M31.4079 11.346C28.9623 13.7916 28.9623 17.7575 31.4079 20.2031C33.8535 22.6487 37.8194 22.6487 40.265 20.2031C42.7106 17.7565 42.7106 13.7916 40.265 11.3451C37.8194 8.90044 33.8535 8.90044 31.4079 11.346Z" fill="url(#paint50_radial_1_585)"/>
<path id="Vector_54" d="M36.0118 14.8577C32.0269 18.8426 29.0082 22.283 29.2681 22.5429C29.528 22.8027 32.9693 19.7841 36.9532 15.7992C40.9382 11.8143 43.9568 8.37387 43.6969 8.11398C43.4371 7.8541 39.9967 10.8737 36.0118 14.8577Z" fill="url(#paint51_radial_1_585)"/>
<path id="Vector_55" d="M35.9078 14.8577C31.9229 10.8728 28.4825 7.8541 28.2227 8.11399C27.9628 8.37387 30.9814 11.8152 34.9663 15.7992C38.9513 19.7841 42.3916 22.8027 42.6515 22.5429C42.9114 22.283 39.8927 18.8426 35.9078 14.8577Z" fill="url(#paint52_radial_1_585)"/>
</g>
</g>
</g>
</g>
</g>
<defs>
<linearGradient id="paint0_linear_1_585" x1="28.9286" y1="54.4087" x2="32.642" y2="95.257" gradientUnits="userSpaceOnUse">
<stop stop-color="white"/>
<stop offset="0.243" stop-color="#F3F3F3"/>
<stop offset="0.4091" stop-color="#7A7A7A"/>
<stop offset="0.6397" stop-color="#E0E0E0"/>
<stop offset="0.7458" stop-color="#7A7A7A"/>
<stop offset="1" stop-color="#BDBDBD"/>
</linearGradient>
<linearGradient id="paint1_linear_1_585" x1="43.0031" y1="53.1289" x2="46.7166" y2="93.9775" gradientUnits="userSpaceOnUse">
<stop stop-color="white"/>
<stop offset="0.243" stop-color="#F3F3F3"/>
<stop offset="0.4091" stop-color="#7A7A7A"/>
<stop offset="0.6397" stop-color="#E0E0E0"/>
<stop offset="0.7458" stop-color="#7A7A7A"/>
<stop offset="1" stop-color="#BDBDBD"/>
</linearGradient>
<linearGradient id="paint2_linear_1_585" x1="39.0392" y1="53.4893" x2="42.7527" y2="94.3376" gradientUnits="userSpaceOnUse">
<stop stop-color="white"/>
<stop offset="0.243" stop-color="#F3F3F3"/>
<stop offset="0.4091" stop-color="#7A7A7A"/>
<stop offset="0.6397" stop-color="#E0E0E0"/>
<stop offset="0.7458" stop-color="#7A7A7A"/>
<stop offset="1" stop-color="#BDBDBD"/>
</linearGradient>
<linearGradient id="paint3_linear_1_585" x1="61.0368" y1="51.4896" x2="64.7503" y2="92.3379" gradientUnits="userSpaceOnUse">
<stop stop-color="white"/>
<stop offset="0.243" stop-color="#F3F3F3"/>
<stop offset="0.4091" stop-color="#7A7A7A"/>
<stop offset="0.6397" stop-color="#E0E0E0"/>
<stop offset="0.7458" stop-color="#7A7A7A"/>
<stop offset="1" stop-color="#BDBDBD"/>
</linearGradient>
<linearGradient id="paint4_linear_1_585" x1="49.0966" y1="52.5751" x2="52.8101" y2="93.4233" gradientUnits="userSpaceOnUse">
<stop stop-color="white"/>
<stop offset="0.243" stop-color="#F3F3F3"/>
<stop offset="0.4091" stop-color="#7A7A7A"/>
<stop offset="0.6397" stop-color="#E0E0E0"/>
<stop offset="0.7458" stop-color="#7A7A7A"/>
<stop offset="1" stop-color="#BDBDBD"/>
</linearGradient>
<linearGradient id="paint5_linear_1_585" x1="83.2795" y1="93.3047" x2="70.9013" y2="-0.460662" gradientUnits="userSpaceOnUse">
<stop stop-color="#CBCACA"/>
<stop offset="0.00161899" stop-color="#C1C0C0"/>
<stop offset="0.0085292" stop-color="#9D9C9C"/>
<stop offset="0.0163" stop-color="#7D7C7C"/>
<stop offset="0.0249" stop-color="#616161"/>
<stop offset="0.0346" stop-color="#4B4B4B"/>
<stop offset="0.0459" stop-color="#3A3A3A"/>
<stop offset="0.0599" stop-color="#2F2F2F"/>
<stop offset="0.0795" stop-color="#282828"/>
<stop offset="0.1341" stop-color="#262626"/>
<stop offset="0.3156" stop-color="#121212"/>
<stop offset="0.5056" stop-color="#828282"/>
<stop offset="0.729" stop-color="#292929"/>
<stop offset="0.8408" stop-color="#969595"/>
<stop offset="1" stop-color="#4D4D4D"/>
</linearGradient>
<linearGradient id="paint6_linear_1_585" x1="52.2484" y1="72.3936" x2="52.2964" y2="72.3936" gradientUnits="userSpaceOnUse">
<stop stop-color="#B5B6B5"/>
<stop offset="0.2039" stop-color="#F2F2F2"/>
<stop offset="0.5168" stop-color="#E1E1E1"/>
<stop offset="0.7291" stop-color="#D2D2D2"/>
<stop offset="1" stop-color="#C3C3C3"/>
</linearGradient>
<linearGradient id="paint7_linear_1_585" x1="60.449" y1="96.3188" x2="48.0707" y2="2.5535" gradientUnits="userSpaceOnUse">
<stop stop-color="#CBCACA"/>
<stop offset="0.00161899" stop-color="#C1C0C0"/>
<stop offset="0.0085292" stop-color="#9D9C9C"/>
<stop offset="0.0163" stop-color="#7D7C7C"/>
<stop offset="0.0249" stop-color="#616161"/>
<stop offset="0.0346" stop-color="#4B4B4B"/>
<stop offset="0.0459" stop-color="#3A3A3A"/>
<stop offset="0.0599" stop-color="#2F2F2F"/>
<stop offset="0.0795" stop-color="#282828"/>
<stop offset="0.1341" stop-color="#262626"/>
<stop offset="0.3156" stop-color="#121212"/>
<stop offset="0.5056" stop-color="#828282"/>
<stop offset="0.729" stop-color="#292929"/>
<stop offset="0.8408" stop-color="#969595"/>
<stop offset="1" stop-color="#4D4D4D"/>
</linearGradient>
<linearGradient id="paint8_linear_1_585" x1="59.587" y1="96.4325" x2="47.2088" y2="2.66726" gradientUnits="userSpaceOnUse">
<stop stop-color="#CBCACA"/>
<stop offset="0.00161899" stop-color="#C1C0C0"/>
<stop offset="0.0085292" stop-color="#9D9C9C"/>
<stop offset="0.0163" stop-color="#7D7C7C"/>
<stop offset="0.0249" stop-color="#616161"/>
<stop offset="0.0346" stop-color="#4B4B4B"/>
<stop offset="0.0459" stop-color="#3A3A3A"/>
<stop offset="0.0599" stop-color="#2F2F2F"/>
<stop offset="0.0795" stop-color="#282828"/>
<stop offset="0.1341" stop-color="#262626"/>
<stop offset="0.3156" stop-color="#121212"/>
<stop offset="0.5056" stop-color="#828282"/>
<stop offset="0.729" stop-color="#292929"/>
<stop offset="0.8408" stop-color="#969595"/>
<stop offset="1" stop-color="#4D4D4D"/>
</linearGradient>
<linearGradient id="paint9_linear_1_585" x1="57.9204" y1="96.6539" x2="45.5418" y2="2.88708" gradientUnits="userSpaceOnUse">
<stop stop-color="#CBCACA"/>
<stop offset="0.00161899" stop-color="#C1C0C0"/>
<stop offset="0.0085292" stop-color="#9D9C9C"/>
<stop offset="0.0163" stop-color="#7D7C7C"/>
<stop offset="0.0249" stop-color="#616161"/>
<stop offset="0.0346" stop-color="#4B4B4B"/>
<stop offset="0.0459" stop-color="#3A3A3A"/>
<stop offset="0.0599" stop-color="#2F2F2F"/>
<stop offset="0.0795" stop-color="#282828"/>
<stop offset="0.1341" stop-color="#262626"/>
<stop offset="0.3156" stop-color="#121212"/>
<stop offset="0.5056" stop-color="#828282"/>
<stop offset="0.729" stop-color="#292929"/>
<stop offset="0.8408" stop-color="#969595"/>
<stop offset="1" stop-color="#4D4D4D"/>
</linearGradient>
<linearGradient id="paint10_linear_1_585" x1="57.3341" y1="96.7305" x2="44.9556" y2="2.96422" gradientUnits="userSpaceOnUse">
<stop stop-color="#CBCACA"/>
<stop offset="0.00161899" stop-color="#C1C0C0"/>
<stop offset="0.0085292" stop-color="#9D9C9C"/>
<stop offset="0.0163" stop-color="#7D7C7C"/>
<stop offset="0.0249" stop-color="#616161"/>
<stop offset="0.0346" stop-color="#4B4B4B"/>
<stop offset="0.0459" stop-color="#3A3A3A"/>
<stop offset="0.0599" stop-color="#2F2F2F"/>
<stop offset="0.0795" stop-color="#282828"/>
<stop offset="0.1341" stop-color="#262626"/>
<stop offset="0.3156" stop-color="#121212"/>
<stop offset="0.5056" stop-color="#828282"/>
<stop offset="0.729" stop-color="#292929"/>
<stop offset="0.8408" stop-color="#969595"/>
<stop offset="1" stop-color="#4D4D4D"/>
</linearGradient>
<linearGradient id="paint11_linear_1_585" x1="61.0302" y1="96.2422" x2="48.6519" y2="2.47684" gradientUnits="userSpaceOnUse">
<stop stop-color="#CBCACA"/>
<stop offset="0.00161899" stop-color="#C1C0C0"/>
<stop offset="0.0085292" stop-color="#9D9C9C"/>
<stop offset="0.0163" stop-color="#7D7C7C"/>
<stop offset="0.0249" stop-color="#616161"/>
<stop offset="0.0346" stop-color="#4B4B4B"/>
<stop offset="0.0459" stop-color="#3A3A3A"/>
<stop offset="0.0599" stop-color="#2F2F2F"/>
<stop offset="0.0795" stop-color="#282828"/>
<stop offset="0.1341" stop-color="#262626"/>
<stop offset="0.3156" stop-color="#121212"/>
<stop offset="0.5056" stop-color="#828282"/>
<stop offset="0.729" stop-color="#292929"/>
<stop offset="0.8408" stop-color="#969595"/>
<stop offset="1" stop-color="#4D4D4D"/>
</linearGradient>
<linearGradient id="paint12_linear_1_585" x1="29.518" y1="100.402" x2="17.1397" y2="6.63671" gradientUnits="userSpaceOnUse">
<stop stop-color="#CBCACA"/>
<stop offset="0.00161899" stop-color="#C1C0C0"/>
<stop offset="0.0085292" stop-color="#9D9C9C"/>
<stop offset="0.0163" stop-color="#7D7C7C"/>
<stop offset="0.0249" stop-color="#616161"/>
<stop offset="0.0346" stop-color="#4B4B4B"/>
<stop offset="0.0459" stop-color="#3A3A3A"/>
<stop offset="0.0599" stop-color="#2F2F2F"/>
<stop offset="0.0795" stop-color="#282828"/>
<stop offset="0.1341" stop-color="#262626"/>
<stop offset="0.3156" stop-color="#121212"/>
<stop offset="0.5056" stop-color="#828282"/>
<stop offset="0.729" stop-color="#292929"/>
<stop offset="0.8408" stop-color="#969595"/>
<stop offset="1" stop-color="#4D4D4D"/>
</linearGradient>
<linearGradient id="paint13_linear_1_585" x1="29.8214" y1="100.362" x2="17.4431" y2="6.59644" gradientUnits="userSpaceOnUse">
<stop stop-color="#CBCACA"/>
<stop offset="0.00161899" stop-color="#C1C0C0"/>
<stop offset="0.0085292" stop-color="#9D9C9C"/>
<stop offset="0.0163" stop-color="#7D7C7C"/>
<stop offset="0.0249" stop-color="#616161"/>
<stop offset="0.0346" stop-color="#4B4B4B"/>
<stop offset="0.0459" stop-color="#3A3A3A"/>
<stop offset="0.0599" stop-color="#2F2F2F"/>
<stop offset="0.0795" stop-color="#282828"/>
<stop offset="0.1341" stop-color="#262626"/>
<stop offset="0.3156" stop-color="#121212"/>
<stop offset="0.5056" stop-color="#828282"/>
<stop offset="0.729" stop-color="#292929"/>
<stop offset="0.8408" stop-color="#969595"/>
<stop offset="1" stop-color="#4D4D4D"/>
</linearGradient>
<linearGradient id="paint14_linear_1_585" x1="66.0839" y1="95.5749" x2="53.7057" y2="1.80955" gradientUnits="userSpaceOnUse">
<stop stop-color="#CBCACA"/>
<stop offset="0.00161899" stop-color="#C1C0C0"/>
<stop offset="0.0085292" stop-color="#9D9C9C"/>
<stop offset="0.0163" stop-color="#7D7C7C"/>
<stop offset="0.0249" stop-color="#616161"/>
<stop offset="0.0346" stop-color="#4B4B4B"/>
<stop offset="0.0459" stop-color="#3A3A3A"/>
<stop offset="0.0599" stop-color="#2F2F2F"/>
<stop offset="0.0795" stop-color="#282828"/>
<stop offset="0.1341" stop-color="#262626"/>
<stop offset="0.3156" stop-color="#121212"/>
<stop offset="0.5056" stop-color="#828282"/>
<stop offset="0.729" stop-color="#292929"/>
<stop offset="0.8408" stop-color="#969595"/>
<stop offset="1" stop-color="#4D4D4D"/>
</linearGradient>
<linearGradient id="paint15_linear_1_585" x1="80.1689" y1="93.7157" x2="67.7906" y2="-0.0496419" gradientUnits="userSpaceOnUse">
<stop stop-color="#CBCACA"/>
<stop offset="0.00161899" stop-color="#C1C0C0"/>
<stop offset="0.0085292" stop-color="#9D9C9C"/>
<stop offset="0.0163" stop-color="#7D7C7C"/>
<stop offset="0.0249" stop-color="#616161"/>
<stop offset="0.0346" stop-color="#4B4B4B"/>
<stop offset="0.0459" stop-color="#3A3A3A"/>
<stop offset="0.0599" stop-color="#2F2F2F"/>
<stop offset="0.0795" stop-color="#282828"/>
<stop offset="0.1341" stop-color="#262626"/>
<stop offset="0.3156" stop-color="#121212"/>
<stop offset="0.5056" stop-color="#828282"/>
<stop offset="0.729" stop-color="#292929"/>
<stop offset="0.8408" stop-color="#969595"/>
<stop offset="1" stop-color="#4D4D4D"/>
</linearGradient>
<linearGradient id="paint16_linear_1_585" x1="72.5769" y1="94.7178" x2="60.1986" y2="0.952403" gradientUnits="userSpaceOnUse">
<stop stop-color="#CBCACA"/>
<stop offset="0.00161899" stop-color="#C1C0C0"/>
<stop offset="0.0085292" stop-color="#9D9C9C"/>
<stop offset="0.0163" stop-color="#7D7C7C"/>
<stop offset="0.0249" stop-color="#616161"/>
<stop offset="0.0346" stop-color="#4B4B4B"/>
<stop offset="0.0459" stop-color="#3A3A3A"/>
<stop offset="0.0599" stop-color="#2F2F2F"/>
<stop offset="0.0795" stop-color="#282828"/>
<stop offset="0.1341" stop-color="#262626"/>
<stop offset="0.3156" stop-color="#121212"/>
<stop offset="0.5056" stop-color="#828282"/>
<stop offset="0.729" stop-color="#292929"/>
<stop offset="0.8408" stop-color="#969595"/>
<stop offset="1" stop-color="#4D4D4D"/>
</linearGradient>
<linearGradient id="paint17_linear_1_585" x1="50.2551" y1="97.6647" x2="37.8769" y2="3.89935" gradientUnits="userSpaceOnUse">
<stop stop-color="#CBCACA"/>
<stop offset="0.00161899" stop-color="#C1C0C0"/>
<stop offset="0.0085292" stop-color="#9D9C9C"/>
<stop offset="0.0163" stop-color="#7D7C7C"/>
<stop offset="0.0249" stop-color="#616161"/>
<stop offset="0.0346" stop-color="#4B4B4B"/>
<stop offset="0.0459" stop-color="#3A3A3A"/>
<stop offset="0.0599" stop-color="#2F2F2F"/>
<stop offset="0.0795" stop-color="#282828"/>
<stop offset="0.1341" stop-color="#262626"/>
<stop offset="0.3156" stop-color="#121212"/>
<stop offset="0.5056" stop-color="#828282"/>
<stop offset="0.729" stop-color="#292929"/>
<stop offset="0.8408" stop-color="#969595"/>
<stop offset="1" stop-color="#4D4D4D"/>
</linearGradient>
<linearGradient id="paint18_linear_1_585" x1="58.2711" y1="96.6063" x2="45.8928" y2="2.84096" gradientUnits="userSpaceOnUse">
<stop stop-color="#CBCACA"/>
<stop offset="0.00161899" stop-color="#C1C0C0"/>
<stop offset="0.0085292" stop-color="#9D9C9C"/>
<stop offset="0.0163" stop-color="#7D7C7C"/>
<stop offset="0.0249" stop-color="#616161"/>
<stop offset="0.0346" stop-color="#4B4B4B"/>
<stop offset="0.0459" stop-color="#3A3A3A"/>
<stop offset="0.0599" stop-color="#2F2F2F"/>
<stop offset="0.0795" stop-color="#282828"/>
<stop offset="0.1341" stop-color="#262626"/>
<stop offset="0.3156" stop-color="#121212"/>
<stop offset="0.5056" stop-color="#828282"/>
<stop offset="0.729" stop-color="#292929"/>
<stop offset="0.8408" stop-color="#969595"/>
<stop offset="1" stop-color="#4D4D4D"/>
</linearGradient>
<linearGradient id="paint19_linear_1_585" x1="45.4204" y1="98.3028" x2="33.0421" y2="4.53749" gradientUnits="userSpaceOnUse">
<stop stop-color="#CBCACA"/>
<stop offset="0.00161899" stop-color="#C1C0C0"/>
<stop offset="0.0085292" stop-color="#9D9C9C"/>
<stop offset="0.0163" stop-color="#7D7C7C"/>
<stop offset="0.0249" stop-color="#616161"/>
<stop offset="0.0346" stop-color="#4B4B4B"/>
<stop offset="0.0459" stop-color="#3A3A3A"/>
<stop offset="0.0599" stop-color="#2F2F2F"/>
<stop offset="0.0795" stop-color="#282828"/>
<stop offset="0.1341" stop-color="#262626"/>
<stop offset="0.3156" stop-color="#121212"/>
<stop offset="0.5056" stop-color="#828282"/>
<stop offset="0.729" stop-color="#292929"/>
<stop offset="0.8408" stop-color="#969595"/>
<stop offset="1" stop-color="#4D4D4D"/>
</linearGradient>
<linearGradient id="paint20_linear_1_585" x1="66.67" y1="95.4975" x2="54.2917" y2="1.73218" gradientUnits="userSpaceOnUse">
<stop stop-color="#CBCACA"/>
<stop offset="0.00161899" stop-color="#C1C0C0"/>
<stop offset="0.0085292" stop-color="#9D9C9C"/>
<stop offset="0.0163" stop-color="#7D7C7C"/>
<stop offset="0.0249" stop-color="#616161"/>
<stop offset="0.0346" stop-color="#4B4B4B"/>
<stop offset="0.0459" stop-color="#3A3A3A"/>
<stop offset="0.0599" stop-color="#2F2F2F"/>
<stop offset="0.0795" stop-color="#282828"/>
<stop offset="0.1341" stop-color="#262626"/>
<stop offset="0.3156" stop-color="#121212"/>
<stop offset="0.5056" stop-color="#828282"/>
<stop offset="0.729" stop-color="#292929"/>
<stop offset="0.8408" stop-color="#969595"/>
<stop offset="1" stop-color="#4D4D4D"/>
</linearGradient>
<linearGradient id="paint21_linear_1_585" x1="-1.58452" y1="65.2827" x2="102.187" y2="72.0908" gradientUnits="userSpaceOnUse">
<stop stop-color="#CBCACA"/>
<stop offset="0.0109" stop-color="#ADADAD"/>
<stop offset="0.0268" stop-color="#898888"/>
<stop offset="0.0447" stop-color="#696868"/>
<stop offset="0.0644" stop-color="#4D4D4D"/>
<stop offset="0.0867" stop-color="#373737"/>
<stop offset="0.1128" stop-color="#262626"/>
<stop offset="0.145" stop-color="#1B1B1B"/>
<stop offset="0.1902" stop-color="#141414"/>
<stop offset="0.3156" stop-color="#121212"/>
<stop offset="0.5056" stop-color="#828282"/>
<stop offset="0.729" stop-color="#292929"/>
<stop offset="0.8408" stop-color="#969595"/>
<stop offset="0.9899" stop-color="#CBCACA"/>
</linearGradient>
<linearGradient id="paint22_linear_1_585" x1="-2.2975" y1="76.1506" x2="101.474" y2="82.9587" gradientUnits="userSpaceOnUse">
<stop stop-color="#CBCACA"/>
<stop offset="0.0109" stop-color="#ADADAD"/>
<stop offset="0.0268" stop-color="#898888"/>
<stop offset="0.0447" stop-color="#696868"/>
<stop offset="0.0644" stop-color="#4D4D4D"/>
<stop offset="0.0867" stop-color="#373737"/>
<stop offset="0.1128" stop-color="#262626"/>
<stop offset="0.145" stop-color="#1B1B1B"/>
<stop offset="0.1902" stop-color="#141414"/>
<stop offset="0.3156" stop-color="#121212"/>
<stop offset="0.5056" stop-color="#828282"/>
<stop offset="0.729" stop-color="#292929"/>
<stop offset="0.8408" stop-color="#969595"/>
<stop offset="0.9899" stop-color="#CBCACA"/>
</linearGradient>
<linearGradient id="paint23_linear_1_585" x1="58.4523" y1="392.513" x2="58.4523" y2="-141.082" gradientUnits="userSpaceOnUse">
<stop stop-color="#CBCACA"/>
<stop offset="0.0109" stop-color="#ADADAD"/>
<stop offset="0.0268" stop-color="#898888"/>
<stop offset="0.0447" stop-color="#696868"/>
<stop offset="0.0644" stop-color="#4D4D4D"/>
<stop offset="0.0867" stop-color="#373737"/>
<stop offset="0.1128" stop-color="#262626"/>
<stop offset="0.145" stop-color="#1B1B1B"/>
<stop offset="0.1902" stop-color="#141414"/>
<stop offset="0.3156" stop-color="#121212"/>
<stop offset="0.5056" stop-color="#828282"/>
<stop offset="0.729" stop-color="#292929"/>
<stop offset="0.8408" stop-color="#969595"/>
<stop offset="0.9899" stop-color="#CBCACA"/>
</linearGradient>
<linearGradient id="paint24_linear_1_585" x1="-2.39627" y1="77.6548" x2="101.375" y2="84.4629" gradientUnits="userSpaceOnUse">
<stop stop-color="#CBCACA"/>
<stop offset="0.0109" stop-color="#ADADAD"/>
<stop offset="0.0268" stop-color="#898888"/>
<stop offset="0.0447" stop-color="#696868"/>
<stop offset="0.0644" stop-color="#4D4D4D"/>
<stop offset="0.0867" stop-color="#373737"/>
<stop offset="0.1128" stop-color="#262626"/>
<stop offset="0.145" stop-color="#1B1B1B"/>
<stop offset="0.1902" stop-color="#141414"/>
<stop offset="0.3156" stop-color="#121212"/>
<stop offset="0.5056" stop-color="#828282"/>
<stop offset="0.729" stop-color="#292929"/>
<stop offset="0.8408" stop-color="#969595"/>
<stop offset="0.9899" stop-color="#CBCACA"/>
</linearGradient>
<linearGradient id="paint25_linear_1_585" x1="46.3838" y1="129.654" x2="46.3838" y2="26.2993" gradientUnits="userSpaceOnUse">
<stop stop-color="#CBCACA"/>
<stop offset="0.0109" stop-color="#ADADAD"/>
<stop offset="0.0268" stop-color="#898888"/>
<stop offset="0.0447" stop-color="#696868"/>
<stop offset="0.0644" stop-color="#4D4D4D"/>
<stop offset="0.0867" stop-color="#373737"/>
<stop offset="0.1128" stop-color="#262626"/>
<stop offset="0.145" stop-color="#1B1B1B"/>
<stop offset="0.1902" stop-color="#141414"/>
<stop offset="0.3156" stop-color="#121212"/>
<stop offset="0.5056" stop-color="#828282"/>
<stop offset="0.729" stop-color="#292929"/>
<stop offset="0.8408" stop-color="#969595"/>
<stop offset="0.9899" stop-color="#CBCACA"/>
</linearGradient>
<linearGradient id="paint26_linear_1_585" x1="-2.778" y1="83.4743" x2="100.993" y2="90.2824" gradientUnits="userSpaceOnUse">
<stop stop-color="#CBCACA"/>
<stop offset="0.0109" stop-color="#ADADAD"/>
<stop offset="0.0268" stop-color="#898888"/>
<stop offset="0.0447" stop-color="#696868"/>
<stop offset="0.0644" stop-color="#4D4D4D"/>
<stop offset="0.0867" stop-color="#373737"/>
<stop offset="0.1128" stop-color="#262626"/>
<stop offset="0.145" stop-color="#1B1B1B"/>
<stop offset="0.1902" stop-color="#141414"/>
<stop offset="0.3156" stop-color="#121212"/>
<stop offset="0.5056" stop-color="#828282"/>
<stop offset="0.729" stop-color="#292929"/>
<stop offset="0.8408" stop-color="#969595"/>
<stop offset="0.9899" stop-color="#CBCACA"/>
</linearGradient>
<linearGradient id="paint27_linear_1_585" x1="8.97673" y1="100.922" x2="8.97673" y2="-45.6485" gradientUnits="userSpaceOnUse">
<stop stop-color="#CBCACA"/>
<stop offset="0.0109" stop-color="#ADADAD"/>
<stop offset="0.0268" stop-color="#898888"/>
<stop offset="0.0447" stop-color="#696868"/>
<stop offset="0.0644" stop-color="#4D4D4D"/>
<stop offset="0.0867" stop-color="#373737"/>
<stop offset="0.1128" stop-color="#262626"/>
<stop offset="0.145" stop-color="#1B1B1B"/>
<stop offset="0.1902" stop-color="#141414"/>
<stop offset="0.3156" stop-color="#121212"/>
<stop offset="0.5056" stop-color="#828282"/>
<stop offset="0.729" stop-color="#292929"/>
<stop offset="0.8408" stop-color="#969595"/>
<stop offset="0.9899" stop-color="#CBCACA"/>
</linearGradient>
<linearGradient id="paint28_linear_1_585" x1="22.1749" y1="122.249" x2="22.1749" y2="-37.6407" gradientUnits="userSpaceOnUse">
<stop stop-color="#CBCACA"/>
<stop offset="0.0109" stop-color="#ADADAD"/>
<stop offset="0.0268" stop-color="#898888"/>
<stop offset="0.0447" stop-color="#696868"/>
<stop offset="0.0644" stop-color="#4D4D4D"/>
<stop offset="0.0867" stop-color="#373737"/>
<stop offset="0.1128" stop-color="#262626"/>
<stop offset="0.145" stop-color="#1B1B1B"/>
<stop offset="0.1902" stop-color="#141414"/>
<stop offset="0.3156" stop-color="#121212"/>
<stop offset="0.5056" stop-color="#828282"/>
<stop offset="0.729" stop-color="#292929"/>
<stop offset="0.8408" stop-color="#969595"/>
<stop offset="0.9899" stop-color="#CBCACA"/>
</linearGradient>
<linearGradient id="paint29_linear_1_585" x1="22.1445" y1="122.787" x2="22.1445" y2="-39.5843" gradientUnits="userSpaceOnUse">
<stop stop-color="#CBCACA"/>
<stop offset="0.0109" stop-color="#ADADAD"/>
<stop offset="0.0268" stop-color="#898888"/>
<stop offset="0.0447" stop-color="#696868"/>
<stop offset="0.0644" stop-color="#4D4D4D"/>
<stop offset="0.0867" stop-color="#373737"/>
<stop offset="0.1128" stop-color="#262626"/>
<stop offset="0.145" stop-color="#1B1B1B"/>
<stop offset="0.1902" stop-color="#141414"/>
<stop offset="0.3156" stop-color="#121212"/>
<stop offset="0.5056" stop-color="#828282"/>
<stop offset="0.729" stop-color="#292929"/>
<stop offset="0.8408" stop-color="#969595"/>
<stop offset="0.9899" stop-color="#CBCACA"/>
</linearGradient>
<linearGradient id="paint30_linear_1_585" x1="-2.74374" y1="82.951" x2="101.027" y2="89.759" gradientUnits="userSpaceOnUse">
<stop stop-color="#CBCACA"/>
<stop offset="0.0109" stop-color="#ADADAD"/>
<stop offset="0.0268" stop-color="#898888"/>
<stop offset="0.0447" stop-color="#696868"/>
<stop offset="0.0644" stop-color="#4D4D4D"/>
<stop offset="0.0867" stop-color="#373737"/>
<stop offset="0.1128" stop-color="#262626"/>
<stop offset="0.145" stop-color="#1B1B1B"/>
<stop offset="0.1902" stop-color="#141414"/>
<stop offset="0.3156" stop-color="#121212"/>
<stop offset="0.5056" stop-color="#828282"/>
<stop offset="0.729" stop-color="#292929"/>
<stop offset="0.8408" stop-color="#969595"/>
<stop offset="0.9899" stop-color="#CBCACA"/>
</linearGradient>
<linearGradient id="paint31_linear_1_585" x1="32.0589" y1="163.073" x2="32.0589" y2="-73.7824" gradientUnits="userSpaceOnUse">
<stop stop-color="#CBCACA"/>
<stop offset="0.0109" stop-color="#ADADAD"/>
<stop offset="0.0268" stop-color="#898888"/>
<stop offset="0.0447" stop-color="#696868"/>
<stop offset="0.0644" stop-color="#4D4D4D"/>
<stop offset="0.0867" stop-color="#373737"/>
<stop offset="0.1128" stop-color="#262626"/>
<stop offset="0.145" stop-color="#1B1B1B"/>
<stop offset="0.1902" stop-color="#141414"/>
<stop offset="0.3156" stop-color="#121212"/>
<stop offset="0.5056" stop-color="#828282"/>
<stop offset="0.729" stop-color="#292929"/>
<stop offset="0.8408" stop-color="#969595"/>
<stop offset="0.9899" stop-color="#CBCACA"/>
</linearGradient>
<linearGradient id="paint32_linear_1_585" x1="-2.32639" y1="76.59" x2="101.445" y2="83.3981" gradientUnits="userSpaceOnUse">
<stop stop-color="#CBCACA"/>
<stop offset="0.0109" stop-color="#ADADAD"/>
<stop offset="0.0268" stop-color="#898888"/>
<stop offset="0.0447" stop-color="#696868"/>
<stop offset="0.0644" stop-color="#4D4D4D"/>
<stop offset="0.0867" stop-color="#373737"/>
<stop offset="0.1128" stop-color="#262626"/>
<stop offset="0.145" stop-color="#1B1B1B"/>
<stop offset="0.1902" stop-color="#141414"/>
<stop offset="0.3156" stop-color="#121212"/>
<stop offset="0.5056" stop-color="#828282"/>
<stop offset="0.729" stop-color="#292929"/>
<stop offset="0.8408" stop-color="#969595"/>
<stop offset="0.9899" stop-color="#CBCACA"/>
</linearGradient>
<linearGradient id="paint33_linear_1_585" x1="67.6582" y1="186.976" x2="67.6582" y2="30.1071" gradientUnits="userSpaceOnUse">
<stop stop-color="#CBCACA"/>
<stop offset="0.0109" stop-color="#ADADAD"/>
<stop offset="0.0268" stop-color="#898888"/>
<stop offset="0.0447" stop-color="#696868"/>
<stop offset="0.0644" stop-color="#4D4D4D"/>
<stop offset="0.0867" stop-color="#373737"/>
<stop offset="0.1128" stop-color="#262626"/>
<stop offset="0.145" stop-color="#1B1B1B"/>
<stop offset="0.1902" stop-color="#141414"/>
<stop offset="0.3156" stop-color="#121212"/>
<stop offset="0.5056" stop-color="#828282"/>
<stop offset="0.729" stop-color="#292929"/>
<stop offset="0.8408" stop-color="#969595"/>
<stop offset="0.9899" stop-color="#CBCACA"/>
</linearGradient>
<linearGradient id="paint34_linear_1_585" x1="-2.44595" y1="78.4125" x2="101.325" y2="85.2205" gradientUnits="userSpaceOnUse">
<stop stop-color="#CBCACA"/>
<stop offset="0.0109" stop-color="#ADADAD"/>
<stop offset="0.0268" stop-color="#898888"/>
<stop offset="0.0447" stop-color="#696868"/>
<stop offset="0.0644" stop-color="#4D4D4D"/>
<stop offset="0.0867" stop-color="#373737"/>
<stop offset="0.1128" stop-color="#262626"/>
<stop offset="0.145" stop-color="#1B1B1B"/>
<stop offset="0.1902" stop-color="#141414"/>
<stop offset="0.3156" stop-color="#121212"/>
<stop offset="0.5056" stop-color="#828282"/>
<stop offset="0.729" stop-color="#292929"/>
<stop offset="0.8408" stop-color="#969595"/>
<stop offset="0.9899" stop-color="#CBCACA"/>
</linearGradient>
<linearGradient id="paint35_linear_1_585" x1="80.2495" y1="198.065" x2="80.2495" y2="54.7257" gradientUnits="userSpaceOnUse">
<stop stop-color="#CBCACA"/>
<stop offset="0.0109" stop-color="#ADADAD"/>
<stop offset="0.0268" stop-color="#898888"/>
<stop offset="0.0447" stop-color="#696868"/>
<stop offset="0.0644" stop-color="#4D4D4D"/>
<stop offset="0.0867" stop-color="#373737"/>
<stop offset="0.1128" stop-color="#262626"/>
<stop offset="0.145" stop-color="#1B1B1B"/>
<stop offset="0.1902" stop-color="#141414"/>
<stop offset="0.3156" stop-color="#121212"/>
<stop offset="0.5056" stop-color="#828282"/>
<stop offset="0.729" stop-color="#292929"/>
<stop offset="0.8408" stop-color="#969595"/>
<stop offset="0.9899" stop-color="#CBCACA"/>
</linearGradient>
<linearGradient id="paint36_linear_1_585" x1="-2.69068" y1="82.144" x2="101.08" y2="88.952" gradientUnits="userSpaceOnUse">
<stop stop-color="#CBCACA"/>
<stop offset="0.0109" stop-color="#ADADAD"/>
<stop offset="0.0268" stop-color="#898888"/>
<stop offset="0.0447" stop-color="#696868"/>
<stop offset="0.0644" stop-color="#4D4D4D"/>
<stop offset="0.0867" stop-color="#373737"/>
<stop offset="0.1128" stop-color="#262626"/>
<stop offset="0.145" stop-color="#1B1B1B"/>
<stop offset="0.1902" stop-color="#141414"/>
<stop offset="0.3156" stop-color="#121212"/>
<stop offset="0.5056" stop-color="#828282"/>
<stop offset="0.729" stop-color="#292929"/>
<stop offset="0.8408" stop-color="#969595"/>
<stop offset="0.9899" stop-color="#CBCACA"/>
</linearGradient>
<linearGradient id="paint37_linear_1_585" x1="126.939" y1="59.3106" x2="70.7963" y2="106.314" gradientUnits="userSpaceOnUse">
<stop stop-color="#CBCACA"/>
<stop offset="0.0109" stop-color="#ADADAD"/>
<stop offset="0.0268" stop-color="#898888"/>
<stop offset="0.0447" stop-color="#696868"/>
<stop offset="0.0644" stop-color="#4D4D4D"/>
<stop offset="0.0867" stop-color="#373737"/>
<stop offset="0.1128" stop-color="#262626"/>
<stop offset="0.145" stop-color="#1B1B1B"/>
<stop offset="0.1902" stop-color="#141414"/>
<stop offset="0.3156" stop-color="#121212"/>
<stop offset="0.5056" stop-color="#828282"/>
<stop offset="0.729" stop-color="#292929"/>
<stop offset="0.8408" stop-color="#969595"/>
<stop offset="0.9899" stop-color="#CBCACA"/>
</linearGradient>
<radialGradient id="paint38_radial_1_585" cx="0" cy="0" r="1" gradientUnits="userSpaceOnUse" gradientTransform="translate(73.6422 16.4268) rotate(-135) scale(6.26318)">
<stop stop-color="white"/>
<stop offset="0.2808" stop-color="#F8F8F8" stop-opacity="0.6635"/>
<stop offset="0.8266" stop-color="#EEEEEE" stop-opacity="0.01"/>
<stop offset="1" stop-color="#EEEEEE" stop-opacity="0"/>
</radialGradient>
<radialGradient id="paint39_radial_1_585" cx="0" cy="0" r="1" gradientUnits="userSpaceOnUse" gradientTransform="translate(74.1071 15.7475) rotate(-63.9984) scale(8.87049 0.258131)">
<stop stop-color="white"/>
<stop offset="0.804" stop-color="#EEEEEE" stop-opacity="0"/>
<stop offset="1" stop-color="#EEEEEE" stop-opacity="0"/>
</radialGradient>
<radialGradient id="paint40_radial_1_585" cx="0" cy="0" r="1" gradientUnits="userSpaceOnUse" gradientTransform="translate(73.4781 15.7883) rotate(26.0016) scale(8.87049 0.258132)">
<stop stop-color="white"/>
<stop offset="0.804" stop-color="#EEEEEE" stop-opacity="0"/>
<stop offset="1" stop-color="#EEEEEE" stop-opacity="0"/>
</radialGradient>
<radialGradient id="paint41_radial_1_585" cx="0" cy="0" r="1" gradientUnits="userSpaceOnUse" gradientTransform="translate(71.2218 67.8247) rotate(-135) scale(4.6011)">
<stop stop-color="white"/>
<stop offset="0.2808" stop-color="#F8F8F8" stop-opacity="0.6635"/>
<stop offset="0.8266" stop-color="#EEEEEE" stop-opacity="0.01"/>
<stop offset="1" stop-color="#EEEEEE" stop-opacity="0"/>
</radialGradient>
<radialGradient id="paint42_radial_1_585" cx="0" cy="0" r="1" gradientUnits="userSpaceOnUse" gradientTransform="translate(71.5647 67.3244) rotate(-63.9984) scale(6.51651 0.189631)">
<stop stop-color="white"/>
<stop offset="0.804" stop-color="#EEEEEE" stop-opacity="0"/>
<stop offset="1" stop-color="#EEEEEE" stop-opacity="0"/>
</radialGradient>
<radialGradient id="paint43_radial_1_585" cx="0" cy="0" r="1" gradientUnits="userSpaceOnUse" gradientTransform="translate(71.0991 67.3526) rotate(26.0016) scale(6.51651 0.189631)">
<stop stop-color="white"/>
<stop offset="0.804" stop-color="#EEEEEE" stop-opacity="0"/>
<stop offset="1" stop-color="#EEEEEE" stop-opacity="0"/>
</radialGradient>
<radialGradient id="paint44_radial_1_585" cx="0" cy="0" r="1" gradientUnits="userSpaceOnUse" gradientTransform="translate(18.5244 61.2552) rotate(-135) scale(4.60111)">
<stop stop-color="white"/>
<stop offset="0.2808" stop-color="#F8F8F8" stop-opacity="0.6635"/>
<stop offset="0.8266" stop-color="#EEEEEE" stop-opacity="0.01"/>
<stop offset="1" stop-color="#EEEEEE" stop-opacity="0"/>
</radialGradient>
<radialGradient id="paint45_radial_1_585" cx="0" cy="0" r="1" gradientUnits="userSpaceOnUse" gradientTransform="translate(18.867 60.7531) rotate(-63.9983) scale(6.51651 0.189631)">
<stop stop-color="white"/>
<stop offset="0.804" stop-color="#EEEEEE" stop-opacity="0"/>
<stop offset="1" stop-color="#EEEEEE" stop-opacity="0"/>
</radialGradient>
<radialGradient id="paint46_radial_1_585" cx="0" cy="0" r="1" gradientUnits="userSpaceOnUse" gradientTransform="translate(18.4033 60.785) rotate(26.0016) scale(6.51651 0.189631)">
<stop stop-color="white"/>
<stop offset="0.804" stop-color="#EEEEEE" stop-opacity="0"/>
<stop offset="1" stop-color="#EEEEEE" stop-opacity="0"/>
</radialGradient>
<radialGradient id="paint47_radial_1_585" cx="0" cy="0" r="1" gradientUnits="userSpaceOnUse" gradientTransform="translate(55.2022 9.06554) rotate(-135) scale(6.26318)">
<stop stop-color="white"/>
<stop offset="0.2808" stop-color="#F8F8F8" stop-opacity="0.6635"/>
<stop offset="0.8266" stop-color="#EEEEEE" stop-opacity="0.01"/>
<stop offset="1" stop-color="#EEEEEE" stop-opacity="0"/>
</radialGradient>
<radialGradient id="paint48_radial_1_585" cx="0" cy="0" r="1" gradientUnits="userSpaceOnUse" gradientTransform="translate(55.6668 8.38548) rotate(-63.9984) scale(8.87049 0.258132)">
<stop stop-color="white"/>
<stop offset="0.804" stop-color="#EEEEEE" stop-opacity="0"/>
<stop offset="1" stop-color="#EEEEEE" stop-opacity="0"/>
</radialGradient>
<radialGradient id="paint49_radial_1_585" cx="0" cy="0" r="1" gradientUnits="userSpaceOnUse" gradientTransform="translate(55.0389 8.42757) rotate(26.0016) scale(8.87049 0.258132)">
<stop stop-color="white"/>
<stop offset="0.804" stop-color="#EEEEEE" stop-opacity="0"/>
<stop offset="1" stop-color="#EEEEEE" stop-opacity="0"/>
</radialGradient>
<radialGradient id="paint50_radial_1_585" cx="0" cy="0" r="1" gradientUnits="userSpaceOnUse" gradientTransform="translate(35.8362 15.7751) rotate(-135) scale(6.26318)">
<stop stop-color="white"/>
<stop offset="0.2808" stop-color="#F8F8F8" stop-opacity="0.6635"/>
<stop offset="0.8266" stop-color="#EEEEEE" stop-opacity="0.01"/>
<stop offset="1" stop-color="#EEEEEE" stop-opacity="0"/>
</radialGradient>
<radialGradient id="paint51_radial_1_585" cx="0" cy="0" r="1" gradientUnits="userSpaceOnUse" gradientTransform="translate(36.301 15.0938) rotate(-63.9984) scale(8.87049 0.258132)">
<stop stop-color="white"/>
<stop offset="0.804" stop-color="#EEEEEE" stop-opacity="0"/>
<stop offset="1" stop-color="#EEEEEE" stop-opacity="0"/>
</radialGradient>
<radialGradient id="paint52_radial_1_585" cx="0" cy="0" r="1" gradientUnits="userSpaceOnUse" gradientTransform="translate(35.6732 15.1376) rotate(26.0016) scale(8.87049 0.258132)">
<stop stop-color="white"/>
<stop offset="0.804" stop-color="#EEEEEE" stop-opacity="0"/>
<stop offset="1" stop-color="#EEEEEE" stop-opacity="0"/>
</radialGradient>
</defs>
</svg>
