<svg width="72" height="72" viewBox="0 0 72 72" fill="none" xmlns="http://www.w3.org/2000/svg">
<g id="logo-02 1">
<g id="Group">
<g id="Group_2">
<g id="Group_3">
<g id="Group_4">
<g id="Group_5">
<path id="Vector" d="M31.8867 56.0629C29.0758 55.8422 26.6735 55.8847 27.3205 57.8834C26.766 57.5667 26.4246 57.0163 26.2499 56.2795C25.8277 56.7051 25.4616 57.2679 25.2231 58.1616C24.7207 57.5455 24.5781 56.8477 24.6899 56.0876C24.0737 56.579 23.6364 57.4228 23.4027 58.6736L23.1874 55.274C22.332 56.7819 21.332 57.4193 20.2038 57.2864C20.8584 56.5077 21.4259 55.7188 21.9098 54.9224C21.2573 54.8552 20.5246 55.2829 19.7131 56.1849C19.489 55.3233 19.6994 54.5351 20.6631 53.873C19.6672 53.9231 18.9824 54.2089 18.5369 54.675C18.5102 53.7332 19.0051 53.0923 19.8399 52.6448C18.077 52.6831 16.5342 52.4049 15.2565 51.7606C16.3614 51.6701 17.162 51.4035 17.7083 50.995C15.3676 50.5769 13.4704 49.4603 12.3038 47.1964C13.48 48.1423 14.8288 48.5583 16.5575 48.5967C15.0304 48.0134 11.5039 47.461 11.6725 42.3608C12.6396 45.1847 14.4567 46.3671 16.5437 46.9346C16.5862 46.9462 16.626 46.9558 16.6685 46.9675C16.7357 46.9846 16.8008 47.0018 16.8679 47.0175H16.87C17.7179 47.2211 18.6048 47.3362 19.491 47.424C20.308 47.5062 21.1237 47.57 21.9126 47.6659C22.0181 47.6776 22.1216 47.6906 22.2272 47.7043C22.2251 47.7098 22.2217 47.716 22.2196 47.7214C22.1374 47.9058 22.0723 48.0957 22.0277 48.2855C21.8509 48.9339 22.5151 49.2314 22.9085 48.7208C23.0942 48.533 23.2944 48.2568 23.4664 47.9517C23.4719 47.9421 23.4781 47.9326 23.4835 47.923C23.5795 47.9422 23.6755 47.9655 23.7694 47.9901C23.7639 48.0018 23.7557 48.0134 23.7481 48.0244C23.4986 48.4233 23.184 48.8051 22.8619 49.1505C23.5946 49.2602 24.2567 48.9374 24.8708 48.4274C24.89 48.4103 24.9092 48.3945 24.9284 48.3753C25.0648 48.4329 25.1971 48.496 25.3259 48.5631C26.2355 49.0429 26.9819 49.766 27.4747 50.8983C29.0278 54.4721 30.7277 55.6791 31.8867 56.0629Z" fill="url(#paint0_linear_1_1389)"/>
<path id="Vector_2" d="M33.2871 56.1857C33.2871 56.1857 32.7305 56.3433 31.8861 56.063C32.3467 56.0993 32.8169 56.1439 33.2871 56.1857Z" fill="url(#paint1_linear_1_1389)"/>
<path id="Vector_3" d="M33.6709 58.1088C33.2761 65.7381 30.7565 67.3906 27.1478 65.9801C28.0546 65.6538 28.9292 64.8238 29.7757 63.5578C28.7565 64.3632 27.7187 64.562 26.6632 64.2151C27.8654 63.7052 28.629 63.1754 29.0334 62.6305C28.056 63.0026 27.0443 63.1726 26.5707 62.736C26.5707 62.736 28.7784 61.8806 29.0615 59.6681C29.3034 57.7771 33.5557 56.9436 33.5557 56.9436L33.6709 58.1088Z" fill="url(#paint2_linear_1_1389)"/>
</g>
<g id="Group_6">
<path id="Vector_4" d="M34.2245 55.9359C34.2245 55.9359 35.7756 56.9976 38.4611 50.822C41.1465 44.6465 52.9904 50.4444 55.8411 42.1118C56.0083 47.2127 52.4825 47.7637 50.9554 48.3477C52.6854 48.3093 54.0323 47.8939 55.2091 46.9474C54.0425 49.212 52.1453 50.3279 49.804 50.7466C50.3516 51.1565 51.1515 51.4218 52.257 51.5122C50.9781 52.1579 49.4366 52.4348 47.6723 52.3964C48.5072 52.8433 49.002 53.4855 48.9746 54.4273C48.5298 53.9605 47.8457 53.6747 46.8491 53.6247C47.8128 54.2875 48.0239 55.0757 47.7984 55.9366C46.9876 55.0359 46.2542 54.6082 45.6017 54.6747C46.0856 55.4712 46.6524 56.2594 47.307 57.0373C46.1795 57.171 45.1795 56.5343 44.3241 55.025L44.1096 58.426C43.8751 57.1758 43.4372 56.3314 42.8224 55.8392C42.9334 56.5994 42.7901 57.2985 42.2877 57.9133C42.0513 57.0202 41.6839 56.4575 41.2624 56.0318C41.0876 56.768 40.7449 57.3184 40.1911 57.635C40.9436 55.3087 37.5694 55.6323 34.2245 55.9359Z" fill="url(#paint3_linear_1_1389)"/>
<path id="Vector_5" d="M33.8414 57.8598C34.2362 65.4891 36.7558 67.1416 40.3645 65.731C39.4577 65.4048 38.5831 64.5748 37.7366 63.3088C38.7558 64.1142 39.7936 64.3129 40.8491 63.9661C39.6469 63.4562 38.8833 62.9263 38.4789 62.3814C39.4563 62.7536 40.468 62.9236 40.9416 62.487C40.9416 62.487 38.7339 61.6316 38.4508 59.4191C38.2089 57.528 33.9566 56.6946 33.9566 56.6946L33.8414 57.8598Z" fill="url(#paint4_linear_1_1389)"/>
</g>
</g>
<path id="Vector_6" d="M51.5237 20.167C51.6059 20.3384 51.8109 20.4117 51.9829 20.3309L55.4545 18.8044C55.7184 18.6838 55.8322 18.3706 55.7061 18.1088C55.58 17.8476 55.264 17.7407 55.0056 17.8716L51.682 19.7051C51.5114 19.7901 51.4408 19.9957 51.5237 20.167Z" fill="url(#paint5_linear_1_1389)"/>
<path id="Vector_7" d="M37.6262 52.0757C37.6262 52.1141 37.6262 52.1333 37.607 52.1716C37.6262 52.1525 37.6262 52.1141 37.6454 52.0757H37.6262Z" fill="url(#paint6_linear_1_1389)"/>
<path id="Vector_8" d="M29.0888 36.6308C29.0024 36.7171 28.9565 36.8398 28.8585 36.9186C28.8489 36.9282 28.7954 36.9783 28.8009 36.9954C27.5884 38.663 26.4451 40.3683 25.1744 41.9838C23.7357 43.2196 22.2867 43.9119 21.2991 45.6679C21.0345 45.9921 20.7329 46.2951 20.3971 46.5507C20.3395 46.5932 20.2799 46.635 20.2202 46.6734C20.2182 46.6755 20.2161 46.6775 20.2127 46.6789C19.9132 46.8729 19.591 47.0264 19.2552 47.1237C19.4992 47.1484 19.7425 47.1717 19.9879 47.195C19.992 47.193 19.9975 47.1895 20.0016 47.1875C21.8124 45.9901 22.6089 43.6994 24.7714 42.9626C24.7467 43.003 24.7213 43.0435 24.6967 43.0832C24.3341 43.6782 23.9427 44.2573 23.5589 44.8427C23.0085 45.6501 22.3964 46.5809 22.0222 47.4041C22.1332 47.4178 22.2449 47.4328 22.356 47.45C22.5342 47.1237 23.1983 45.733 23.8125 46.0702C24.1058 46.3293 23.9317 47.0374 23.6075 47.6878C23.7076 47.7111 23.8049 47.7358 23.9009 47.7646C24.0983 47.402 24.2367 47.0257 24.2751 46.646C24.2888 46.55 24.2964 46.4561 24.2923 46.3622C24.2786 45.9133 23.8817 45.5754 23.4369 45.6295H23.4293C25.2984 42.5369 27.6617 39.9598 29.243 36.7466C29.2581 36.6637 29.1655 36.5828 29.0888 36.6308ZM29.0888 36.6308C29.0024 36.7171 28.9565 36.8398 28.8585 36.9186C28.8489 36.9282 28.7954 36.9783 28.8009 36.9954C27.5884 38.663 26.4451 40.3683 25.1744 41.9838C23.7357 43.2196 22.2867 43.9119 21.2991 45.6679C21.0345 45.9921 20.7329 46.2951 20.3971 46.5507C20.3395 46.5932 20.2799 46.635 20.2202 46.6734C20.2182 46.6755 20.2161 46.6775 20.2127 46.6789C19.9132 46.8729 19.591 47.0264 19.2552 47.1237C19.4992 47.1484 19.7425 47.1717 19.9879 47.195C19.992 47.193 19.9975 47.1895 20.0016 47.1875C21.8124 45.9901 22.6089 43.6994 24.7714 42.9626C24.7467 43.003 24.7213 43.0435 24.6967 43.0832C24.3341 43.6782 23.9427 44.2573 23.5589 44.8427C23.0085 45.6501 22.3964 46.5809 22.0222 47.4041C22.1332 47.4178 22.2449 47.4328 22.356 47.45C22.5342 47.1237 23.1983 45.733 23.8125 46.0702C24.1058 46.3293 23.9317 47.0374 23.6075 47.6878C23.7076 47.7111 23.8049 47.7358 23.9009 47.7646C24.0983 47.402 24.2367 47.0257 24.2751 46.646C24.2888 46.55 24.2964 46.4561 24.2923 46.3622C24.2786 45.9133 23.8817 45.5754 23.4369 45.6295H23.4293C25.2984 42.5369 27.6617 39.9598 29.243 36.7466C29.2581 36.6637 29.1655 36.5828 29.0888 36.6308ZM19.2559 47.1237C18.9454 47.2156 18.6225 47.2622 18.2983 47.2505C18.2867 47.2485 18.2737 47.2485 18.26 47.2485C18.2332 47.2464 18.2065 47.243 18.1791 47.2409C17.8761 47.208 17.5766 47.1258 17.2867 46.9935C17.2846 46.9935 17.2812 46.9955 17.2791 46.9955C17.2366 47.0031 17.1982 47.0072 17.1585 47.0127H17.1564C17.1448 47.0127 17.1331 47.0147 17.1235 47.0147C17.0701 47.0189 17.02 47.0202 16.9741 47.0202C16.9378 47.0202 16.9015 47.0182 16.8686 47.0182C17.7164 47.2217 18.6033 47.3369 19.4896 47.4246C19.5184 47.4171 19.5451 47.4054 19.5739 47.3958C19.7178 47.3458 19.8501 47.2752 19.9886 47.1943C19.7432 47.1717 19.4999 47.1491 19.2559 47.1237ZM64.7946 41.7535V41.8495C64.7617 41.8515 64.7295 41.855 64.6966 41.8591C61.5999 42.1278 58.6951 43.6699 55.8246 43.1065C55.8205 43.1065 55.8171 43.1045 55.813 43.1045C55.7191 43.0853 55.6231 43.064 55.5292 43.0414C55.508 43.0359 55.4867 43.0298 55.4662 43.0263C55.4511 43.0208 55.4333 43.0167 55.4182 43.0126C55.3243 42.9879 55.2324 42.9605 55.1378 42.9283C54.5429 42.7405 53.95 42.4465 53.3571 42.0229C53.0748 41.8214 52.7759 41.6452 52.4689 41.48C51.3235 40.8639 49.6868 39.8988 51.3448 38.9474C51.924 38.6616 52.6978 38.8631 53.34 38.857C57.6876 39.114 59.654 32.5217 59.7095 30.9905C59.9186 29.1563 59.7884 27.2742 59.7671 25.4263C59.8247 24.8314 59.2722 24.1659 59.4025 23.623C60.2661 22.416 62.9886 23.6881 64.5198 23.9301C64.6445 23.9513 64.7631 23.9643 64.8707 23.9685C64.8323 23.8533 64.7939 23.719 64.7555 23.6038C64.6329 23.5887 64.5102 23.5675 64.3834 23.5421C62.2572 23.1453 59.6945 21.7943 58.4244 24.2173C55.5696 23.0452 52.3941 23.6203 49.5792 22.222C46.8259 21.2165 43.7655 22.5099 40.945 21.7614C38.3398 21.6483 35.9162 19.8025 33.3856 20.5907C30.755 21.4715 28.0421 21.9897 25.3272 22.5284C25.0606 22.5997 24.8166 22.5709 24.5925 22.4976C24.2415 22.3845 23.9365 22.1562 23.6925 21.8759C21.4416 19.2802 19.5019 14.5159 17.6753 11.6708C17.639 11.6153 17.6047 11.5598 17.5677 11.5056C17.5985 11.5557 17.1935 11.703 17.151 11.7304C18.4519 13.9793 22.6308 22.8697 24.818 22.9506C24.8509 22.9527 24.881 22.9465 24.9119 22.941C28.0415 22.3289 31.0765 21.9451 34.0923 20.8725C34.6296 20.7573 35.3199 20.6997 35.7804 20.93C37.4302 21.7936 39.2548 21.9143 41.0396 22.1254C45.0589 22.5819 48.3249 24.1994 51.669 26.0391C51.8033 26.1159 51.9952 26.3078 51.9569 26.4037C51.717 28.0076 53.3112 28.3126 54.4127 28.9363C52.4442 30.3236 47.2542 27.0905 44.858 26.5381C43.4845 26.3537 42.0629 26.6841 40.6757 26.73C39.4515 26.8472 40.1979 25.1549 38.2966 24.8691C36.1478 24.2741 33.9991 24.2166 31.8119 24.3509C29.3677 24.3276 26.9194 23.8787 24.4636 24.063C24.3293 24.0822 24.3539 24.2968 24.4636 24.2933C28.4349 24.4661 32.4069 24.658 36.3973 24.8307C33.1875 26.2022 36.0594 28.4264 38.335 27.8431C38.446 27.8774 38.4556 27.9562 38.3926 28.035C37.067 28.5779 35.6722 28.3709 34.3829 29.0713C33.6139 29.3455 32.57 28.8815 31.7351 29.1289C29.3465 30.046 27.0785 31.044 24.4828 30.9706C26.3053 31.6039 27.9558 30.9898 29.5672 30.107C29.6056 30.1646 29.6631 30.2222 29.7015 30.2797C28.5562 31.8068 26.2957 31.9967 24.6363 32.8123C22.9749 33.2592 21.1195 33.1098 19.9378 31.7054C16.6458 28.3366 13.8096 24.597 10.3023 21.3927C10.2489 21.3406 10.1604 21.3598 10.1255 21.4256C10.0412 21.5887 9.98155 21.7518 9.91986 21.915C11.8692 23.7642 13.7842 25.6292 15.5992 27.6135C16.6986 28.985 18.2127 30.532 19.4937 31.9302C20.5527 33.1962 21.9187 33.3655 23.5417 33.4265C22.5232 34.1496 21.454 34.798 20.4142 35.4868C19.3683 36.1798 18.3381 36.9063 17.408 37.7487C17.0475 38.0749 16.7041 38.4224 16.3812 38.7864C16.2181 38.9708 16.0612 39.1606 15.9076 39.3546C15.7253 39.5883 15.5142 40.0551 15.7328 40.3272C16.0145 40.6761 16.4827 40.9201 16.9131 41.0201C17.4004 41.1312 17.9687 41.1641 18.456 41.0661C18.8186 40.9948 19.1736 40.8762 19.5053 40.7172C19.7987 40.5774 20.064 40.3813 20.3169 40.1743C20.5047 40.0208 20.6582 39.8172 20.8193 39.6335C21.1394 39.2655 21.4368 38.9392 21.8782 38.7144C22.2367 38.53 22.6247 38.3751 23.0236 38.4341C20.9666 40.3889 19.4951 42.7474 17.7952 44.94C17.3998 45.452 16.9913 45.953 16.5574 46.4383C16.5553 46.4424 16.5519 46.4479 16.5478 46.452C16.5478 46.452 16.5478 46.452 16.5457 46.4541C16.5457 46.4541 16.5457 46.4541 16.5437 46.4541C16.5437 46.4541 16.5437 46.4561 16.5416 46.4582C16.5416 46.4582 16.5396 46.4582 16.5396 46.4602C16.5396 46.4623 16.5375 46.4644 16.5355 46.4657C16.5355 46.4678 16.5334 46.4678 16.5334 46.4698C16.4971 46.5295 16.4738 46.5966 16.4683 46.6597C16.4642 46.6885 16.4662 46.7173 16.4703 46.7461V46.7481C16.4779 46.8098 16.5012 46.8708 16.5416 46.9284C16.5416 46.9304 16.5396 46.9325 16.5375 46.9339L16.5396 46.9359C16.5546 46.9572 16.5725 46.9722 16.5917 46.9914C16.6163 47.0147 16.6451 47.0374 16.678 47.0627C17.5492 47.535 18.5931 47.7173 19.4622 47.4349C19.4697 47.4328 19.4793 47.4294 19.4868 47.4253C19.5156 47.4178 19.5424 47.4061 19.5711 47.3965C19.7151 47.3465 19.8474 47.2759 19.9858 47.195C19.9899 47.193 19.9954 47.1895 19.9995 47.1875C21.8104 45.9901 22.6068 43.6994 24.7693 42.9626C24.7446 43.003 24.7193 43.0435 24.6946 43.0832C24.332 43.6782 23.9406 44.2573 23.5568 44.8427C23.0064 45.6501 22.3944 46.5809 22.0201 47.4041C21.9797 47.4945 21.9434 47.5809 21.9091 47.6666C21.907 47.6707 21.905 47.6762 21.9036 47.6803C21.5698 48.5247 21.5431 49.217 22.1798 49.4857C23.2545 49.7502 24.258 49.426 25.0195 48.8523C25.1004 48.7797 25.1785 48.7043 25.2573 48.6282C25.2786 48.607 25.3012 48.5857 25.3224 48.5651C25.3745 48.5151 25.4259 48.4651 25.476 48.4137C26.7077 47.1861 27.7954 45.7159 28.9908 44.5171C30.4527 45.6186 31.8592 46.6892 33.3075 47.7982C32.9312 48.3931 32.3829 49.2122 32.06 49.9086C32.1484 49.901 32.3479 49.9319 32.4055 49.8702C33.8634 47.1457 35.8785 44.9777 38.4871 43.3855C42.3474 40.7953 47.0466 40.4944 51.3037 42.1956C52.7602 42.7405 53.9322 43.086 54.9432 43.2799C55.0467 43.2991 55.1468 43.3183 55.2461 43.3334C55.2633 43.3375 55.2825 43.3389 55.2996 43.343C55.3627 43.3546 55.4264 43.3622 55.4895 43.3718C55.5875 43.3869 55.6834 43.4006 55.7773 43.4122C55.7828 43.4122 55.7869 43.4143 55.7924 43.4143C58.7143 43.7631 60.3895 42.7851 64.6239 42.0962H64.626C64.737 42.0791 64.8488 42.0599 64.9639 42.0428C64.9831 41.9468 65.0215 41.8509 65.0599 41.7549H64.7946V41.7535ZM59.3072 31.0865C59.1482 32.9898 57.02 39.4437 51.913 38.2778C52.7684 38.0112 54.2441 37.7308 55.5642 35.8124C57.057 33.5923 57.9933 31.3668 59.3285 29.0282C59.384 29.7259 59.4018 30.4244 59.3072 31.0865ZM58.9638 24.342C58.9864 24.3153 59.0118 24.2865 59.0385 24.2556C59.177 24.5936 59.286 24.8465 59.4319 25.2111C58.9275 25.0213 58.4093 24.9006 58.9638 24.342ZM53.7821 23.5462C54.9946 23.7382 56.2187 23.9109 57.4278 24.122C57.7712 24.1933 57.8884 24.5421 57.9268 24.8513C57.946 26.3825 54.4428 23.9876 53.7444 23.7635C53.6457 23.6991 53.6073 23.5558 53.7821 23.5462ZM58.8089 27.2105C57.9131 27.5922 56.3435 26.767 56.0844 25.695C56.9857 25.3879 58.4827 26.2125 58.8089 27.2105ZM51.5758 25.4455C51.2845 25.2824 50.9884 25.1576 50.7313 24.9849C48.9548 24.0144 47.3125 23.3461 45.3646 22.416C48.0452 21.6141 50.1014 22.673 52.3619 23.6422C53.3119 24.3173 55.2455 24.4304 55.6622 25.5415C55.6238 26.7965 57.1379 27.2317 58.0029 27.8129C55.595 29.2502 55.24 27.9048 53.5326 26.6347C52.9301 26.1899 52.2509 25.8198 51.5758 25.4455ZM54.0713 28.2961C53.3153 28.1001 52.5038 27.5559 52.2276 26.8842C52.1851 26.8575 52.22 26.7924 52.1837 26.7457C53.1563 26.4963 54.3942 27.3811 54.7451 28.3249C54.6834 28.3345 54.6224 28.3421 54.5607 28.3421C54.5587 28.3441 54.5587 28.3441 54.5566 28.3421C54.3997 28.3482 54.2345 28.3332 54.0713 28.2961ZM37.3048 27.5963C35.8065 27.316 35.154 26.708 35.2287 26.1227C35.2499 26.0384 35.2808 25.952 35.3226 25.8712C35.2938 25.9191 35.2705 25.9692 35.2534 26.0172C35.422 25.3838 36.3987 24.8753 37.8956 25.1001C40.5475 25.7773 39.2575 27.2201 37.3048 27.5963ZM31.1806 29.6279L31.2958 29.9158C30.9236 30.0542 30.5878 30.1879 30.2026 30.3188C30.1621 30.2187 30.1258 30.1097 30.0874 30.0117C30.4514 29.8966 30.816 29.7622 31.1806 29.6279ZM22.0263 48.2869C22.0708 48.097 22.136 47.9072 22.2182 47.7228C22.2203 47.7173 22.2237 47.7111 22.2257 47.7056C22.26 47.6309 22.2984 47.5562 22.3368 47.4829C22.3423 47.4733 22.3484 47.4637 22.356 47.45C22.5342 47.1237 23.1983 45.733 23.8125 46.0702C24.1058 46.3293 23.9317 47.0374 23.6075 47.6878C23.5691 47.7687 23.5253 47.8468 23.4828 47.9236C23.4773 47.9332 23.4711 47.9428 23.4657 47.9524C23.2929 48.2574 23.0935 48.5336 22.9077 48.7214C22.5136 49.2327 21.8501 48.9353 22.0263 48.2869ZM27.7844 45.2649C26.9558 45.9654 26.0963 47.3026 25.11 48.2156C25.0503 48.2711 24.9893 48.3252 24.9276 48.3767C24.9084 48.3958 24.8893 48.4109 24.8701 48.4287C24.2559 48.9394 23.5945 49.2615 22.8611 49.1519C23.1833 48.8064 23.4979 48.4246 23.7474 48.0257C23.7549 48.0141 23.7624 48.0024 23.7686 47.9915C23.8166 47.9167 23.8605 47.842 23.9009 47.7653C24.0983 47.4027 24.2367 47.0264 24.2751 46.6467C24.2888 46.5507 24.2964 46.4568 24.2923 46.3629C24.2786 45.914 23.8817 45.5761 23.4369 45.6302H23.4293C25.2984 42.5376 27.6617 39.9605 29.243 36.7473C29.2581 36.665 29.1662 36.5841 29.0895 36.6321C29.0031 36.7185 28.9572 36.8412 28.8592 36.92C28.8496 36.9296 28.7961 36.9796 28.8016 36.9968C27.5891 38.6644 26.4458 40.3697 25.1751 41.9852C23.7364 43.221 22.2874 43.9133 21.2998 45.6693C21.0352 45.9935 20.7336 46.2964 20.3978 46.5521C20.3402 46.5946 20.2805 46.6364 20.2209 46.6748C20.2189 46.6768 20.2168 46.6789 20.2134 46.6803C19.9139 46.8742 19.5917 47.0278 19.2559 47.1251C18.9454 47.2169 18.6225 47.2635 18.2983 47.2519C18.2867 47.2498 18.2737 47.2498 18.26 47.2498C18.2332 47.2478 18.2065 47.2444 18.1791 47.2423C17.8761 47.2094 17.5766 47.1271 17.2867 46.9949C17.2846 46.9949 17.2812 46.9969 17.2791 46.9969C17.2291 46.9722 17.1791 46.951 17.1311 46.9243C17.127 46.9222 17.1235 46.9243 17.1194 46.9202C17.0385 46.8605 16.9392 46.8509 16.8487 46.8242C16.8028 46.8125 16.7603 46.7975 16.7219 46.7721C16.7198 46.7721 16.7198 46.7721 16.7198 46.7701C16.7157 46.768 16.7123 46.7646 16.7102 46.7605C16.7048 46.755 16.6965 46.7488 16.691 46.7413C16.6739 46.7241 16.6602 46.707 16.6506 46.6912C16.6451 46.6837 16.641 46.6761 16.6369 46.67C16.6328 46.6624 16.6294 46.6549 16.6294 46.6508C16.7466 46.5069 16.8597 46.3705 16.9686 46.2382C16.9899 46.2114 17.0111 46.1847 17.0338 46.1593C17.164 46.0017 17.2887 45.8502 17.4135 45.7008C17.5574 45.526 17.7013 45.3533 17.8473 45.1792C17.9145 45.1004 17.9817 45.0202 18.0488 44.9393C18.1489 44.8187 18.2504 44.6953 18.3559 44.5692C18.3751 44.5459 18.3943 44.5233 18.4135 44.5C18.4574 44.4479 18.5019 44.3944 18.5458 44.341C18.5896 44.2875 18.6362 44.2313 18.6822 44.1758C18.6876 44.1833 18.6918 44.1908 18.6959 44.2004C18.7384 44.1483 18.7802 44.0949 18.8247 44.0428V44.0407C18.8686 43.9873 18.9131 43.9352 18.957 43.8831C18.9131 43.9366 18.8707 43.9907 18.8268 44.0442C18.7829 44.0963 18.7404 44.1497 18.6979 44.2032C18.7247 44.2491 18.7459 44.2991 18.7651 44.3547C18.8035 44.2991 18.8398 44.2416 18.8782 44.186C18.8837 44.1785 18.8878 44.171 18.8933 44.1648C18.9166 44.1305 18.9412 44.0956 18.9646 44.0634C18.955 44.0771 18.9454 44.088 18.9358 44.1017C19.3655 43.4513 19.7624 42.77 20.2538 42.1757C20.273 42.1449 20.3018 42.1161 20.321 42.0839C20.5554 41.7981 20.7932 41.4835 21.0482 41.2168C22.9537 38.9851 25.1442 37.0879 27.2841 35.0577C28.4006 32.909 30.8469 31.9843 32.618 30.4531C32.6543 30.3709 32.6104 30.3263 32.522 30.2996C30.9524 31.0878 29.4733 32.2948 28.025 33.3538C27.8482 33.4827 27.6967 33.6396 27.5761 33.8199C27.219 34.3476 26.1984 35.6808 23.8042 37.7473C22.4766 38.2271 21.2257 38.1483 20.3203 39.5088C20.3203 39.528 20.3011 39.528 20.3011 39.5472C19.994 39.9269 19.6582 40.2148 19.2922 40.4087C19.2517 40.432 19.2154 40.4547 19.175 40.4718C19.1729 40.4759 19.1709 40.4773 19.1674 40.4759C18.3751 40.8364 17.262 40.881 16.4875 40.3841H16.4854C16.4183 40.3416 16.3566 40.2957 16.2976 40.2456C16.2921 40.2401 16.288 40.236 16.2825 40.2319C16.1927 40.1593 16.129 40.0839 16.0927 40.0091C16.0872 39.9996 16.0831 39.992 16.079 39.9845C16.0769 39.9824 16.0769 39.979 16.0769 39.9769C16.0673 39.9577 16.0598 39.9365 16.0557 39.9152C16.0536 39.9111 16.0516 39.9057 16.0516 39.9002C16.0152 39.7329 16.092 39.5513 16.2798 39.3306C16.8768 38.7302 17.5019 38.1585 18.1523 37.6095C20.1284 35.9419 22.3196 34.5012 24.5226 33.1777C26.4102 32.8877 28.2272 31.6793 29.8948 30.7218C30.6008 30.5052 31.5062 30.486 31.8709 29.7239C32.6056 29.0103 34.0217 29.9754 35.1327 29.0522C36.3301 28.4709 38.0608 29.0789 38.8936 27.8047C39.5536 26.5922 42.662 27.181 44.0547 26.876C47.2954 27.3037 50.2694 29.5888 53.5902 29.5888C54.4648 29.5888 54.6512 28.8095 55.3551 28.7828C57.1948 28.9192 60.9495 27.8424 57.9837 25.8664C58.0221 25.828 58.0604 25.7896 58.0988 25.7704C58.0988 25.7704 58.0796 25.7704 58.0796 25.7512C58.2277 25.6285 58.4018 25.427 58.5594 25.3674C58.8069 25.3653 59.166 25.6073 59.2119 25.8088C59.6095 27.1268 59.3346 28.2879 58.617 29.4161C57.3449 31.9604 56.3202 34.7116 54.377 36.7452C51.244 40.0222 47.0863 36.8528 43.4406 38.2223C40.5763 39.3333 38.0492 41.5376 34.8832 41.6569C36.4083 40.1586 35.6413 37.7562 32.9648 38.1839C35.6029 35.5978 39.3137 34.2585 42.8073 33.2147C44.187 32.6005 44.9293 31.2153 46.3378 30.5669C44.9951 30.5306 44.3885 31.776 43.383 32.447C42.1781 33.4175 40.5797 33.5635 39.1239 34.0584C39.4056 32.9686 40.3631 32.556 41.2535 32.0824C39.7168 32.0748 39.2486 33.0186 38.5865 34.116C37.7654 34.7418 36.4741 35.6835 35.9963 34.0008C35.958 34.018 35.9024 34.0701 35.9196 34.116C36.0923 34.4806 36.2458 34.8453 36.4569 35.2867C36.4186 35.3059 36.361 35.4018 36.361 35.4018C36.3226 35.4573 36.1924 35.4957 36.1327 35.5245C36.0231 35.58 35.9141 35.6355 35.8044 35.6931C35.5913 35.8041 35.3802 35.9193 35.1752 36.0461C34.7551 36.3052 34.3562 36.6006 33.9819 36.9207C33.6043 37.2312 33.2355 37.5519 32.8709 37.8782C32.5597 38.1565 32.2513 38.4348 31.9401 38.713C31.8229 38.8186 31.7537 38.8995 31.6467 39.0139C31.023 39.6856 31.1806 40.6103 31.1786 40.9536C31.1765 41.2641 31.1018 41.5678 30.8736 41.7898C29.8564 42.9626 28.8208 44.1326 27.7844 45.2649ZM31.5028 39.8885C31.5316 39.7967 31.5741 39.7083 31.6221 39.6219C32.3493 38.0873 35.5131 38.1462 35.1142 40.1997C34.7839 42.2909 30.9154 42.3772 31.5028 39.8885ZM51.0768 41.7535C43.9492 38.628 37.2342 43.8543 36.9306 44.1422C35.8908 44.9462 34.9696 45.8879 34.1163 46.8763C33.374 47.7666 30.5569 45.0517 29.6227 44.3684C30.3821 43.0942 31.0059 42.6165 31.4493 42.003C36.7716 42.9064 39.4769 39.981 43.9087 38.4245C44.5249 38.2079 45.1809 38.1119 45.8313 38.162C47.4297 38.2867 49.024 38.7069 50.6203 38.9008C49.4496 39.8316 50.7334 40.7199 51.3455 41.8111C51.2495 41.7919 51.1535 41.7727 51.0768 41.7535ZM19.2559 47.1237C18.9454 47.2156 18.6225 47.2622 18.2983 47.2505C18.2867 47.2485 18.2737 47.2485 18.26 47.2485C18.2332 47.2464 18.2065 47.243 18.1791 47.2409C17.8761 47.208 17.5766 47.1258 17.2867 46.9935C17.2846 46.9935 17.2812 46.9955 17.2791 46.9955C17.2366 47.0031 17.1982 47.0072 17.1585 47.0127H17.1564C17.1448 47.0127 17.1331 47.0147 17.1235 47.0147C17.0701 47.0189 17.02 47.0202 16.9741 47.0202C16.9378 47.0202 16.9015 47.0182 16.8686 47.0182C17.7164 47.2217 18.6033 47.3369 19.4896 47.4246C19.5184 47.4171 19.5451 47.4054 19.5739 47.3958C19.7178 47.3458 19.8501 47.2752 19.9886 47.1943C19.7432 47.1717 19.4999 47.1491 19.2559 47.1237ZM29.0888 36.6308C29.0024 36.7171 28.9565 36.8398 28.8585 36.9186C28.8489 36.9282 28.7954 36.9783 28.8009 36.9954C27.5884 38.663 26.4451 40.3683 25.1744 41.9838C23.7357 43.2196 22.2867 43.9119 21.2991 45.6679C21.0345 45.9921 20.7329 46.2951 20.3971 46.5507C20.3395 46.5932 20.2799 46.635 20.2202 46.6734C20.2182 46.6755 20.2161 46.6775 20.2127 46.6789C19.9132 46.8729 19.591 47.0264 19.2552 47.1237C19.4992 47.1484 19.7425 47.1717 19.9879 47.195C19.992 47.193 19.9975 47.1895 20.0016 47.1875C21.8124 45.9901 22.6089 43.6994 24.7714 42.9626C24.7467 43.003 24.7213 43.0435 24.6967 43.0832C24.3341 43.6782 23.9427 44.2573 23.5589 44.8427C23.0085 45.6501 22.3964 46.5809 22.0222 47.4041C22.1332 47.4178 22.2449 47.4328 22.356 47.45C22.5342 47.1237 23.1983 45.733 23.8125 46.0702C24.1058 46.3293 23.9317 47.0374 23.6075 47.6878C23.7076 47.7111 23.8049 47.7358 23.9009 47.7646C24.0983 47.402 24.2367 47.0257 24.2751 46.646C24.2888 46.55 24.2964 46.4561 24.2923 46.3622C24.2786 45.9133 23.8817 45.5754 23.4369 45.6295H23.4293C25.2984 42.5369 27.6617 39.9598 29.243 36.7466C29.2581 36.6637 29.1655 36.5828 29.0888 36.6308Z" fill="url(#paint7_linear_1_1389)"/>
<path id="Vector_9" d="M36.2032 25.2123C36.7139 25.0417 37.3451 25.0149 37.9147 25.1184C37.341 25.0019 36.7152 25.0341 36.2032 25.2123Z" fill="url(#paint8_linear_1_1389)"/>
<path id="Vector_10" d="M35.9977 25.2935C35.9017 25.336 35.8113 25.3853 35.7311 25.4415C35.814 25.3874 35.9024 25.3373 35.9977 25.2935Z" fill="url(#paint9_linear_1_1389)"/>
<path id="Vector_11" d="M35.3767 25.7805C35.4322 25.7038 35.4973 25.629 35.5741 25.5598C35.4953 25.6249 35.4302 25.6996 35.3767 25.7805Z" fill="url(#paint10_linear_1_1389)"/>
<path id="Vector_12" d="M39.7749 30.6829C38.8154 31.3354 38.0868 33.1771 38.3555 33.868C38.7969 32.87 39.276 31.8344 39.7749 30.6829Z" fill="url(#paint11_linear_1_1389)"/>
<g id="Group_7">
<path id="Vector_13" d="M18.8952 44.1654C18.8952 44.1633 18.8952 44.1613 18.8932 44.1599C18.8911 44.1558 18.8911 44.1524 18.8891 44.1503C18.8699 44.1119 18.8507 44.0777 18.8274 44.0448L18.8253 44.0427V44.0406C18.8061 44.0098 18.7849 43.9831 18.7623 43.9563L18.6875 43.8679L18.6149 43.9563C18.5649 44.018 18.5148 44.077 18.4668 44.1366C18.4518 44.1558 18.4339 44.177 18.4189 44.1942C18.4168 44.1962 18.4168 44.1962 18.4147 44.1983C18.3743 44.2504 18.3325 44.2984 18.2941 44.3477C18.2921 44.3498 18.29 44.3518 18.29 44.3532C18.2879 44.3552 18.2859 44.3573 18.2845 44.3587C18.1139 44.5602 17.9548 44.7521 17.7972 44.9399C17.7643 44.9783 17.7341 45.0167 17.7012 45.0551C17.4805 45.3183 17.2674 45.5732 17.0432 45.844C17.0412 45.8481 17.0378 45.8515 17.0336 45.8556C17.0336 45.8556 17.0336 45.8577 17.0316 45.8597C17.0295 45.8618 17.0295 45.8618 17.0275 45.8638C17.022 45.8714 17.0158 45.8789 17.0083 45.8851L17.0042 45.8892C16.8623 46.066 16.7163 46.2442 16.5593 46.4396C16.5573 46.4437 16.5539 46.4492 16.5497 46.4533C16.5497 46.4533 16.5497 46.4533 16.5477 46.4553C16.5477 46.4553 16.5477 46.4553 16.5456 46.4553C16.5456 46.4553 16.5456 46.4574 16.5436 46.4595C16.5436 46.4595 16.5415 46.4595 16.5415 46.4615C16.5415 46.4636 16.5395 46.4656 16.5374 46.467C16.5374 46.4691 16.5353 46.4691 16.5353 46.4711C16.5278 46.4807 16.5182 46.4924 16.5107 46.502C16.4572 46.5458 16.4339 46.6151 16.451 46.6918C16.4552 46.7055 16.4586 46.7206 16.4661 46.7343C16.4661 46.7398 16.4682 46.7439 16.4716 46.748V46.7501C16.5079 46.8323 16.5813 46.9207 16.6656 46.9708C16.6998 46.9941 16.7382 47.0071 16.7752 47.0133H16.7773C16.804 47.0153 16.8328 47.0188 16.8657 47.0208H16.8678C16.9007 47.0208 16.937 47.0229 16.9733 47.0229C17.0192 47.0229 17.0693 47.0208 17.1227 47.0174C17.1323 47.0174 17.144 47.0153 17.1556 47.0153H17.1577C17.1981 47.0099 17.2365 47.0057 17.2783 46.9982C17.2804 46.9982 17.2838 46.9961 17.2859 46.9961C17.3167 46.992 17.3489 46.9865 17.3818 46.979C17.7883 46.8906 18.2852 46.6432 18.6731 46.0085C19.1008 45.3087 19.1084 44.6047 18.8952 44.1654ZM18.5114 45.9057C18.0679 46.6274 17.475 46.7994 17.0823 46.8248C17.0288 46.8289 16.9809 46.8289 16.9343 46.8289C16.9034 46.8268 16.8746 46.8248 16.85 46.8234C16.8328 46.8234 16.8171 46.8214 16.802 46.8193C16.7807 46.8152 16.7574 46.8001 16.7327 46.7809C16.7286 46.7768 16.7252 46.7754 16.7232 46.7713C16.7211 46.7713 16.7211 46.7713 16.7211 46.7693C16.717 46.7672 16.7136 46.7638 16.7115 46.7597C16.706 46.7542 16.6978 46.748 16.6923 46.7405C16.6752 46.7233 16.6615 46.7062 16.6519 46.6904C16.6464 46.6829 16.6423 46.6754 16.6382 46.6692C16.634 46.6617 16.6306 46.6541 16.6306 46.65L16.6532 46.6288C16.7629 46.4924 16.8664 46.3621 16.9699 46.2374C16.9911 46.2107 17.0124 46.1839 17.035 46.1586C17.1639 45.9996 17.2879 45.8494 17.4147 45.7C17.5587 45.5252 17.7026 45.3525 17.8486 45.1784C17.9158 45.0996 17.9829 45.0194 18.0501 44.9385C18.1502 44.8179 18.2516 44.6945 18.3572 44.5684C18.3764 44.5451 18.3956 44.5225 18.4147 44.4992C18.4586 44.4471 18.5032 44.3936 18.547 44.3402C18.5909 44.2867 18.6375 44.2305 18.6834 44.175C18.6889 44.1825 18.693 44.1901 18.6971 44.1997C18.6992 44.1997 18.6992 44.2017 18.6992 44.2038C18.7259 44.2497 18.7472 44.2997 18.7664 44.3553C18.9014 44.7446 18.861 45.332 18.5114 45.9057Z" fill="url(#paint12_linear_1_1389)"/>
</g>
<g id="Group_8">
<path id="Vector_14" d="M18.153 37.6476V37.479L17.996 37.6133C17.4915 38.039 16.9871 38.4866 16.4936 38.9238L16.4168 39.0006C16.3572 39.0582 16.2975 39.1199 16.242 39.1946C16.1632 39.2789 15.789 39.7066 15.8719 39.9718C15.876 39.991 15.8836 40.0061 15.889 40.0219L15.8966 40.0452C15.9391 40.1487 16.0172 40.2522 16.1207 40.3406C16.1474 40.3845 16.1803 40.4153 16.2304 40.4407L16.2667 40.4578L16.3777 40.4215L16.4682 40.3906L16.4853 40.3851H16.4874C16.5141 40.3735 16.5395 40.3605 16.5662 40.3468C16.8808 40.1973 17.1995 39.967 17.4737 39.6922C18.2085 38.9561 18.4943 38.0966 18.153 37.6476ZM17.3373 39.5565C17.057 39.8368 16.7273 40.0671 16.4161 40.2049L16.3798 40.2165L16.2975 40.2453L16.29 40.2474C16.288 40.2433 16.2859 40.2378 16.2825 40.2337V40.2316L16.2653 40.2124L16.2578 40.2008C16.2365 40.1836 16.2174 40.1679 16.2002 40.1487C16.179 40.1288 16.1605 40.1076 16.144 40.0856C16.1255 40.0603 16.1049 40.0342 16.0926 40.0089C16.0871 39.9993 16.083 39.9917 16.0789 39.9842C16.0768 39.9821 16.0768 39.9787 16.0768 39.9766C16.0672 39.9554 16.0618 39.9362 16.0556 39.915C16.0535 39.9108 16.0515 39.9054 16.0515 39.8999C16.046 39.8711 16.0556 39.8286 16.0748 39.7772C16.1207 39.66 16.2263 39.4914 16.3873 39.3166C16.4408 39.2453 16.4949 39.1918 16.5525 39.1343L16.6252 39.0616C17.0878 38.6531 17.5635 38.2309 18.0412 37.8258C18.2414 38.2076 17.9473 38.9465 17.3373 39.5565Z" fill="url(#paint13_linear_1_1389)"/>
</g>
<path id="Vector_15" d="M39.8346 15.2039C40.0244 15.2039 40.1793 15.051 40.1814 14.8612L40.352 6.73426C40.3582 6.44433 40.1245 6.20581 39.8346 6.20581C39.5446 6.20581 39.3109 6.44433 39.3171 6.73426L39.4877 14.8612C39.4898 15.051 39.6447 15.2039 39.8346 15.2039Z" fill="url(#paint14_linear_1_1389)"/>
<path id="Vector_16" d="M47.5065 17.5125C47.6409 17.6468 47.8581 17.6482 47.9945 17.5152L53.8617 11.8894C54.0714 11.6885 54.0748 11.3547 53.8692 11.1498C53.6643 10.9449 53.3305 10.9483 53.1296 11.1573L47.5038 17.0245C47.3708 17.1602 47.3722 17.3781 47.5065 17.5125Z" fill="url(#paint15_linear_1_1389)"/>
<path id="Vector_17" d="M44.0855 15.3033C44.2617 15.3746 44.4625 15.291 44.5359 15.1162L46.0808 11.6528C46.1952 11.3862 46.0684 11.0777 45.7998 10.9688C45.5311 10.8598 45.2247 10.9927 45.1219 11.2642L43.8923 14.8557C43.8237 15.0319 43.9094 15.232 44.0855 15.3033Z" fill="url(#paint16_linear_1_1389)"/>
<g id="Group_9">
<path id="Vector_18" d="M32.0079 17.5125C31.8735 17.6468 31.6562 17.6482 31.5198 17.5152L25.6527 11.8894C25.443 11.6885 25.4396 11.3547 25.6452 11.1498C25.8501 10.9449 26.1839 10.9483 26.3847 11.1573L32.0106 17.0245C32.1436 17.1602 32.1422 17.3781 32.0079 17.5125Z" fill="url(#paint17_linear_1_1389)"/>
<path id="Vector_19" d="M35.4289 15.3033C35.2527 15.3746 35.0519 15.291 34.9786 15.1162L33.4336 11.6528C33.3192 11.3862 33.446 11.0777 33.7147 10.9688C33.9833 10.8598 34.2897 10.9927 34.3925 11.2642L35.6222 14.8557C35.6907 15.0319 35.605 15.232 35.4289 15.3033Z" fill="url(#paint18_linear_1_1389)"/>
<path id="Vector_20" d="M27.9908 20.167C27.9085 20.3384 27.7036 20.4117 27.5315 20.3309L24.0599 18.8044C23.7961 18.6838 23.6823 18.3706 23.8084 18.1088C23.9345 17.8476 24.2505 17.7407 24.5089 17.8716L27.8324 19.7051C28.0031 19.7901 28.0737 19.9957 27.9908 20.167Z" fill="url(#paint19_linear_1_1389)"/>
</g>
<g id="Group_10">
<path id="Vector_21" d="M64.9885 42.2121L64.6232 42.0935C65.5547 39.2182 66.0269 36.2127 66.0269 33.1613C66.0269 17.1967 53.039 4.20878 37.0744 4.20878C29.7344 4.20878 22.7336 6.96003 17.3613 11.956L17.1002 11.675C22.543 6.61252 29.6363 3.82495 37.0744 3.82495C53.2501 3.82495 66.41 16.9849 66.41 33.1606C66.4114 36.2532 65.933 39.2984 64.9885 42.2121Z" fill="url(#paint20_linear_1_1389)"/>
</g>
<path id="Vector_22" d="M38.5659 59.6598C38.6235 59.8304 38.677 60.0148 38.727 60.2143C38.6077 59.9648 38.52 59.6886 38.47 59.3835C38.5022 59.4733 38.5351 59.5659 38.5659 59.6598Z" fill="black"/>
<path id="Vector_23" d="M39.0532 62.7396C38.971 62.6779 38.8942 62.6148 38.8229 62.5518C38.8942 62.573 38.9689 62.5922 39.0436 62.6114C39.0457 62.6306 39.0457 62.6498 39.0457 62.671C39.0491 62.6936 39.0512 62.7163 39.0532 62.7396Z" fill="black"/>
<g id="Group_11">
<path id="Vector_24" d="M42.7908 48.6009C42.4474 48.5797 42.1417 48.6619 41.8408 48.8634C41.579 49.0773 41.435 49.385 41.4131 49.7661C41.3706 50.1294 41.4625 50.444 41.701 50.7353C41.934 50.9916 42.2397 51.1335 42.5968 51.1554C42.6544 51.1623 42.7106 51.1657 42.7654 51.1657C43.0588 51.1657 43.3192 51.0698 43.5578 50.8744C43.8148 50.664 43.9635 50.3549 43.9868 49.98C44.0094 49.6002 43.9169 49.2897 43.7044 49.0307C43.4913 48.7688 43.1835 48.6242 42.7908 48.6009Z" fill="url(#paint21_linear_1_1389)"/>
</g>
<path id="Vector_25" d="M40.4001 63.4407L41.2493 51.7839L43.7709 51.956L42.9217 63.6128L40.4001 63.4407Z" fill="url(#paint22_linear_1_1389)"/>
<path id="Vector_26" d="M40.6051 63.2621L42.7443 63.4074L43.5661 52.1338L41.4269 51.9878L40.6051 63.2621Z" fill="url(#paint23_linear_1_1389)"/>
<path id="Vector_27" d="M27.6459 62.9513C27.6685 62.3632 27.6884 61.9184 27.7473 61.4852C27.8083 61.0376 27.8912 60.625 27.9934 60.2577C28.1449 59.6696 28.3662 59.0993 28.6329 58.6113L28.7069 58.4893C28.796 58.3433 28.8803 58.2062 28.9358 58.0678L28.9406 58.0554L28.9673 58.0088L28.9756 57.9985C29.4231 57.4166 29.8467 57.0163 30.2703 56.7737C30.4424 56.6681 30.5904 56.5838 30.7241 56.516C30.7241 56.516 30.6295 56.4865 30.5918 56.4742C30.5027 56.4557 30.4238 56.4221 30.3478 56.3906L30.2724 56.3597L30.2607 56.3529C30.1572 56.2925 30.0421 56.235 29.931 56.1795L29.9132 56.1699L29.8042 56.1027C29.6857 56.03 29.563 55.9546 29.4279 55.8532C29.04 55.579 28.7014 55.1808 28.4526 54.7044C28.2216 54.2651 28.0839 53.7599 28.0441 53.2034C28.0235 53.0882 28.0235 52.9704 28.0235 52.8456V52.5543H28.4135L30.3224 52.5077L30.3293 52.799C30.3485 53.6489 30.4615 54.2699 30.6754 54.6969C30.8954 55.1369 31.1223 55.431 31.369 55.5955L31.3814 55.6037L31.4156 55.6352L31.55 55.723C31.5808 55.7353 31.6089 55.7476 31.6377 55.7668C31.6919 55.7936 31.7597 55.8271 31.796 55.8395C31.8728 55.8696 31.9413 55.8861 32.0017 55.9005L32.0099 55.9025L32.0071 55.847L31.9201 52.4762H31.9797L31.979 52.4563H32.2779L34.304 52.4097L34.4013 55.8429C34.5822 55.7874 34.7803 55.6791 35.0182 55.5043C35.2731 55.3035 35.489 54.9916 35.6529 54.5804C35.8057 54.2226 35.8893 53.7188 35.9092 53.0355V52.3569H36.2204L38.2266 52.3103L38.2348 52.5995C38.256 53.3494 38.1464 53.9813 37.9092 54.4776C37.6549 54.9855 37.3513 55.3803 36.9798 55.686C36.5631 56.0054 36.2122 56.2137 35.8701 56.3467L35.6707 56.4255C35.6988 56.4372 35.7262 56.4488 35.7543 56.4598C35.8112 56.4824 35.8749 56.516 35.9435 56.553C36.0031 56.5852 36.0579 56.6147 36.1176 56.6407C36.559 56.8703 36.9908 57.2391 37.4891 57.8052C37.9524 58.357 38.3376 59.089 38.6365 59.9862C38.8654 60.6524 39.0189 61.5188 39.1066 62.6312C39.1073 62.7101 39.1114 62.7676 39.1156 62.8273C39.121 62.9109 39.1265 62.9876 39.1272 63.0692C39.1471 63.2207 39.1471 63.3626 39.1471 63.5257V63.8108L36.6124 63.8622L36.6042 63.5744C36.5651 62.2515 36.4472 61.1501 36.2546 60.3008C36.0641 59.4811 35.8338 58.8265 35.5713 58.357C35.3293 57.9252 35.0792 57.5893 34.8454 57.3851C34.7927 57.3542 34.7584 57.322 34.7358 57.2994C34.6946 57.2679 34.648 57.2364 34.6042 57.2062C34.5548 57.1726 34.5164 57.1466 34.4822 57.1205C34.45 57.0993 34.4157 57.0773 34.3835 57.0588L34.4513 59.5544L34.5898 63.2406V63.8862L34.5116 63.889L34.3403 63.9123L32.2306 63.9863L32.2045 62.6991L32.0538 57.1164C32.0339 57.126 32.0133 57.1363 31.9948 57.1459C31.8927 57.2048 31.7686 57.3111 31.6172 57.4433C31.4143 57.6154 31.2032 57.9245 30.9311 58.4482C30.711 58.9067 30.5198 59.5743 30.3642 60.4269C30.21 61.2769 30.1511 62.3831 30.1908 63.7149L30.199 64.0082L27.6472 64.0603V62.9513H27.6459Z" fill="url(#paint24_linear_1_1389)"/>
<path id="Vector_28" d="M38.9346 63.0828C38.9346 63.0013 38.9291 62.9245 38.9237 62.8505C38.9189 62.7833 38.9148 62.7189 38.9141 62.6462C38.8277 61.5496 38.6769 60.699 38.4535 60.0465C38.1622 59.1733 37.7893 58.4618 37.3438 57.932C36.8613 57.3836 36.4493 57.0307 36.0401 56.8168C35.9716 56.7873 35.9085 56.7531 35.8503 56.7215C35.7893 56.6879 35.7324 56.6578 35.681 56.6372C35.6227 56.6139 35.5679 56.5906 35.5158 56.568C35.3904 56.5145 35.2718 56.4645 35.158 56.4357C35.1354 56.4282 35.1114 56.42 35.0874 56.4131C35.1553 56.3953 35.2245 56.3733 35.2999 56.35L35.426 56.311C35.4466 56.3075 35.4637 56.3 35.4795 56.2925L35.7989 56.167C36.1231 56.0409 36.4582 55.8415 36.8565 55.5365C37.2074 55.2472 37.4946 54.8744 37.7352 54.3932C37.9593 53.9244 38.0628 53.3226 38.0422 52.6036L38.0395 52.5049L36.2197 52.5467H36.1011V53.0395C36.0806 53.7475 35.9922 54.2732 35.8311 54.6502C35.6543 55.0923 35.4178 55.4323 35.1313 55.6571C34.8585 55.8572 34.6296 55.9779 34.413 56.0368C34.3266 56.0587 34.2629 56.0745 34.2163 56.0834L34.1176 52.6036L32.2772 52.6454H32.1758L32.1765 52.6653H32.1162L32.1977 55.836L32.2114 56.1335C32.1587 56.1239 32.0887 56.1115 32.0037 56.0964L31.9565 56.0848C31.8893 56.069 31.8132 56.0505 31.7344 56.0197C31.685 56.0032 31.6137 55.9676 31.5397 55.9306C31.5164 55.9134 31.4904 55.9045 31.4609 55.8922L31.2971 55.7853L31.2621 55.753C30.9873 55.5694 30.7385 55.2513 30.5034 54.7805C30.2772 54.3274 30.1572 53.6804 30.1374 52.801L30.1353 52.7016L28.4136 52.7434H28.2155V52.8428C28.2155 52.9641 28.2155 53.069 28.2354 53.1869C28.2731 53.716 28.4033 54.1965 28.6226 54.6125C28.857 55.0622 29.1757 55.4378 29.5424 55.6962C29.6699 55.7914 29.7837 55.862 29.9043 55.9361L30.0133 56.0025C30.1285 56.0601 30.2477 56.1197 30.3574 56.1842L30.4211 56.2102C30.4958 56.2417 30.5664 56.2712 30.6405 56.2849C30.6802 56.2979 30.7227 56.3117 30.7652 56.3247C30.8461 56.3507 30.9277 56.3761 30.9914 56.4015L31.0325 56.4083C31.1312 56.4398 31.2292 56.4604 31.3204 56.4755C31.2395 56.4988 31.149 56.5317 31.0517 56.5735C30.8612 56.6496 30.6487 56.762 30.3656 56.9361C29.964 57.1657 29.5596 57.5502 29.1278 58.1109L29.1141 58.1342C29.053 58.287 28.9646 58.431 28.8714 58.5838L28.8022 58.6983C28.5438 59.1726 28.3279 59.7284 28.1791 60.3042C28.0791 60.6633 27.9982 61.0677 27.9386 61.5064C27.881 61.93 27.8611 62.3686 27.8385 62.9464V63.8601L30.0017 63.8155L29.9989 63.7162C29.9592 62.3707 30.0188 61.2507 30.1758 60.3885C30.3341 59.5187 30.5308 58.834 30.7604 58.3556C31.0449 57.8086 31.2697 57.4817 31.4904 57.2945C31.6501 57.1547 31.7824 57.0423 31.9057 56.9717C31.9763 56.9361 32.0565 56.8963 32.1107 56.8778C32.158 56.862 32.2046 56.8463 32.2382 56.8326L32.3965 62.6908L32.4184 63.7833L34.3335 63.7168L34.3348 63.699L34.3986 63.697V63.2446L34.2601 59.5564L34.1847 56.7798C34.1868 56.7805 34.1888 56.7812 34.1916 56.7818C34.2245 56.7921 34.2636 56.8038 34.3204 56.8223C34.3986 56.8381 34.4829 56.8867 34.5973 56.9628C34.6302 56.9875 34.6673 57.0128 34.7056 57.0389C34.7584 57.0752 34.8153 57.1136 34.864 57.1513C34.8838 57.1712 34.9106 57.1979 34.9579 57.2239C35.2115 57.4419 35.4815 57.7997 35.7392 58.2596C36.0107 58.7449 36.2471 59.4159 36.4425 60.2541C36.6385 61.115 36.7571 62.2288 36.7968 63.564L36.7996 63.662L38.9566 63.6181V63.5215C38.9545 63.3652 38.9545 63.2261 38.9346 63.0828Z" fill="url(#paint25_linear_1_1389)"/>
<path id="Vector_29" d="M8.38998 68.5807C8.15831 68.5807 7.90745 68.5595 7.64357 68.5163C6.95542 68.3834 6.26315 68.0749 5.58048 67.5992C4.86765 67.1023 4.19183 66.434 3.57017 65.6122C2.93479 64.7712 2.36384 63.7136 1.87377 62.4683C1.39467 61.2297 1.1205 60.0912 1.03551 58.987C0.952578 57.9096 1.01426 56.9863 1.22469 56.1652C1.44128 55.3208 1.74217 54.6525 2.14382 54.1234C2.55164 53.5874 3.04788 53.1939 3.58045 52.9856C3.99649 52.8314 4.42624 52.7539 4.86285 52.7539C5.06779 52.7539 5.27273 52.771 5.47355 52.806C6.11167 52.9157 6.70318 53.1323 7.23301 53.4503C7.7546 53.7635 8.21794 54.1741 8.57093 54.6381L8.71007 54.8211L7.36118 57.887L7.02396 56.9939C6.71483 56.1762 6.34745 55.5319 5.9321 55.0788C5.52359 54.6326 5.13496 54.3406 4.77855 54.2104C4.57566 54.1336 4.39403 54.0946 4.23433 54.0946C4.14454 54.0946 4.06298 54.1076 3.99238 54.1323C3.82582 54.196 3.64899 54.3653 3.49888 54.6059C3.3385 54.8622 3.23431 55.2605 3.17948 55.8239C3.12807 56.3585 3.18908 57.0734 3.37345 58.0734C3.54892 59.0083 3.9019 60.1577 4.42282 61.4895C4.91768 62.8027 5.42215 63.9035 5.9225 64.7644C6.40229 65.5711 6.85809 66.1743 7.27482 66.5554C7.67373 66.9193 8.01438 67.1489 8.31596 67.2565C8.48046 67.2833 8.6148 67.2956 8.72583 67.2956C8.84167 67.2956 8.93557 67.2812 9.01165 67.2524C9.19328 67.1873 9.36395 66.9892 9.51269 66.676C9.68952 66.3052 9.76972 65.7781 9.75258 65.1105C9.73407 64.4025 9.52845 63.5437 9.12406 62.4847L8.78546 61.5978L11.802 62.9686L11.8355 63.1742C11.9644 63.9693 11.9569 64.7178 11.8122 65.3984C11.6669 66.0838 11.39 66.702 10.9897 67.236C10.5922 67.7658 10.0898 68.1455 9.45306 68.3957C9.13434 68.5197 8.78615 68.5807 8.38998 68.5807Z" fill="url(#paint26_linear_1_1389)"/>
<path id="Vector_30" d="M11.6292 63.1L9.13161 61.965L9.30365 62.416C9.71558 63.4955 9.92531 64.3749 9.94451 65.1048C9.96301 65.8033 9.87596 66.3598 9.6861 66.7581C9.51201 67.1227 9.30981 67.3489 9.085 67.4291L9.08089 67.4305C8.89651 67.5017 8.6525 67.5052 8.26867 67.4428C7.9383 67.329 7.57024 67.085 7.14528 66.6971C6.71416 66.3036 6.24671 65.6854 5.75664 64.8615C5.25012 63.991 4.74154 62.8814 4.24394 61.5599C3.71822 60.2165 3.36181 59.0554 3.18429 58.1089C2.99717 57.0903 2.9348 56.3583 2.98826 55.8059C3.04584 55.2123 3.15961 54.7867 3.33576 54.505C3.51054 54.2253 3.71685 54.0334 3.92796 53.9525C4.16717 53.8675 4.48314 53.8936 4.84367 54.0313C5.22956 54.1718 5.64355 54.481 6.0733 54.9505C6.50579 55.422 6.88551 56.0876 7.20286 56.9279L7.37421 57.3816L8.48869 54.849L8.41809 54.7558C8.07881 54.311 7.63467 53.9169 7.13363 53.616C6.62437 53.3103 6.05479 53.1019 5.44066 52.9964C4.84573 52.8942 4.22749 52.9518 3.65037 53.1657C3.1507 53.361 2.68257 53.7332 2.29668 54.2411C1.91079 54.7496 1.62086 55.3946 1.41044 56.2144C1.20551 57.0142 1.14519 57.9169 1.22675 58.9738C1.31037 60.0595 1.58043 61.1802 2.05199 62.3995C2.53589 63.6292 3.09793 64.6717 3.72302 65.4983C4.33235 66.3036 4.99378 66.9582 5.69015 67.4435C6.35089 67.9041 7.01643 68.2015 7.67442 68.3283C7.92939 68.3695 8.16792 68.39 8.39068 68.39C8.76148 68.39 9.0898 68.3331 9.38384 68.218C9.98631 67.9808 10.462 67.6224 10.8369 67.122C11.2207 66.6107 11.486 66.0178 11.6251 65.3598C11.7643 64.7025 11.7718 63.978 11.6464 63.2063L11.6292 63.1Z" fill="url(#paint27_linear_1_1389)"/>
<g id="Group_12">
<path id="Vector_31" d="M12.0569 65.8173L12.4373 65.7132C12.4825 65.7008 12.6032 65.6679 12.7505 65.3903C12.8472 65.2094 12.9623 64.8564 12.9623 64.2066C12.9808 63.6329 12.8513 62.8214 12.5792 61.7899L12.2426 60.5219C11.743 58.6281 11.7327 57.1825 12.2111 56.225C12.7019 55.2442 13.586 54.5828 14.8403 54.2579L17.1193 53.6643L20.0714 64.9853L18.68 65.3328L16.046 55.1928L15.157 55.4292C14.9048 55.4992 14.6992 55.6595 14.5326 55.9179C14.3503 56.199 14.2584 56.6479 14.2584 57.2518C14.279 57.955 14.4318 58.8611 14.7005 59.8659L15.0377 61.1346C15.3037 62.1572 15.3729 63.0784 15.2441 63.8728C15.1138 64.6755 14.8232 65.3403 14.3804 65.8496C13.9431 66.3527 13.4003 66.6988 12.7663 66.8804L12.3914 66.9873L12.0569 65.8173Z" fill="url(#paint28_linear_1_1389)"/>
<path id="Vector_32" d="M14.8883 54.4444C13.6902 54.7542 12.8471 55.382 12.3831 56.3114C11.9259 57.2264 11.941 58.6261 12.4283 60.4733L12.7649 61.7413C13.0424 62.7913 13.1734 63.6193 13.1549 64.2074C13.1549 64.8976 13.0274 65.2807 12.9204 65.4816C12.7532 65.7955 12.5935 65.8702 12.4879 65.899L12.2947 65.9517L12.5229 66.7509L12.7134 66.6968C13.3111 66.5261 13.8231 66.1992 14.2357 65.7249C14.6545 65.243 14.9301 64.6097 15.0548 63.8434C15.1796 63.0751 15.1117 62.1806 14.8526 61.1847L14.5154 59.9167V59.916C14.2426 58.8968 14.087 57.9742 14.0664 57.2525C14.0664 56.6109 14.1693 56.1277 14.3715 55.8145C14.5654 55.515 14.8067 55.3285 15.1083 55.2449L16.1837 54.9591L18.8184 65.1018L19.8369 64.8475L16.9822 53.9001L14.8883 54.4444Z" fill="url(#paint29_linear_1_1389)"/>
</g>
<path id="Vector_33" d="M22.0084 70.9999C21.8268 70.9999 21.665 70.9718 21.5588 70.9505C21.3484 70.9081 21.2641 70.8875 21.2641 70.8875L21.0118 70.8244L20.4957 67.4549L21.336 68.2911C21.336 68.2911 21.4224 68.3768 21.5725 68.5482C21.7302 68.7051 21.8864 68.834 22.0701 68.956C22.1812 69.0369 22.2956 69.0732 22.4265 69.0732C22.4485 69.0732 22.4704 69.0718 22.4923 69.0705C22.7281 69.0321 22.981 68.8251 23.2106 68.4735C23.4965 68.0622 23.7151 67.3172 23.8645 66.2548L24.1243 64.5666L18.6554 53.3005L21.1661 52.9208L24.7672 60.2657L26.0092 52.1757L27.4506 51.9509L25.2909 66.2678C25.1284 67.3412 24.9214 68.2096 24.6747 68.847C24.4156 69.5153 24.1024 70.006 23.7172 70.346C23.3155 70.7004 22.8515 70.9067 22.299 70.9752C22.2127 70.991 22.1112 70.9999 22.0084 70.9999Z" fill="url(#paint30_linear_1_1389)"/>
<path id="Vector_34" d="M24.8646 60.8978L21.0558 53.1307L18.942 53.4508L24.3231 64.5359L24.0551 66.2783L24.0544 66.281C23.9009 67.3742 23.6727 68.1453 23.3711 68.5785C23.1072 68.9829 22.8125 69.2139 22.5088 69.2619C22.3046 69.2797 22.1236 69.2331 21.9626 69.1159C21.7679 68.9863 21.6 68.8472 21.4273 68.6745C21.2826 68.5093 21.2004 68.427 21.2004 68.427L20.7734 68.0021L21.1819 70.6697L21.3101 70.7019C21.3101 70.7019 21.3916 70.7225 21.5966 70.7636C21.7117 70.7869 21.8522 70.8095 22.0085 70.8095C22.0935 70.8095 22.1826 70.8027 22.2744 70.7862C22.7878 70.7225 23.2182 70.5312 23.5897 70.2036C23.9516 69.8842 24.2484 69.4181 24.4958 68.7786C24.7378 68.1535 24.9414 67.2995 25.1018 66.2399L27.2224 52.1814L26.1785 52.3445L24.8646 60.8978Z" fill="url(#paint31_linear_1_1389)"/>
<path id="Vector_35" d="M49.0513 64.4166L50.0822 57.7174L47.6236 57.3397L46.5934 64.0362L44.0972 63.6633L45.8813 52.1128L48.3755 52.4857L47.8203 56.1526L50.2789 56.5296L50.8341 52.8654L53.3304 53.2389L51.5469 64.7888L49.0513 64.4166Z" fill="url(#paint32_linear_1_1389)"/>
<path id="Vector_36" d="M50.9951 53.0831L50.4399 56.7487L47.6016 56.3135L48.1568 52.6465L46.0416 52.3306L44.3165 63.5021L46.4323 63.8181L47.4625 57.1209L50.3008 57.5561L49.2706 64.2547L51.3865 64.5706L53.111 53.3998L50.9951 53.0831Z" fill="url(#paint33_linear_1_1389)"/>
<path id="Vector_37" d="M57.4593 66.3243L59.2421 59.7862L56.8253 59.1371L55.0412 65.6766L52.6046 65.0172L55.6622 53.7422L58.0995 54.4016L57.129 57.9876L59.5457 58.6374L60.5169 55.05L62.9543 55.7093L59.8967 66.9843L57.4593 66.3243Z" fill="url(#paint34_linear_1_1389)"/>
<path id="Vector_38" d="M60.652 55.2848L59.6808 58.8723L56.8932 58.1231L57.8645 54.5363L55.7973 53.9771L52.8404 64.882L54.9069 65.4412L56.6904 58.9017L59.4779 59.6509L57.6945 66.1897L59.7617 66.749L62.7192 55.8441L60.652 55.2848Z" fill="url(#paint35_linear_1_1389)"/>
<path id="Vector_39" d="M64.8042 68.8878L67.2758 62.5532C67.1065 62.5827 66.9214 62.6375 66.8454 62.6595C66.5643 62.7376 66.2484 62.9247 65.7864 63.2859C65.382 63.617 64.9358 64.1413 64.4622 64.8418C63.9913 65.5389 63.5047 66.5266 63.016 67.7774L62.8741 68.1407L60.3237 67.1427L60.4669 66.7788C61.0091 65.4025 61.567 64.3703 62.1715 63.6245C62.7562 62.8781 63.3909 62.2969 64.005 61.946C64.6294 61.5799 65.1887 61.3695 65.7137 61.303C65.5328 61.1749 65.3676 61.0474 65.2141 60.9172C64.896 60.6245 64.6692 60.3181 64.5328 60.0008C64.3731 59.6279 64.371 59.2118 64.5259 58.7985C64.7137 58.3414 65.0078 58.0069 65.4026 57.7985C65.7144 57.6148 66.1181 57.5237 66.6295 57.5237C66.7398 57.5237 66.8563 57.5278 66.979 57.536C67.5993 57.5771 68.3958 57.7937 69.4143 58.1968L71.4054 58.9L67.1545 69.8042L64.8042 68.8878ZM67.8858 59.0364C67.748 59.0364 67.6212 59.0549 67.5088 59.0905C67.1846 59.1933 66.9797 59.3839 66.8632 59.6896C66.7419 60.0083 66.759 60.2804 66.9194 60.5717C67.0592 60.7917 67.3594 61.0241 67.77 61.2283L68.5829 59.1529C68.3211 59.0755 68.0873 59.0364 67.8858 59.0364Z" fill="url(#paint36_linear_1_1389)"/>
<path id="Vector_40" d="M69.3457 58.3762C68.3464 57.9807 67.5684 57.7682 66.968 57.7285C66.3175 57.6839 65.8467 57.7614 65.4944 57.969C65.1407 58.1562 64.8768 58.4564 64.7082 58.8676C64.5704 59.2343 64.5718 59.6003 64.7116 59.9266C64.837 60.2179 65.0461 60.501 65.3401 60.7724C65.5821 60.9773 65.8624 61.1829 66.1873 61.3906C66.2216 61.4084 66.2545 61.4263 66.2867 61.4434C66.1284 61.4516 65.9488 61.4687 65.7404 61.4948C65.2414 61.5572 64.7048 61.7601 64.1016 62.1137C63.5087 62.4523 62.8932 63.0178 62.3223 63.7464C61.7301 64.477 61.1824 65.4921 60.6471 66.8499L60.5745 67.035L62.7671 67.8931L62.8391 67.7087C63.3326 66.4448 63.8261 65.4441 64.3052 64.7354C64.7891 64.0192 65.2497 63.4804 65.6698 63.1357C66.1523 62.758 66.4875 62.5606 66.7925 62.4763C67.016 62.4105 67.3361 62.3248 67.5293 62.3447C67.541 62.3461 67.552 62.3468 67.5629 62.3481L65.0529 68.7794L67.0468 69.5573L71.1565 59.017L69.3457 58.3762ZM66.6835 59.6216C66.8206 59.2617 67.0715 59.028 67.4498 58.9074C67.5814 58.8656 67.7261 58.8443 67.8851 58.8443C68.1585 58.8443 68.4738 58.9067 68.8357 59.0328L67.8741 61.4893C67.3265 61.2467 66.9392 60.9609 66.7514 60.6641C66.5636 60.3234 66.5423 59.9924 66.6835 59.6216Z" fill="url(#paint37_linear_1_1389)"/>
<g id="Group_13">
<path id="Vector_41" d="M49.8335 8.63884C48.0727 10.3997 48.0727 13.2551 49.8335 15.0159C51.5943 16.7767 54.4497 16.7767 56.2106 15.0159C57.9714 13.2544 57.9714 10.3997 56.2106 8.63816C54.4497 6.87734 51.595 6.87734 49.8335 8.63884Z" fill="url(#paint38_radial_1_1389)"/>
<path id="Vector_42" d="M53.1489 11.1675C50.2798 14.0367 48.1063 16.5138 48.2935 16.7009C48.4806 16.888 50.9583 14.7146 53.8268 11.8454C56.6959 8.97628 58.8694 6.49921 58.6822 6.31209C58.4951 6.12428 56.0174 8.29841 53.1489 11.1675Z" fill="url(#paint39_radial_1_1389)"/>
<path id="Vector_43" d="M53.0741 11.1675C50.205 8.29834 47.7279 6.12489 47.5408 6.31201C47.3537 6.49913 49.5271 8.97689 52.3962 11.8453C55.2654 14.7145 57.7424 16.8879 57.9296 16.7008C58.1167 16.5137 55.9426 14.0359 53.0741 11.1675Z" fill="url(#paint40_radial_1_1389)"/>
</g>
<g id="Group_14">
<path id="Vector_44" d="M48.9369 46.491C47.6428 47.7844 47.6428 49.8824 48.9369 51.1758C50.2309 52.4699 52.3283 52.4699 53.6216 51.1758C54.9157 49.8818 54.9157 47.7844 53.6216 46.491C52.3283 45.1977 50.2309 45.1977 48.9369 46.491Z" fill="url(#paint41_radial_1_1389)"/>
<path id="Vector_45" d="M51.3727 48.3483C49.2651 50.4559 47.6681 52.2757 47.8058 52.4135C47.9436 52.5512 49.7634 50.9542 51.871 48.8466C53.9786 46.7389 55.5757 44.9192 55.4379 44.7814C55.3001 44.6443 53.4797 46.2406 51.3727 48.3483Z" fill="url(#paint42_radial_1_1389)"/>
<path id="Vector_46" d="M51.318 48.3484C49.2103 46.2407 47.3906 44.6437 47.2528 44.7815C47.115 44.9192 48.712 46.739 50.8197 48.8467C52.9273 50.9543 54.7471 52.5513 54.8848 52.4135C55.0219 52.2765 53.4249 50.456 51.318 48.3484Z" fill="url(#paint43_radial_1_1389)"/>
</g>
<g id="Group_15">
<path id="Vector_47" d="M10.9953 41.7616C9.70127 43.0549 9.70127 45.153 10.9953 46.4463C12.2894 47.7404 14.3867 47.7404 15.6801 46.4463C16.9742 45.1523 16.9742 43.0549 15.6801 41.7616C14.3861 40.4675 12.2887 40.4675 10.9953 41.7616Z" fill="url(#paint44_radial_1_1389)"/>
<path id="Vector_48" d="M13.4305 43.6191C11.3229 45.7268 9.72586 47.5465 9.86363 47.6843C10.0014 47.8221 11.8212 46.225 13.9288 44.1174C16.0364 42.0098 17.6335 40.19 17.4957 40.0522C17.3579 39.9145 15.5382 41.5115 13.4305 43.6191Z" fill="url(#paint45_radial_1_1389)"/>
<path id="Vector_49" d="M13.3758 43.6191C11.2681 41.5115 9.44836 39.9145 9.31059 40.0522C9.17282 40.19 10.7698 42.0098 12.8775 44.1174C14.9851 46.225 16.8049 47.8221 16.9426 47.6843C17.0804 47.5465 15.4827 45.7261 13.3758 43.6191Z" fill="url(#paint46_radial_1_1389)"/>
</g>
<g id="Group_16">
<path id="Vector_50" d="M36.557 3.3388C34.7962 5.09962 34.7962 7.95504 36.557 9.71586C38.3178 11.4767 41.1733 11.4767 42.9341 9.71586C44.6949 7.95436 44.6949 5.09962 42.9341 3.33811C41.1733 1.57729 38.3178 1.57729 36.557 3.3388Z" fill="url(#paint47_radial_1_1389)"/>
<path id="Vector_51" d="M39.8718 5.86668C37.0026 8.73582 34.8292 11.2129 35.0163 11.4C35.2034 11.5871 37.6812 9.41369 40.5496 6.54456C43.4181 3.67542 45.5922 1.19834 45.4051 1.01123C45.218 0.82411 42.7409 2.99823 39.8718 5.86668Z" fill="url(#paint48_radial_1_1389)"/>
<path id="Vector_52" d="M39.7969 5.86669C36.9278 2.99755 34.4507 0.824113 34.2636 1.01123C34.0765 1.19835 36.2499 3.67611 39.1191 6.54456C41.9882 9.41301 44.4653 11.5871 44.6524 11.4C44.8402 11.2136 42.6661 8.73582 39.7969 5.86669Z" fill="url(#paint49_radial_1_1389)"/>
</g>
<g id="Group_17">
<path id="Vector_53" d="M22.6136 8.16909C20.8528 9.92991 20.8528 12.7853 22.6136 14.5462C24.3745 16.307 27.2299 16.307 28.9907 14.5462C30.7515 12.7847 30.7515 9.92991 28.9907 8.16841C27.2299 6.40827 24.3745 6.40827 22.6136 8.16909Z" fill="url(#paint50_radial_1_1389)"/>
<path id="Vector_54" d="M25.9284 10.6975C23.0593 13.5666 20.8858 16.0437 21.0729 16.2308C21.2601 16.4179 23.7378 14.2445 26.6063 11.3754C29.4754 8.50623 31.6488 6.02916 31.4617 5.84204C31.2746 5.65492 28.7975 7.82905 25.9284 10.6975Z" fill="url(#paint51_radial_1_1389)"/>
<path id="Vector_55" d="M25.8536 10.6975C22.9844 7.82836 20.5074 5.65492 20.3203 5.84204C20.1331 6.02916 22.3066 8.50692 25.1757 11.3754C28.0448 14.2445 30.5219 16.4179 30.709 16.2308C30.8962 16.0437 28.7227 13.5666 25.8536 10.6975Z" fill="url(#paint52_radial_1_1389)"/>
</g>
</g>
</g>
</g>
</g>
<defs>
<linearGradient id="paint0_linear_1_1389" x1="20.8286" y1="39.1743" x2="23.5023" y2="68.585" gradientUnits="userSpaceOnUse">
<stop stop-color="white"/>
<stop offset="0.243" stop-color="#F3F3F3"/>
<stop offset="0.4091" stop-color="#7A7A7A"/>
<stop offset="0.6397" stop-color="#E0E0E0"/>
<stop offset="0.7458" stop-color="#7A7A7A"/>
<stop offset="1" stop-color="#BDBDBD"/>
</linearGradient>
<linearGradient id="paint1_linear_1_1389" x1="30.9623" y1="38.253" x2="33.636" y2="67.664" gradientUnits="userSpaceOnUse">
<stop stop-color="white"/>
<stop offset="0.243" stop-color="#F3F3F3"/>
<stop offset="0.4091" stop-color="#7A7A7A"/>
<stop offset="0.6397" stop-color="#E0E0E0"/>
<stop offset="0.7458" stop-color="#7A7A7A"/>
<stop offset="1" stop-color="#BDBDBD"/>
</linearGradient>
<linearGradient id="paint2_linear_1_1389" x1="28.1082" y1="38.5125" x2="30.7819" y2="67.9232" gradientUnits="userSpaceOnUse">
<stop stop-color="white"/>
<stop offset="0.243" stop-color="#F3F3F3"/>
<stop offset="0.4091" stop-color="#7A7A7A"/>
<stop offset="0.6397" stop-color="#E0E0E0"/>
<stop offset="0.7458" stop-color="#7A7A7A"/>
<stop offset="1" stop-color="#BDBDBD"/>
</linearGradient>
<linearGradient id="paint3_linear_1_1389" x1="43.9465" y1="37.0724" x2="46.6202" y2="66.4832" gradientUnits="userSpaceOnUse">
<stop stop-color="white"/>
<stop offset="0.243" stop-color="#F3F3F3"/>
<stop offset="0.4091" stop-color="#7A7A7A"/>
<stop offset="0.6397" stop-color="#E0E0E0"/>
<stop offset="0.7458" stop-color="#7A7A7A"/>
<stop offset="1" stop-color="#BDBDBD"/>
</linearGradient>
<linearGradient id="paint4_linear_1_1389" x1="35.3495" y1="37.8539" x2="38.0232" y2="67.2647" gradientUnits="userSpaceOnUse">
<stop stop-color="white"/>
<stop offset="0.243" stop-color="#F3F3F3"/>
<stop offset="0.4091" stop-color="#7A7A7A"/>
<stop offset="0.6397" stop-color="#E0E0E0"/>
<stop offset="0.7458" stop-color="#7A7A7A"/>
<stop offset="1" stop-color="#BDBDBD"/>
</linearGradient>
<linearGradient id="paint5_linear_1_1389" x1="59.9612" y1="67.1794" x2="51.0489" y2="-0.331608" gradientUnits="userSpaceOnUse">
<stop stop-color="#CBCACA"/>
<stop offset="0.00161899" stop-color="#C1C0C0"/>
<stop offset="0.0085292" stop-color="#9D9C9C"/>
<stop offset="0.0163" stop-color="#7D7C7C"/>
<stop offset="0.0249" stop-color="#616161"/>
<stop offset="0.0346" stop-color="#4B4B4B"/>
<stop offset="0.0459" stop-color="#3A3A3A"/>
<stop offset="0.0599" stop-color="#2F2F2F"/>
<stop offset="0.0795" stop-color="#282828"/>
<stop offset="0.1341" stop-color="#262626"/>
<stop offset="0.3156" stop-color="#121212"/>
<stop offset="0.5056" stop-color="#828282"/>
<stop offset="0.729" stop-color="#292929"/>
<stop offset="0.8408" stop-color="#969595"/>
<stop offset="1" stop-color="#4D4D4D"/>
</linearGradient>
<linearGradient id="paint6_linear_1_1389" x1="37.6188" y1="52.1233" x2="37.6534" y2="52.1233" gradientUnits="userSpaceOnUse">
<stop stop-color="#B5B6B5"/>
<stop offset="0.2039" stop-color="#F2F2F2"/>
<stop offset="0.5168" stop-color="#E1E1E1"/>
<stop offset="0.7291" stop-color="#D2D2D2"/>
<stop offset="1" stop-color="#C3C3C3"/>
</linearGradient>
<linearGradient id="paint7_linear_1_1389" x1="43.5232" y1="69.3496" x2="34.6109" y2="1.83855" gradientUnits="userSpaceOnUse">
<stop stop-color="#CBCACA"/>
<stop offset="0.00161899" stop-color="#C1C0C0"/>
<stop offset="0.0085292" stop-color="#9D9C9C"/>
<stop offset="0.0163" stop-color="#7D7C7C"/>
<stop offset="0.0249" stop-color="#616161"/>
<stop offset="0.0346" stop-color="#4B4B4B"/>
<stop offset="0.0459" stop-color="#3A3A3A"/>
<stop offset="0.0599" stop-color="#2F2F2F"/>
<stop offset="0.0795" stop-color="#282828"/>
<stop offset="0.1341" stop-color="#262626"/>
<stop offset="0.3156" stop-color="#121212"/>
<stop offset="0.5056" stop-color="#828282"/>
<stop offset="0.729" stop-color="#292929"/>
<stop offset="0.8408" stop-color="#969595"/>
<stop offset="1" stop-color="#4D4D4D"/>
</linearGradient>
<linearGradient id="paint8_linear_1_1389" x1="42.9026" y1="69.4313" x2="33.9903" y2="1.92035" gradientUnits="userSpaceOnUse">
<stop stop-color="#CBCACA"/>
<stop offset="0.00161899" stop-color="#C1C0C0"/>
<stop offset="0.0085292" stop-color="#9D9C9C"/>
<stop offset="0.0163" stop-color="#7D7C7C"/>
<stop offset="0.0249" stop-color="#616161"/>
<stop offset="0.0346" stop-color="#4B4B4B"/>
<stop offset="0.0459" stop-color="#3A3A3A"/>
<stop offset="0.0599" stop-color="#2F2F2F"/>
<stop offset="0.0795" stop-color="#282828"/>
<stop offset="0.1341" stop-color="#262626"/>
<stop offset="0.3156" stop-color="#121212"/>
<stop offset="0.5056" stop-color="#828282"/>
<stop offset="0.729" stop-color="#292929"/>
<stop offset="0.8408" stop-color="#969595"/>
<stop offset="1" stop-color="#4D4D4D"/>
</linearGradient>
<linearGradient id="paint9_linear_1_1389" x1="41.7027" y1="69.5907" x2="32.7901" y2="2.07864" gradientUnits="userSpaceOnUse">
<stop stop-color="#CBCACA"/>
<stop offset="0.00161899" stop-color="#C1C0C0"/>
<stop offset="0.0085292" stop-color="#9D9C9C"/>
<stop offset="0.0163" stop-color="#7D7C7C"/>
<stop offset="0.0249" stop-color="#616161"/>
<stop offset="0.0346" stop-color="#4B4B4B"/>
<stop offset="0.0459" stop-color="#3A3A3A"/>
<stop offset="0.0599" stop-color="#2F2F2F"/>
<stop offset="0.0795" stop-color="#282828"/>
<stop offset="0.1341" stop-color="#262626"/>
<stop offset="0.3156" stop-color="#121212"/>
<stop offset="0.5056" stop-color="#828282"/>
<stop offset="0.729" stop-color="#292929"/>
<stop offset="0.8408" stop-color="#969595"/>
<stop offset="1" stop-color="#4D4D4D"/>
</linearGradient>
<linearGradient id="paint10_linear_1_1389" x1="41.2805" y1="69.6459" x2="32.368" y2="2.13423" gradientUnits="userSpaceOnUse">
<stop stop-color="#CBCACA"/>
<stop offset="0.00161899" stop-color="#C1C0C0"/>
<stop offset="0.0085292" stop-color="#9D9C9C"/>
<stop offset="0.0163" stop-color="#7D7C7C"/>
<stop offset="0.0249" stop-color="#616161"/>
<stop offset="0.0346" stop-color="#4B4B4B"/>
<stop offset="0.0459" stop-color="#3A3A3A"/>
<stop offset="0.0599" stop-color="#2F2F2F"/>
<stop offset="0.0795" stop-color="#282828"/>
<stop offset="0.1341" stop-color="#262626"/>
<stop offset="0.3156" stop-color="#121212"/>
<stop offset="0.5056" stop-color="#828282"/>
<stop offset="0.729" stop-color="#292929"/>
<stop offset="0.8408" stop-color="#969595"/>
<stop offset="1" stop-color="#4D4D4D"/>
</linearGradient>
<linearGradient id="paint11_linear_1_1389" x1="43.9417" y1="69.2945" x2="35.0293" y2="1.78339" gradientUnits="userSpaceOnUse">
<stop stop-color="#CBCACA"/>
<stop offset="0.00161899" stop-color="#C1C0C0"/>
<stop offset="0.0085292" stop-color="#9D9C9C"/>
<stop offset="0.0163" stop-color="#7D7C7C"/>
<stop offset="0.0249" stop-color="#616161"/>
<stop offset="0.0346" stop-color="#4B4B4B"/>
<stop offset="0.0459" stop-color="#3A3A3A"/>
<stop offset="0.0599" stop-color="#2F2F2F"/>
<stop offset="0.0795" stop-color="#282828"/>
<stop offset="0.1341" stop-color="#262626"/>
<stop offset="0.3156" stop-color="#121212"/>
<stop offset="0.5056" stop-color="#828282"/>
<stop offset="0.729" stop-color="#292929"/>
<stop offset="0.8408" stop-color="#969595"/>
<stop offset="1" stop-color="#4D4D4D"/>
</linearGradient>
<linearGradient id="paint12_linear_1_1389" x1="21.2529" y1="72.2895" x2="12.3406" y2="4.77838" gradientUnits="userSpaceOnUse">
<stop stop-color="#CBCACA"/>
<stop offset="0.00161899" stop-color="#C1C0C0"/>
<stop offset="0.0085292" stop-color="#9D9C9C"/>
<stop offset="0.0163" stop-color="#7D7C7C"/>
<stop offset="0.0249" stop-color="#616161"/>
<stop offset="0.0346" stop-color="#4B4B4B"/>
<stop offset="0.0459" stop-color="#3A3A3A"/>
<stop offset="0.0599" stop-color="#2F2F2F"/>
<stop offset="0.0795" stop-color="#282828"/>
<stop offset="0.1341" stop-color="#262626"/>
<stop offset="0.3156" stop-color="#121212"/>
<stop offset="0.5056" stop-color="#828282"/>
<stop offset="0.729" stop-color="#292929"/>
<stop offset="0.8408" stop-color="#969595"/>
<stop offset="1" stop-color="#4D4D4D"/>
</linearGradient>
<linearGradient id="paint13_linear_1_1389" x1="21.4714" y1="72.2604" x2="12.559" y2="4.74941" gradientUnits="userSpaceOnUse">
<stop stop-color="#CBCACA"/>
<stop offset="0.00161899" stop-color="#C1C0C0"/>
<stop offset="0.0085292" stop-color="#9D9C9C"/>
<stop offset="0.0163" stop-color="#7D7C7C"/>
<stop offset="0.0249" stop-color="#616161"/>
<stop offset="0.0346" stop-color="#4B4B4B"/>
<stop offset="0.0459" stop-color="#3A3A3A"/>
<stop offset="0.0599" stop-color="#2F2F2F"/>
<stop offset="0.0795" stop-color="#282828"/>
<stop offset="0.1341" stop-color="#262626"/>
<stop offset="0.3156" stop-color="#121212"/>
<stop offset="0.5056" stop-color="#828282"/>
<stop offset="0.729" stop-color="#292929"/>
<stop offset="0.8408" stop-color="#969595"/>
<stop offset="1" stop-color="#4D4D4D"/>
</linearGradient>
<linearGradient id="paint14_linear_1_1389" x1="47.5804" y1="68.8138" x2="38.6681" y2="1.30273" gradientUnits="userSpaceOnUse">
<stop stop-color="#CBCACA"/>
<stop offset="0.00161899" stop-color="#C1C0C0"/>
<stop offset="0.0085292" stop-color="#9D9C9C"/>
<stop offset="0.0163" stop-color="#7D7C7C"/>
<stop offset="0.0249" stop-color="#616161"/>
<stop offset="0.0346" stop-color="#4B4B4B"/>
<stop offset="0.0459" stop-color="#3A3A3A"/>
<stop offset="0.0599" stop-color="#2F2F2F"/>
<stop offset="0.0795" stop-color="#282828"/>
<stop offset="0.1341" stop-color="#262626"/>
<stop offset="0.3156" stop-color="#121212"/>
<stop offset="0.5056" stop-color="#828282"/>
<stop offset="0.729" stop-color="#292929"/>
<stop offset="0.8408" stop-color="#969595"/>
<stop offset="1" stop-color="#4D4D4D"/>
</linearGradient>
<linearGradient id="paint15_linear_1_1389" x1="57.7216" y1="67.4751" x2="48.8092" y2="-0.0359079" gradientUnits="userSpaceOnUse">
<stop stop-color="#CBCACA"/>
<stop offset="0.00161899" stop-color="#C1C0C0"/>
<stop offset="0.0085292" stop-color="#9D9C9C"/>
<stop offset="0.0163" stop-color="#7D7C7C"/>
<stop offset="0.0249" stop-color="#616161"/>
<stop offset="0.0346" stop-color="#4B4B4B"/>
<stop offset="0.0459" stop-color="#3A3A3A"/>
<stop offset="0.0599" stop-color="#2F2F2F"/>
<stop offset="0.0795" stop-color="#282828"/>
<stop offset="0.1341" stop-color="#262626"/>
<stop offset="0.3156" stop-color="#121212"/>
<stop offset="0.5056" stop-color="#828282"/>
<stop offset="0.729" stop-color="#292929"/>
<stop offset="0.8408" stop-color="#969595"/>
<stop offset="1" stop-color="#4D4D4D"/>
</linearGradient>
<linearGradient id="paint16_linear_1_1389" x1="52.2553" y1="68.1967" x2="43.3429" y2="0.685613" gradientUnits="userSpaceOnUse">
<stop stop-color="#CBCACA"/>
<stop offset="0.00161899" stop-color="#C1C0C0"/>
<stop offset="0.0085292" stop-color="#9D9C9C"/>
<stop offset="0.0163" stop-color="#7D7C7C"/>
<stop offset="0.0249" stop-color="#616161"/>
<stop offset="0.0346" stop-color="#4B4B4B"/>
<stop offset="0.0459" stop-color="#3A3A3A"/>
<stop offset="0.0599" stop-color="#2F2F2F"/>
<stop offset="0.0795" stop-color="#282828"/>
<stop offset="0.1341" stop-color="#262626"/>
<stop offset="0.3156" stop-color="#121212"/>
<stop offset="0.5056" stop-color="#828282"/>
<stop offset="0.729" stop-color="#292929"/>
<stop offset="0.8408" stop-color="#969595"/>
<stop offset="1" stop-color="#4D4D4D"/>
</linearGradient>
<linearGradient id="paint17_linear_1_1389" x1="36.1837" y1="70.3184" x2="27.2713" y2="2.80737" gradientUnits="userSpaceOnUse">
<stop stop-color="#CBCACA"/>
<stop offset="0.00161899" stop-color="#C1C0C0"/>
<stop offset="0.0085292" stop-color="#9D9C9C"/>
<stop offset="0.0163" stop-color="#7D7C7C"/>
<stop offset="0.0249" stop-color="#616161"/>
<stop offset="0.0346" stop-color="#4B4B4B"/>
<stop offset="0.0459" stop-color="#3A3A3A"/>
<stop offset="0.0599" stop-color="#2F2F2F"/>
<stop offset="0.0795" stop-color="#282828"/>
<stop offset="0.1341" stop-color="#262626"/>
<stop offset="0.3156" stop-color="#121212"/>
<stop offset="0.5056" stop-color="#828282"/>
<stop offset="0.729" stop-color="#292929"/>
<stop offset="0.8408" stop-color="#969595"/>
<stop offset="1" stop-color="#4D4D4D"/>
</linearGradient>
<linearGradient id="paint18_linear_1_1389" x1="41.9552" y1="69.5564" x2="33.0428" y2="2.04537" gradientUnits="userSpaceOnUse">
<stop stop-color="#CBCACA"/>
<stop offset="0.00161899" stop-color="#C1C0C0"/>
<stop offset="0.0085292" stop-color="#9D9C9C"/>
<stop offset="0.0163" stop-color="#7D7C7C"/>
<stop offset="0.0249" stop-color="#616161"/>
<stop offset="0.0346" stop-color="#4B4B4B"/>
<stop offset="0.0459" stop-color="#3A3A3A"/>
<stop offset="0.0599" stop-color="#2F2F2F"/>
<stop offset="0.0795" stop-color="#282828"/>
<stop offset="0.1341" stop-color="#262626"/>
<stop offset="0.3156" stop-color="#121212"/>
<stop offset="0.5056" stop-color="#828282"/>
<stop offset="0.729" stop-color="#292929"/>
<stop offset="0.8408" stop-color="#969595"/>
<stop offset="1" stop-color="#4D4D4D"/>
</linearGradient>
<linearGradient id="paint19_linear_1_1389" x1="32.7026" y1="70.7779" x2="23.7903" y2="3.26689" gradientUnits="userSpaceOnUse">
<stop stop-color="#CBCACA"/>
<stop offset="0.00161899" stop-color="#C1C0C0"/>
<stop offset="0.0085292" stop-color="#9D9C9C"/>
<stop offset="0.0163" stop-color="#7D7C7C"/>
<stop offset="0.0249" stop-color="#616161"/>
<stop offset="0.0346" stop-color="#4B4B4B"/>
<stop offset="0.0459" stop-color="#3A3A3A"/>
<stop offset="0.0599" stop-color="#2F2F2F"/>
<stop offset="0.0795" stop-color="#282828"/>
<stop offset="0.1341" stop-color="#262626"/>
<stop offset="0.3156" stop-color="#121212"/>
<stop offset="0.5056" stop-color="#828282"/>
<stop offset="0.729" stop-color="#292929"/>
<stop offset="0.8408" stop-color="#969595"/>
<stop offset="1" stop-color="#4D4D4D"/>
</linearGradient>
<linearGradient id="paint20_linear_1_1389" x1="48.0023" y1="68.7583" x2="39.09" y2="1.2473" gradientUnits="userSpaceOnUse">
<stop stop-color="#CBCACA"/>
<stop offset="0.00161899" stop-color="#C1C0C0"/>
<stop offset="0.0085292" stop-color="#9D9C9C"/>
<stop offset="0.0163" stop-color="#7D7C7C"/>
<stop offset="0.0249" stop-color="#616161"/>
<stop offset="0.0346" stop-color="#4B4B4B"/>
<stop offset="0.0459" stop-color="#3A3A3A"/>
<stop offset="0.0599" stop-color="#2F2F2F"/>
<stop offset="0.0795" stop-color="#282828"/>
<stop offset="0.1341" stop-color="#262626"/>
<stop offset="0.3156" stop-color="#121212"/>
<stop offset="0.5056" stop-color="#828282"/>
<stop offset="0.729" stop-color="#292929"/>
<stop offset="0.8408" stop-color="#969595"/>
<stop offset="1" stop-color="#4D4D4D"/>
</linearGradient>
<linearGradient id="paint21_linear_1_1389" x1="-1.1409" y1="47.0037" x2="73.5743" y2="51.9055" gradientUnits="userSpaceOnUse">
<stop stop-color="#CBCACA"/>
<stop offset="0.0109" stop-color="#ADADAD"/>
<stop offset="0.0268" stop-color="#898888"/>
<stop offset="0.0447" stop-color="#696868"/>
<stop offset="0.0644" stop-color="#4D4D4D"/>
<stop offset="0.0867" stop-color="#373737"/>
<stop offset="0.1128" stop-color="#262626"/>
<stop offset="0.145" stop-color="#1B1B1B"/>
<stop offset="0.1902" stop-color="#141414"/>
<stop offset="0.3156" stop-color="#121212"/>
<stop offset="0.5056" stop-color="#828282"/>
<stop offset="0.729" stop-color="#292929"/>
<stop offset="0.8408" stop-color="#969595"/>
<stop offset="0.9899" stop-color="#CBCACA"/>
</linearGradient>
<linearGradient id="paint22_linear_1_1389" x1="-1.65425" y1="54.8285" x2="73.0609" y2="59.7302" gradientUnits="userSpaceOnUse">
<stop stop-color="#CBCACA"/>
<stop offset="0.0109" stop-color="#ADADAD"/>
<stop offset="0.0268" stop-color="#898888"/>
<stop offset="0.0447" stop-color="#696868"/>
<stop offset="0.0644" stop-color="#4D4D4D"/>
<stop offset="0.0867" stop-color="#373737"/>
<stop offset="0.1128" stop-color="#262626"/>
<stop offset="0.145" stop-color="#1B1B1B"/>
<stop offset="0.1902" stop-color="#141414"/>
<stop offset="0.3156" stop-color="#121212"/>
<stop offset="0.5056" stop-color="#828282"/>
<stop offset="0.729" stop-color="#292929"/>
<stop offset="0.8408" stop-color="#969595"/>
<stop offset="0.9899" stop-color="#CBCACA"/>
</linearGradient>
<linearGradient id="paint23_linear_1_1389" x1="42.0857" y1="282.609" x2="42.0857" y2="-101.579" gradientUnits="userSpaceOnUse">
<stop stop-color="#CBCACA"/>
<stop offset="0.0109" stop-color="#ADADAD"/>
<stop offset="0.0268" stop-color="#898888"/>
<stop offset="0.0447" stop-color="#696868"/>
<stop offset="0.0644" stop-color="#4D4D4D"/>
<stop offset="0.0867" stop-color="#373737"/>
<stop offset="0.1128" stop-color="#262626"/>
<stop offset="0.145" stop-color="#1B1B1B"/>
<stop offset="0.1902" stop-color="#141414"/>
<stop offset="0.3156" stop-color="#121212"/>
<stop offset="0.5056" stop-color="#828282"/>
<stop offset="0.729" stop-color="#292929"/>
<stop offset="0.8408" stop-color="#969595"/>
<stop offset="0.9899" stop-color="#CBCACA"/>
</linearGradient>
<linearGradient id="paint24_linear_1_1389" x1="-1.72537" y1="55.9114" x2="72.9898" y2="60.8132" gradientUnits="userSpaceOnUse">
<stop stop-color="#CBCACA"/>
<stop offset="0.0109" stop-color="#ADADAD"/>
<stop offset="0.0268" stop-color="#898888"/>
<stop offset="0.0447" stop-color="#696868"/>
<stop offset="0.0644" stop-color="#4D4D4D"/>
<stop offset="0.0867" stop-color="#373737"/>
<stop offset="0.1128" stop-color="#262626"/>
<stop offset="0.145" stop-color="#1B1B1B"/>
<stop offset="0.1902" stop-color="#141414"/>
<stop offset="0.3156" stop-color="#121212"/>
<stop offset="0.5056" stop-color="#828282"/>
<stop offset="0.729" stop-color="#292929"/>
<stop offset="0.8408" stop-color="#969595"/>
<stop offset="0.9899" stop-color="#CBCACA"/>
</linearGradient>
<linearGradient id="paint25_linear_1_1389" x1="33.3963" y1="93.3511" x2="33.3963" y2="18.9354" gradientUnits="userSpaceOnUse">
<stop stop-color="#CBCACA"/>
<stop offset="0.0109" stop-color="#ADADAD"/>
<stop offset="0.0268" stop-color="#898888"/>
<stop offset="0.0447" stop-color="#696868"/>
<stop offset="0.0644" stop-color="#4D4D4D"/>
<stop offset="0.0867" stop-color="#373737"/>
<stop offset="0.1128" stop-color="#262626"/>
<stop offset="0.145" stop-color="#1B1B1B"/>
<stop offset="0.1902" stop-color="#141414"/>
<stop offset="0.3156" stop-color="#121212"/>
<stop offset="0.5056" stop-color="#828282"/>
<stop offset="0.729" stop-color="#292929"/>
<stop offset="0.8408" stop-color="#969595"/>
<stop offset="0.9899" stop-color="#CBCACA"/>
</linearGradient>
<linearGradient id="paint26_linear_1_1389" x1="-2.0002" y1="60.1015" x2="72.715" y2="65.0033" gradientUnits="userSpaceOnUse">
<stop stop-color="#CBCACA"/>
<stop offset="0.0109" stop-color="#ADADAD"/>
<stop offset="0.0268" stop-color="#898888"/>
<stop offset="0.0447" stop-color="#696868"/>
<stop offset="0.0644" stop-color="#4D4D4D"/>
<stop offset="0.0867" stop-color="#373737"/>
<stop offset="0.1128" stop-color="#262626"/>
<stop offset="0.145" stop-color="#1B1B1B"/>
<stop offset="0.1902" stop-color="#141414"/>
<stop offset="0.3156" stop-color="#121212"/>
<stop offset="0.5056" stop-color="#828282"/>
<stop offset="0.729" stop-color="#292929"/>
<stop offset="0.8408" stop-color="#969595"/>
<stop offset="0.9899" stop-color="#CBCACA"/>
</linearGradient>
<linearGradient id="paint27_linear_1_1389" x1="6.46319" y1="72.664" x2="6.46319" y2="-32.8669" gradientUnits="userSpaceOnUse">
<stop stop-color="#CBCACA"/>
<stop offset="0.0109" stop-color="#ADADAD"/>
<stop offset="0.0268" stop-color="#898888"/>
<stop offset="0.0447" stop-color="#696868"/>
<stop offset="0.0644" stop-color="#4D4D4D"/>
<stop offset="0.0867" stop-color="#373737"/>
<stop offset="0.1128" stop-color="#262626"/>
<stop offset="0.145" stop-color="#1B1B1B"/>
<stop offset="0.1902" stop-color="#141414"/>
<stop offset="0.3156" stop-color="#121212"/>
<stop offset="0.5056" stop-color="#828282"/>
<stop offset="0.729" stop-color="#292929"/>
<stop offset="0.8408" stop-color="#969595"/>
<stop offset="0.9899" stop-color="#CBCACA"/>
</linearGradient>
<linearGradient id="paint28_linear_1_1389" x1="15.9659" y1="88.0191" x2="15.9659" y2="-27.1015" gradientUnits="userSpaceOnUse">
<stop stop-color="#CBCACA"/>
<stop offset="0.0109" stop-color="#ADADAD"/>
<stop offset="0.0268" stop-color="#898888"/>
<stop offset="0.0447" stop-color="#696868"/>
<stop offset="0.0644" stop-color="#4D4D4D"/>
<stop offset="0.0867" stop-color="#373737"/>
<stop offset="0.1128" stop-color="#262626"/>
<stop offset="0.145" stop-color="#1B1B1B"/>
<stop offset="0.1902" stop-color="#141414"/>
<stop offset="0.3156" stop-color="#121212"/>
<stop offset="0.5056" stop-color="#828282"/>
<stop offset="0.729" stop-color="#292929"/>
<stop offset="0.8408" stop-color="#969595"/>
<stop offset="0.9899" stop-color="#CBCACA"/>
</linearGradient>
<linearGradient id="paint29_linear_1_1389" x1="15.944" y1="88.4067" x2="15.944" y2="-28.5007" gradientUnits="userSpaceOnUse">
<stop stop-color="#CBCACA"/>
<stop offset="0.0109" stop-color="#ADADAD"/>
<stop offset="0.0268" stop-color="#898888"/>
<stop offset="0.0447" stop-color="#696868"/>
<stop offset="0.0644" stop-color="#4D4D4D"/>
<stop offset="0.0867" stop-color="#373737"/>
<stop offset="0.1128" stop-color="#262626"/>
<stop offset="0.145" stop-color="#1B1B1B"/>
<stop offset="0.1902" stop-color="#141414"/>
<stop offset="0.3156" stop-color="#121212"/>
<stop offset="0.5056" stop-color="#828282"/>
<stop offset="0.729" stop-color="#292929"/>
<stop offset="0.8408" stop-color="#969595"/>
<stop offset="0.9899" stop-color="#CBCACA"/>
</linearGradient>
<linearGradient id="paint30_linear_1_1389" x1="-1.97549" y1="59.7247" x2="72.7397" y2="64.6265" gradientUnits="userSpaceOnUse">
<stop stop-color="#CBCACA"/>
<stop offset="0.0109" stop-color="#ADADAD"/>
<stop offset="0.0268" stop-color="#898888"/>
<stop offset="0.0447" stop-color="#696868"/>
<stop offset="0.0644" stop-color="#4D4D4D"/>
<stop offset="0.0867" stop-color="#373737"/>
<stop offset="0.1128" stop-color="#262626"/>
<stop offset="0.145" stop-color="#1B1B1B"/>
<stop offset="0.1902" stop-color="#141414"/>
<stop offset="0.3156" stop-color="#121212"/>
<stop offset="0.5056" stop-color="#828282"/>
<stop offset="0.729" stop-color="#292929"/>
<stop offset="0.8408" stop-color="#969595"/>
<stop offset="0.9899" stop-color="#CBCACA"/>
</linearGradient>
<linearGradient id="paint31_linear_1_1389" x1="23.0824" y1="117.413" x2="23.0824" y2="-53.1233" gradientUnits="userSpaceOnUse">
<stop stop-color="#CBCACA"/>
<stop offset="0.0109" stop-color="#ADADAD"/>
<stop offset="0.0268" stop-color="#898888"/>
<stop offset="0.0447" stop-color="#696868"/>
<stop offset="0.0644" stop-color="#4D4D4D"/>
<stop offset="0.0867" stop-color="#373737"/>
<stop offset="0.1128" stop-color="#262626"/>
<stop offset="0.145" stop-color="#1B1B1B"/>
<stop offset="0.1902" stop-color="#141414"/>
<stop offset="0.3156" stop-color="#121212"/>
<stop offset="0.5056" stop-color="#828282"/>
<stop offset="0.729" stop-color="#292929"/>
<stop offset="0.8408" stop-color="#969595"/>
<stop offset="0.9899" stop-color="#CBCACA"/>
</linearGradient>
<linearGradient id="paint32_linear_1_1389" x1="-1.67507" y1="55.145" x2="73.0401" y2="60.0468" gradientUnits="userSpaceOnUse">
<stop stop-color="#CBCACA"/>
<stop offset="0.0109" stop-color="#ADADAD"/>
<stop offset="0.0268" stop-color="#898888"/>
<stop offset="0.0447" stop-color="#696868"/>
<stop offset="0.0644" stop-color="#4D4D4D"/>
<stop offset="0.0867" stop-color="#373737"/>
<stop offset="0.1128" stop-color="#262626"/>
<stop offset="0.145" stop-color="#1B1B1B"/>
<stop offset="0.1902" stop-color="#141414"/>
<stop offset="0.3156" stop-color="#121212"/>
<stop offset="0.5056" stop-color="#828282"/>
<stop offset="0.729" stop-color="#292929"/>
<stop offset="0.8408" stop-color="#969595"/>
<stop offset="0.9899" stop-color="#CBCACA"/>
</linearGradient>
<linearGradient id="paint33_linear_1_1389" x1="48.7138" y1="134.623" x2="48.7138" y2="21.6771" gradientUnits="userSpaceOnUse">
<stop stop-color="#CBCACA"/>
<stop offset="0.0109" stop-color="#ADADAD"/>
<stop offset="0.0268" stop-color="#898888"/>
<stop offset="0.0447" stop-color="#696868"/>
<stop offset="0.0644" stop-color="#4D4D4D"/>
<stop offset="0.0867" stop-color="#373737"/>
<stop offset="0.1128" stop-color="#262626"/>
<stop offset="0.145" stop-color="#1B1B1B"/>
<stop offset="0.1902" stop-color="#141414"/>
<stop offset="0.3156" stop-color="#121212"/>
<stop offset="0.5056" stop-color="#828282"/>
<stop offset="0.729" stop-color="#292929"/>
<stop offset="0.8408" stop-color="#969595"/>
<stop offset="0.9899" stop-color="#CBCACA"/>
</linearGradient>
<linearGradient id="paint34_linear_1_1389" x1="-1.76109" y1="56.457" x2="72.9541" y2="61.3588" gradientUnits="userSpaceOnUse">
<stop stop-color="#CBCACA"/>
<stop offset="0.0109" stop-color="#ADADAD"/>
<stop offset="0.0268" stop-color="#898888"/>
<stop offset="0.0447" stop-color="#696868"/>
<stop offset="0.0644" stop-color="#4D4D4D"/>
<stop offset="0.0867" stop-color="#373737"/>
<stop offset="0.1128" stop-color="#262626"/>
<stop offset="0.145" stop-color="#1B1B1B"/>
<stop offset="0.1902" stop-color="#141414"/>
<stop offset="0.3156" stop-color="#121212"/>
<stop offset="0.5056" stop-color="#828282"/>
<stop offset="0.729" stop-color="#292929"/>
<stop offset="0.8408" stop-color="#969595"/>
<stop offset="0.9899" stop-color="#CBCACA"/>
</linearGradient>
<linearGradient id="paint35_linear_1_1389" x1="57.7796" y1="142.607" x2="57.7796" y2="39.4024" gradientUnits="userSpaceOnUse">
<stop stop-color="#CBCACA"/>
<stop offset="0.0109" stop-color="#ADADAD"/>
<stop offset="0.0268" stop-color="#898888"/>
<stop offset="0.0447" stop-color="#696868"/>
<stop offset="0.0644" stop-color="#4D4D4D"/>
<stop offset="0.0867" stop-color="#373737"/>
<stop offset="0.1128" stop-color="#262626"/>
<stop offset="0.145" stop-color="#1B1B1B"/>
<stop offset="0.1902" stop-color="#141414"/>
<stop offset="0.3156" stop-color="#121212"/>
<stop offset="0.5056" stop-color="#828282"/>
<stop offset="0.729" stop-color="#292929"/>
<stop offset="0.8408" stop-color="#969595"/>
<stop offset="0.9899" stop-color="#CBCACA"/>
</linearGradient>
<linearGradient id="paint36_linear_1_1389" x1="-1.9373" y1="59.1438" x2="72.7779" y2="64.0456" gradientUnits="userSpaceOnUse">
<stop stop-color="#CBCACA"/>
<stop offset="0.0109" stop-color="#ADADAD"/>
<stop offset="0.0268" stop-color="#898888"/>
<stop offset="0.0447" stop-color="#696868"/>
<stop offset="0.0644" stop-color="#4D4D4D"/>
<stop offset="0.0867" stop-color="#373737"/>
<stop offset="0.1128" stop-color="#262626"/>
<stop offset="0.145" stop-color="#1B1B1B"/>
<stop offset="0.1902" stop-color="#141414"/>
<stop offset="0.3156" stop-color="#121212"/>
<stop offset="0.5056" stop-color="#828282"/>
<stop offset="0.729" stop-color="#292929"/>
<stop offset="0.8408" stop-color="#969595"/>
<stop offset="0.9899" stop-color="#CBCACA"/>
</linearGradient>
<linearGradient id="paint37_linear_1_1389" x1="91.3963" y1="42.7036" x2="50.9733" y2="76.5461" gradientUnits="userSpaceOnUse">
<stop stop-color="#CBCACA"/>
<stop offset="0.0109" stop-color="#ADADAD"/>
<stop offset="0.0268" stop-color="#898888"/>
<stop offset="0.0447" stop-color="#696868"/>
<stop offset="0.0644" stop-color="#4D4D4D"/>
<stop offset="0.0867" stop-color="#373737"/>
<stop offset="0.1128" stop-color="#262626"/>
<stop offset="0.145" stop-color="#1B1B1B"/>
<stop offset="0.1902" stop-color="#141414"/>
<stop offset="0.3156" stop-color="#121212"/>
<stop offset="0.5056" stop-color="#828282"/>
<stop offset="0.729" stop-color="#292929"/>
<stop offset="0.8408" stop-color="#969595"/>
<stop offset="0.9899" stop-color="#CBCACA"/>
</linearGradient>
<radialGradient id="paint38_radial_1_1389" cx="0" cy="0" r="1" gradientUnits="userSpaceOnUse" gradientTransform="translate(53.0224 11.8273) rotate(-135) scale(4.50949)">
<stop stop-color="white"/>
<stop offset="0.2808" stop-color="#F8F8F8" stop-opacity="0.6635"/>
<stop offset="0.8266" stop-color="#EEEEEE" stop-opacity="0.01"/>
<stop offset="1" stop-color="#EEEEEE" stop-opacity="0"/>
</radialGradient>
<radialGradient id="paint39_radial_1_1389" cx="0" cy="0" r="1" gradientUnits="userSpaceOnUse" gradientTransform="translate(53.357 11.3382) rotate(-63.9984) scale(6.38675 0.185855)">
<stop stop-color="white"/>
<stop offset="0.804" stop-color="#EEEEEE" stop-opacity="0"/>
<stop offset="1" stop-color="#EEEEEE" stop-opacity="0"/>
</radialGradient>
<radialGradient id="paint40_radial_1_1389" cx="0" cy="0" r="1" gradientUnits="userSpaceOnUse" gradientTransform="translate(52.9042 11.3676) rotate(26.0016) scale(6.38675 0.185855)">
<stop stop-color="white"/>
<stop offset="0.804" stop-color="#EEEEEE" stop-opacity="0"/>
<stop offset="1" stop-color="#EEEEEE" stop-opacity="0"/>
</radialGradient>
<radialGradient id="paint41_radial_1_1389" cx="0" cy="0" r="1" gradientUnits="userSpaceOnUse" gradientTransform="translate(51.2797 48.8338) rotate(-135) scale(3.3128)">
<stop stop-color="white"/>
<stop offset="0.2808" stop-color="#F8F8F8" stop-opacity="0.6635"/>
<stop offset="0.8266" stop-color="#EEEEEE" stop-opacity="0.01"/>
<stop offset="1" stop-color="#EEEEEE" stop-opacity="0"/>
</radialGradient>
<radialGradient id="paint42_radial_1_1389" cx="0" cy="0" r="1" gradientUnits="userSpaceOnUse" gradientTransform="translate(51.5265 48.4735) rotate(-63.9984) scale(4.69189 0.136534)">
<stop stop-color="white"/>
<stop offset="0.804" stop-color="#EEEEEE" stop-opacity="0"/>
<stop offset="1" stop-color="#EEEEEE" stop-opacity="0"/>
</radialGradient>
<radialGradient id="paint43_radial_1_1389" cx="0" cy="0" r="1" gradientUnits="userSpaceOnUse" gradientTransform="translate(51.1913 48.4938) rotate(26.0016) scale(4.69189 0.136534)">
<stop stop-color="white"/>
<stop offset="0.804" stop-color="#EEEEEE" stop-opacity="0"/>
<stop offset="1" stop-color="#EEEEEE" stop-opacity="0"/>
</radialGradient>
<radialGradient id="paint44_radial_1_1389" cx="0" cy="0" r="1" gradientUnits="userSpaceOnUse" gradientTransform="translate(13.3375 44.1038) rotate(-135) scale(3.3128)">
<stop stop-color="white"/>
<stop offset="0.2808" stop-color="#F8F8F8" stop-opacity="0.6635"/>
<stop offset="0.8266" stop-color="#EEEEEE" stop-opacity="0.01"/>
<stop offset="1" stop-color="#EEEEEE" stop-opacity="0"/>
</radialGradient>
<radialGradient id="paint45_radial_1_1389" cx="0" cy="0" r="1" gradientUnits="userSpaceOnUse" gradientTransform="translate(13.5842 43.7424) rotate(-63.9984) scale(4.69189 0.136534)">
<stop stop-color="white"/>
<stop offset="0.804" stop-color="#EEEEEE" stop-opacity="0"/>
<stop offset="1" stop-color="#EEEEEE" stop-opacity="0"/>
</radialGradient>
<radialGradient id="paint46_radial_1_1389" cx="0" cy="0" r="1" gradientUnits="userSpaceOnUse" gradientTransform="translate(13.2503 43.7653) rotate(26.0016) scale(4.69189 0.136534)">
<stop stop-color="white"/>
<stop offset="0.804" stop-color="#EEEEEE" stop-opacity="0"/>
<stop offset="1" stop-color="#EEEEEE" stop-opacity="0"/>
</radialGradient>
<radialGradient id="paint47_radial_1_1389" cx="0" cy="0" r="1" gradientUnits="userSpaceOnUse" gradientTransform="translate(39.7456 6.52715) rotate(-135) scale(4.50949)">
<stop stop-color="white"/>
<stop offset="0.2808" stop-color="#F8F8F8" stop-opacity="0.6635"/>
<stop offset="0.8266" stop-color="#EEEEEE" stop-opacity="0.01"/>
<stop offset="1" stop-color="#EEEEEE" stop-opacity="0"/>
</radialGradient>
<radialGradient id="paint48_radial_1_1389" cx="0" cy="0" r="1" gradientUnits="userSpaceOnUse" gradientTransform="translate(40.0801 6.03753) rotate(-63.9984) scale(6.38675 0.185855)">
<stop stop-color="white"/>
<stop offset="0.804" stop-color="#EEEEEE" stop-opacity="0"/>
<stop offset="1" stop-color="#EEEEEE" stop-opacity="0"/>
</radialGradient>
<radialGradient id="paint49_radial_1_1389" cx="0" cy="0" r="1" gradientUnits="userSpaceOnUse" gradientTransform="translate(39.628 6.06783) rotate(26.0016) scale(6.38675 0.185855)">
<stop stop-color="white"/>
<stop offset="0.804" stop-color="#EEEEEE" stop-opacity="0"/>
<stop offset="1" stop-color="#EEEEEE" stop-opacity="0"/>
</radialGradient>
<radialGradient id="paint50_radial_1_1389" cx="0" cy="0" r="1" gradientUnits="userSpaceOnUse" gradientTransform="translate(25.802 11.358) rotate(-135) scale(4.50949)">
<stop stop-color="white"/>
<stop offset="0.2808" stop-color="#F8F8F8" stop-opacity="0.6635"/>
<stop offset="0.8266" stop-color="#EEEEEE" stop-opacity="0.01"/>
<stop offset="1" stop-color="#EEEEEE" stop-opacity="0"/>
</radialGradient>
<radialGradient id="paint51_radial_1_1389" cx="0" cy="0" r="1" gradientUnits="userSpaceOnUse" gradientTransform="translate(26.1367 10.8675) rotate(-63.9984) scale(6.38675 0.185855)">
<stop stop-color="white"/>
<stop offset="0.804" stop-color="#EEEEEE" stop-opacity="0"/>
<stop offset="1" stop-color="#EEEEEE" stop-opacity="0"/>
</radialGradient>
<radialGradient id="paint52_radial_1_1389" cx="0" cy="0" r="1" gradientUnits="userSpaceOnUse" gradientTransform="translate(25.6846 10.899) rotate(26.0016) scale(6.38675 0.185855)">
<stop stop-color="white"/>
<stop offset="0.804" stop-color="#EEEEEE" stop-opacity="0"/>
<stop offset="1" stop-color="#EEEEEE" stop-opacity="0"/>
</radialGradient>
</defs>
</svg>
