<svg width="448" height="285" viewBox="0 0 448 285" fill="none" xmlns="http://www.w3.org/2000/svg">
<path d="M204.915 141.382C176.429 139.145 152.082 139.576 158.64 159.831C153.02 156.622 149.561 151.044 147.79 143.577C143.511 147.89 139.802 153.593 137.384 162.651C132.293 156.406 130.848 149.335 131.98 141.632C125.736 146.612 121.304 155.163 118.935 167.84L116.754 133.387C108.086 148.668 97.9512 155.128 86.5178 153.781C93.1514 145.89 98.9028 137.895 103.807 129.823C97.1941 129.143 89.7686 133.477 81.5444 142.618C79.273 133.887 81.4055 125.899 91.1718 119.189C81.079 119.696 74.1398 122.593 69.6248 127.316C69.3539 117.772 74.369 111.277 82.8294 106.741C64.964 107.13 49.3282 104.31 36.3806 97.7809C47.5778 96.864 55.6908 94.162 61.2269 90.0221C37.5058 85.7849 18.2789 74.4696 6.45658 51.5265C18.3762 61.1122 32.0462 65.3285 49.5643 65.7175C34.0883 59.8064 -1.64957 54.2077 0.059184 2.52148C9.86019 31.1396 28.2744 43.1217 49.4254 48.8731C49.8561 48.9912 50.2589 49.0885 50.6896 49.2065C51.3703 49.3802 52.0302 49.5538 52.7109 49.7136H52.7318C61.3242 51.7766 70.3125 52.9435 79.2938 53.8326C87.5736 54.6662 95.8395 55.3122 103.835 56.2847C104.904 56.4027 105.953 56.5347 107.023 56.6736C107.002 56.7292 106.967 56.7917 106.946 56.8473C106.113 58.7158 107.023 56.6736 107.023 56.6736L119.581 59.1812C119.526 59.2784 119.637 59.0839 119.581 59.1812L122.5 59.9999L134.398 63.4739C134.398 63.4739 134.398 63.4739 133.814 64.0018C134.009 63.8282 134.203 63.6684 134.398 63.4739C135.78 64.0574 137.12 64.6964 138.426 65.3771C147.644 70.2394 155.208 77.5676 160.203 89.0427C175.942 125.26 193.169 137.492 204.915 141.382Z" fill="url(#paint0_linear_11_2174)"/>
<path d="M219.107 142.625C219.107 142.625 213.467 144.223 204.909 141.382C209.577 141.75 214.342 142.202 219.107 142.625Z" fill="url(#paint1_linear_11_2174)"/>
<path d="M222.997 162.114C218.996 239.432 193.462 256.179 156.89 241.884C166.08 238.577 174.943 230.166 183.522 217.336C173.193 225.498 162.676 227.512 151.979 223.998C164.163 218.83 171.901 213.46 175.999 207.938C166.094 211.71 155.841 213.432 151.042 209.008C151.042 209.008 173.415 200.339 176.284 177.917C178.736 158.752 221.83 150.306 221.83 150.306L222.997 162.114Z" fill="url(#paint2_linear_11_2174)"/>
<path d="M228.607 140.097C228.607 140.097 244.326 150.856 271.541 88.2716C298.756 25.6869 418.785 84.4443 447.674 0C449.369 51.6932 413.638 57.2779 398.162 63.196C415.694 62.8071 429.344 58.5977 441.27 49.005C429.448 71.9551 410.221 83.2635 386.493 87.5075C392.043 91.6613 400.149 94.3495 411.353 95.2664C398.391 101.81 382.77 104.616 364.89 104.227C373.351 108.756 378.366 115.264 378.088 124.808C373.58 120.078 366.648 117.181 356.548 116.674C366.314 123.391 368.454 131.379 366.168 140.104C357.951 130.976 350.519 126.642 343.906 127.316C348.81 135.387 354.554 143.375 361.188 151.259C349.762 152.614 339.627 146.161 330.958 130.865L328.784 165.332C326.409 152.662 321.97 144.105 315.739 139.117C316.865 146.821 315.413 153.906 310.321 160.136C307.925 151.086 304.202 145.383 299.93 141.069C298.159 148.529 294.686 154.107 289.073 157.316C296.7 133.741 262.504 137.02 228.607 140.097Z" fill="url(#paint3_linear_11_2174)"/>
<path d="M224.724 159.594C228.725 236.911 254.259 253.658 290.831 239.363C281.641 236.057 272.778 227.645 264.199 214.815C274.528 222.977 285.045 224.992 295.742 221.477C283.558 216.309 275.82 210.939 271.722 205.417C281.627 209.189 291.88 210.912 296.679 206.487C296.679 206.487 274.306 197.818 271.437 175.396C268.985 156.232 225.891 147.785 225.891 147.785L224.724 159.594Z" fill="url(#paint4_linear_11_2174)"/>
<defs>
<linearGradient id="paint0_linear_11_2174" x1="102.457" y1="2.52148" x2="102.457" y2="167.84" gradientUnits="userSpaceOnUse">
<stop stop-color="#C29138"/>
<stop offset="1" stop-color="#E3A940"/>
</linearGradient>
<linearGradient id="paint1_linear_11_2174" x1="212.008" y1="141.382" x2="212.008" y2="143.073" gradientUnits="userSpaceOnUse">
<stop stop-color="#C29138"/>
<stop offset="1" stop-color="#E3A940"/>
</linearGradient>
<linearGradient id="paint2_linear_11_2174" x1="187.019" y1="150.306" x2="187.019" y2="246.509" gradientUnits="userSpaceOnUse">
<stop stop-color="#C29138"/>
<stop offset="1" stop-color="#E3A940"/>
</linearGradient>
<linearGradient id="paint3_linear_11_2174" x1="338.17" y1="0" x2="338.17" y2="165.332" gradientUnits="userSpaceOnUse">
<stop stop-color="#C29138"/>
<stop offset="1" stop-color="#E3A940"/>
</linearGradient>
<linearGradient id="paint4_linear_11_2174" x1="260.702" y1="147.785" x2="260.702" y2="243.989" gradientUnits="userSpaceOnUse">
<stop stop-color="#C29138"/>
<stop offset="1" stop-color="#E3A940"/>
</linearGradient>
</defs>
</svg>
